{"glyphs":{"0":{"ha":852,"x_min":84,"x_max":768,"o":"m 426 -12 q 173 112 261 -12 q 84 514 84 236 q 172 916 84 792 q 426 1040 260 1040 q 680 916 592 1040 q 768 514 768 792 q 680 112 768 236 q 426 -12 591 -12 m 426 62 q 565 103 508 62 q 652 244 621 145 q 683 512 683 344 q 652 782 683 682 q 565 924 621 882 q 426 966 508 966 q 288 924 344 966 q 200 783 231 883 q 169 516 169 684 q 200 246 169 346 q 288 104 231 146 q 426 62 344 62 z "},"1":{"ha":490,"x_min":17,"x_max":359,"o":"m 306 1031 l 359 1031 l 359 0 l 275 0 l 275 921 l 17 734 l 17 820 l 306 1031 z "},"2":{"ha":670,"x_min":32,"x_max":624,"o":"m 624 74 l 624 0 l 44 0 l 44 47 l 340 447 q 450 624 417 551 q 482 767 482 697 q 425 918 482 871 q 254 966 369 966 q 32 926 133 966 l 32 1001 q 136 1030 76 1019 q 259 1040 197 1040 q 488 975 408 1040 q 567 776 567 910 q 552 665 567 718 q 502 550 537 611 q 408 410 468 490 l 158 74 l 624 74 z "},"3":{"ha":690,"x_min":38,"x_max":638,"o":"m 413 535 q 580 446 522 513 q 638 276 638 379 q 547 63 638 138 q 281 -12 456 -12 q 155 -2 217 -12 q 38 27 92 8 l 38 100 q 158 69 96 80 q 279 59 220 59 q 486 115 416 59 q 556 278 556 171 q 489 436 556 381 q 288 492 423 492 l 172 492 l 172 564 l 226 564 q 445 619 370 564 q 521 779 521 674 q 461 920 521 872 q 287 969 402 969 q 63 931 169 969 l 63 1003 q 171 1031 111 1021 q 292 1040 231 1040 q 524 973 443 1040 q 604 783 604 906 q 554 628 604 693 q 413 535 503 564 z "},"4":{"ha":804,"x_min":35,"x_max":774,"o":"m 774 326 l 774 256 l 626 256 l 626 0 l 547 0 l 547 256 l 35 256 l 35 303 l 444 1028 l 531 1028 l 135 326 l 547 326 l 558 681 l 626 681 l 626 326 l 774 326 z "},"5":{"ha":697,"x_min":56,"x_max":656,"o":"m 251 585 q 483 541 393 576 q 614 443 572 506 q 656 287 656 381 q 565 64 656 140 q 299 -12 474 -12 q 173 -2 236 -12 q 56 28 110 8 l 56 100 q 177 69 114 80 q 299 59 240 59 q 574 285 574 59 q 540 406 574 359 q 429 480 506 453 q 224 514 353 506 l 95 521 l 130 1028 l 613 1028 l 613 956 l 206 956 l 181 589 l 251 585 z "},"6":{"ha":782,"x_min":91,"x_max":739,"o":"m 424 584 q 590 551 519 584 q 700 451 660 518 q 739 287 739 385 q 701 122 739 190 q 594 21 663 55 q 438 -12 526 -12 q 182 104 274 -12 q 91 481 91 221 q 197 904 91 768 q 511 1040 303 1040 q 693 1010 619 1040 l 693 937 q 607 960 654 953 q 513 968 560 968 q 260 857 344 968 q 175 502 176 745 q 288 562 222 540 q 424 584 354 584 m 439 58 q 598 114 538 58 q 658 284 658 170 q 594 457 658 401 q 413 514 529 514 q 285 492 349 514 q 176 428 221 471 q 250 142 183 227 q 439 58 317 58 z "},"7":{"ha":638,"x_min":8,"x_max":597,"o":"m 8 1028 l 597 1028 l 597 981 l 209 0 l 121 0 l 502 953 l 8 953 l 8 1028 z "},"8":{"ha":852,"x_min":72,"x_max":780,"o":"m 564 518 q 730 416 679 477 q 780 260 780 354 q 739 116 780 178 q 620 21 698 55 q 433 -12 542 -12 q 165 58 258 -12 q 72 258 72 128 q 125 424 72 353 q 272 533 177 495 q 145 633 185 574 q 106 777 106 693 q 144 917 106 858 q 255 1008 183 976 q 426 1040 326 1040 q 597 1009 524 1040 q 707 919 669 978 q 745 782 745 861 q 699 626 745 692 q 564 518 653 559 m 190 780 q 215 677 190 719 q 298 604 240 635 q 458 549 356 574 l 487 542 q 625 639 582 583 q 667 776 667 694 q 604 921 667 871 q 425 972 540 972 q 250 921 310 972 q 190 780 190 870 m 433 56 q 628 108 560 56 q 697 255 697 160 q 671 357 697 316 q 588 426 646 397 q 430 480 531 456 q 343 504 375 493 q 203 410 252 473 q 155 265 155 348 q 225 110 155 163 q 433 56 296 56 z "},"9":{"ha":782,"x_min":43,"x_max":691,"o":"m 344 1040 q 600 924 508 1040 q 691 547 691 807 q 585 124 691 260 q 271 -12 478 -12 q 89 17 163 -12 l 89 91 q 175 67 128 75 q 269 60 222 60 q 522 171 438 60 q 607 526 606 283 q 494 466 560 488 q 358 444 428 444 q 192 477 263 444 q 82 576 122 510 q 43 741 43 643 q 81 906 43 838 q 188 1007 119 973 q 344 1040 256 1040 m 124 744 q 188 570 124 627 q 369 514 253 514 q 497 535 433 514 q 606 600 561 557 q 532 885 599 801 q 343 970 465 970 q 184 914 244 970 q 124 744 124 858 z "},"\u0000":{"ha":0,"x_min":0,"x_max":0,"o":""},"\r":{"ha":337,"x_min":0,"x_max":0,"o":""}," ":{"ha":337,"x_min":0,"x_max":0,"o":""},"A":{"ha":917,"x_min":22,"x_max":895,"o":"m 808 0 l 681 347 l 235 347 l 108 0 l 22 0 l 401 1028 l 517 1028 l 895 0 l 808 0 m 261 421 l 654 421 l 458 960 l 261 421 z "},"Á":{"ha":917,"x_min":22,"x_max":895,"o":"m 808 0 l 681 347 l 235 347 l 108 0 l 22 0 l 401 1028 l 517 1028 l 895 0 l 808 0 m 261 421 l 654 421 l 458 960 l 261 421 m 421 1119 l 543 1313 l 635 1313 l 497 1119 l 421 1119 z "},"Ă":{"ha":917,"x_min":22,"x_max":895,"o":"m 808 0 l 681 347 l 235 347 l 108 0 l 22 0 l 401 1028 l 517 1028 l 895 0 l 808 0 m 261 421 l 654 421 l 458 960 l 261 421 m 460 1126 q 310 1172 363 1126 q 249 1296 256 1217 l 309 1296 q 352 1209 317 1238 q 460 1181 388 1181 q 568 1209 533 1181 q 610 1296 602 1238 l 669 1296 q 610 1171 662 1215 q 460 1126 558 1126 z "},"Ắ":{"ha":917,"x_min":22,"x_max":895,"o":"m 808 0 l 681 347 l 235 347 l 108 0 l 22 0 l 401 1028 l 517 1028 l 895 0 l 808 0 m 261 421 l 654 421 l 458 960 l 261 421 m 429 1280 l 543 1453 l 618 1453 l 490 1280 l 429 1280 m 460 1126 q 311 1170 363 1126 q 251 1292 259 1214 l 308 1292 q 350 1206 315 1234 q 460 1178 385 1178 q 568 1206 534 1178 q 612 1292 603 1233 l 667 1292 q 608 1170 660 1214 q 460 1126 556 1126 z "},"Ặ":{"ha":917,"x_min":22,"x_max":895,"o":"m 808 0 l 681 347 l 235 347 l 108 0 l 22 0 l 401 1028 l 517 1028 l 895 0 l 808 0 m 261 421 l 654 421 l 458 960 l 261 421 m 459 -231 q 414 -216 431 -231 q 397 -176 397 -201 q 414 -135 397 -150 q 459 -119 431 -119 q 505 -135 488 -119 q 522 -176 522 -150 q 505 -216 522 -201 q 459 -231 488 -231 m 460 1126 q 310 1172 363 1126 q 249 1296 256 1217 l 309 1296 q 352 1209 317 1238 q 460 1181 388 1181 q 568 1209 533 1181 q 610 1296 602 1238 l 669 1296 q 610 1171 662 1215 q 460 1126 558 1126 z "},"Ằ":{"ha":917,"x_min":22,"x_max":895,"o":"m 808 0 l 681 347 l 235 347 l 108 0 l 22 0 l 401 1028 l 517 1028 l 895 0 l 808 0 m 261 421 l 654 421 l 458 960 l 261 421 m 429 1280 l 301 1453 l 376 1453 l 490 1280 l 429 1280 m 458 1126 q 310 1170 362 1126 q 251 1292 259 1213 l 307 1292 q 350 1206 315 1234 q 458 1178 384 1178 q 568 1206 533 1178 q 610 1292 602 1234 l 667 1292 q 607 1170 660 1215 q 458 1126 554 1126 z "},"Ẳ":{"ha":917,"x_min":22,"x_max":895,"o":"m 808 0 l 681 347 l 235 347 l 108 0 l 22 0 l 401 1028 l 517 1028 l 895 0 l 808 0 m 261 421 l 654 421 l 458 960 l 261 421 m 430 1280 q 441 1313 431 1299 q 464 1334 451 1326 q 499 1351 477 1342 q 535 1370 523 1361 q 547 1392 547 1378 q 528 1418 547 1409 q 464 1426 509 1426 q 328 1403 394 1426 l 328 1448 q 392 1465 356 1459 q 467 1472 428 1472 q 569 1451 535 1472 q 603 1396 603 1431 q 587 1355 603 1369 q 540 1327 571 1340 q 503 1306 515 1315 q 488 1280 490 1296 l 430 1280 m 458 1126 q 310 1170 362 1126 q 251 1292 259 1213 l 308 1292 q 350 1206 315 1234 q 458 1178 384 1178 q 567 1206 532 1178 q 612 1292 603 1234 l 667 1292 q 607 1170 660 1215 q 458 1126 554 1126 z "},"Ẵ":{"ha":917,"x_min":22,"x_max":895,"o":"m 808 0 l 681 347 l 235 347 l 108 0 l 22 0 l 401 1028 l 517 1028 l 895 0 l 808 0 m 261 421 l 654 421 l 458 960 l 261 421 m 554 1340 q 504 1347 528 1340 q 449 1367 480 1354 q 400 1385 419 1379 q 364 1390 382 1390 q 305 1378 331 1390 q 251 1342 278 1367 l 251 1399 q 364 1441 296 1441 q 414 1434 390 1441 q 470 1413 439 1426 q 517 1396 499 1401 q 555 1390 536 1390 q 614 1402 588 1390 q 667 1439 641 1414 l 667 1382 q 554 1340 623 1340 m 458 1126 q 310 1170 362 1126 q 251 1292 259 1213 l 308 1292 q 350 1206 315 1234 q 458 1178 384 1178 q 567 1206 532 1178 q 610 1292 602 1234 l 667 1292 q 607 1170 660 1215 q 458 1126 554 1126 z "},"Â":{"ha":917,"x_min":22,"x_max":895,"o":"m 808 0 l 681 347 l 235 347 l 108 0 l 22 0 l 401 1028 l 517 1028 l 895 0 l 808 0 m 261 421 l 654 421 l 458 960 l 261 421 m 668 1119 l 589 1119 l 459 1272 l 329 1119 l 250 1119 l 419 1313 l 500 1313 l 668 1119 z "},"Ấ":{"ha":917,"x_min":22,"x_max":895,"o":"m 808 0 l 681 347 l 235 347 l 108 0 l 22 0 l 401 1028 l 517 1028 l 895 0 l 808 0 m 261 421 l 654 421 l 458 960 l 261 421 m 727 1433 l 802 1433 l 674 1248 l 613 1248 l 727 1433 m 419 1308 l 500 1308 l 668 1119 l 589 1119 l 459 1269 l 329 1119 l 250 1119 l 419 1308 z "},"Ậ":{"ha":917,"x_min":22,"x_max":895,"o":"m 808 0 l 681 347 l 235 347 l 108 0 l 22 0 l 401 1028 l 517 1028 l 895 0 l 808 0 m 261 421 l 654 421 l 458 960 l 261 421 m 459 -231 q 414 -216 431 -231 q 397 -176 397 -201 q 414 -135 397 -150 q 459 -119 431 -119 q 505 -135 488 -119 q 522 -176 522 -150 q 505 -216 522 -201 q 459 -231 488 -231 m 668 1119 l 589 1119 l 459 1272 l 329 1119 l 250 1119 l 419 1313 l 500 1313 l 668 1119 z "},"Ầ":{"ha":917,"x_min":22,"x_max":895,"o":"m 808 0 l 681 347 l 235 347 l 108 0 l 22 0 l 401 1028 l 517 1028 l 895 0 l 808 0 m 261 421 l 654 421 l 458 960 l 261 421 m 690 1248 l 629 1248 l 501 1433 l 576 1433 l 690 1248 m 419 1308 l 500 1308 l 668 1119 l 589 1119 l 459 1269 l 329 1119 l 250 1119 l 419 1308 z "},"Ẩ":{"ha":917,"x_min":22,"x_max":895,"o":"m 808 0 l 681 347 l 235 347 l 108 0 l 22 0 l 401 1028 l 517 1028 l 895 0 l 808 0 m 261 421 l 654 421 l 458 960 l 261 421 m 651 1440 q 753 1419 719 1440 q 787 1364 787 1399 q 770 1323 787 1337 q 724 1295 754 1308 q 685 1274 698 1283 q 671 1248 673 1264 l 613 1248 q 624 1281 614 1267 q 647 1302 634 1294 q 683 1319 660 1310 q 718 1338 706 1329 q 730 1360 730 1347 q 711 1386 730 1377 q 647 1394 692 1394 q 511 1371 578 1394 l 511 1416 q 575 1433 539 1427 q 651 1440 612 1440 m 419 1308 l 500 1308 l 668 1119 l 589 1119 l 459 1269 l 329 1119 l 250 1119 l 419 1308 z "},"Ẫ":{"ha":917,"x_min":22,"x_max":895,"o":"m 808 0 l 681 347 l 235 347 l 108 0 l 22 0 l 401 1028 l 517 1028 l 895 0 l 808 0 m 261 421 l 654 421 l 458 960 l 261 421 m 556 1390 q 615 1402 589 1390 q 668 1439 642 1414 l 668 1382 q 556 1340 625 1340 q 505 1347 529 1340 q 448 1367 481 1353 q 400 1385 418 1379 q 363 1390 381 1390 q 303 1378 330 1390 q 250 1342 277 1367 l 250 1399 q 363 1441 293 1441 q 414 1434 390 1441 q 470 1413 439 1426 q 518 1396 499 1401 q 556 1390 538 1390 m 419 1308 l 500 1308 l 668 1119 l 589 1119 l 459 1269 l 329 1119 l 250 1119 l 419 1308 z "},"Ȁ":{"ha":917,"x_min":22,"x_max":895,"o":"m 808 0 l 681 347 l 235 347 l 108 0 l 22 0 l 401 1028 l 517 1028 l 895 0 l 808 0 m 261 421 l 654 421 l 458 960 l 261 421 m 315 1119 l 221 1313 l 295 1313 l 383 1119 l 315 1119 m 536 1119 l 442 1313 l 516 1313 l 603 1119 l 536 1119 z "},"Ä":{"ha":917,"x_min":22,"x_max":895,"o":"m 808 0 l 681 347 l 235 347 l 108 0 l 22 0 l 401 1028 l 517 1028 l 895 0 l 808 0 m 261 421 l 654 421 l 458 960 l 261 421 m 301 1161 q 258 1176 274 1161 q 242 1217 242 1191 q 258 1258 242 1242 q 301 1273 274 1273 q 344 1258 328 1273 q 360 1217 360 1242 q 344 1176 360 1191 q 301 1161 328 1161 m 617 1161 q 575 1176 590 1161 q 559 1217 559 1191 q 575 1258 559 1242 q 617 1273 590 1273 q 660 1258 644 1273 q 676 1217 676 1242 q 660 1176 676 1191 q 617 1161 644 1161 z "},"Ạ":{"ha":917,"x_min":22,"x_max":895,"o":"m 808 0 l 681 347 l 235 347 l 108 0 l 22 0 l 401 1028 l 517 1028 l 895 0 l 808 0 m 261 421 l 654 421 l 458 960 l 261 421 m 459 -231 q 414 -216 431 -231 q 397 -176 397 -201 q 414 -135 397 -150 q 459 -119 431 -119 q 505 -135 488 -119 q 522 -176 522 -150 q 505 -216 522 -201 q 459 -231 488 -231 z "},"À":{"ha":917,"x_min":22,"x_max":895,"o":"m 808 0 l 681 347 l 235 347 l 108 0 l 22 0 l 401 1028 l 517 1028 l 895 0 l 808 0 m 261 421 l 654 421 l 458 960 l 261 421 m 421 1119 l 283 1313 l 375 1313 l 498 1119 l 421 1119 z "},"Ả":{"ha":917,"x_min":22,"x_max":895,"o":"m 808 0 l 681 347 l 235 347 l 108 0 l 22 0 l 401 1028 l 517 1028 l 895 0 l 808 0 m 261 421 l 654 421 l 458 960 l 261 421 m 430 1119 q 441 1153 431 1140 q 464 1175 451 1167 q 500 1192 478 1183 q 535 1211 524 1202 q 547 1233 547 1219 q 528 1259 547 1250 q 464 1268 509 1268 q 328 1244 394 1268 l 328 1292 q 392 1309 356 1303 q 467 1315 428 1315 q 569 1294 535 1315 q 603 1238 603 1274 q 587 1196 603 1210 q 540 1167 571 1181 q 503 1146 515 1156 q 488 1119 490 1136 l 430 1119 z "},"Ȃ":{"ha":917,"x_min":22,"x_max":895,"o":"m 808 0 l 681 347 l 235 347 l 108 0 l 22 0 l 401 1028 l 517 1028 l 895 0 l 808 0 m 261 421 l 654 421 l 458 960 l 261 421 m 249 1135 q 309 1261 256 1216 q 458 1306 361 1306 q 609 1260 556 1306 q 669 1135 662 1215 l 610 1135 q 566 1222 601 1194 q 458 1251 531 1251 q 351 1222 385 1251 q 309 1135 316 1194 l 249 1135 z "},"Ā":{"ha":917,"x_min":22,"x_max":895,"o":"m 808 0 l 681 347 l 235 347 l 108 0 l 22 0 l 401 1028 l 517 1028 l 895 0 l 808 0 m 261 421 l 654 421 l 458 960 l 261 421 m 258 1186 l 258 1247 l 661 1247 l 661 1186 l 258 1186 z "},"Ą":{"ha":917,"x_min":22,"x_max":972,"o":"m 857 -237 q 910 -231 883 -237 q 972 -210 937 -224 l 972 -258 q 853 -284 913 -284 q 737 -252 777 -284 q 697 -161 697 -220 q 723 -74 697 -114 q 807 3 749 -33 l 681 347 l 235 347 l 108 0 l 22 0 l 401 1028 l 517 1028 l 895 0 q 785 -76 817 -39 q 754 -156 754 -112 q 780 -216 754 -196 q 857 -237 806 -237 m 261 421 l 654 421 l 458 960 l 261 421 z "},"Å":{"ha":917,"x_min":22,"x_max":895,"o":"m 681 347 l 235 347 l 108 0 l 22 0 l 399 1022 q 348 1069 367 1038 q 328 1140 328 1101 q 345 1207 328 1177 q 393 1255 363 1238 q 460 1272 423 1272 q 528 1255 498 1272 q 576 1207 558 1238 q 593 1140 593 1177 q 573 1068 593 1099 q 519 1021 553 1036 l 895 0 l 808 0 l 681 347 m 460 1226 q 399 1203 423 1226 q 376 1140 376 1180 q 399 1077 376 1100 q 460 1053 423 1053 q 522 1077 499 1053 q 546 1140 546 1100 q 522 1203 546 1180 q 460 1226 499 1226 m 261 421 l 654 421 l 458 960 l 261 421 z "},"Ǻ":{"ha":917,"x_min":22,"x_max":895,"o":"m 681 347 l 235 347 l 108 0 l 22 0 l 399 1023 q 347 1070 366 1039 q 328 1140 328 1101 q 345 1208 328 1178 q 393 1255 363 1238 q 460 1272 423 1272 q 526 1256 497 1272 l 616 1349 l 694 1349 l 567 1222 q 593 1140 593 1186 q 573 1068 593 1100 q 519 1022 553 1037 l 895 0 l 808 0 l 681 347 m 460 1227 q 399 1203 423 1227 q 376 1140 376 1180 q 399 1077 376 1101 q 460 1053 423 1053 q 522 1077 499 1053 q 546 1140 546 1101 q 522 1203 546 1180 q 460 1227 499 1227 m 261 421 l 654 421 l 458 960 l 261 421 z "},"Ã":{"ha":917,"x_min":22,"x_max":895,"o":"m 808 0 l 681 347 l 235 347 l 108 0 l 22 0 l 401 1028 l 517 1028 l 895 0 l 808 0 m 261 421 l 654 421 l 458 960 l 261 421 m 563 1167 q 509 1175 535 1167 q 449 1196 484 1182 q 397 1214 418 1208 q 354 1220 376 1220 q 292 1208 319 1220 q 240 1171 265 1197 l 240 1234 q 355 1278 283 1278 q 409 1271 383 1278 q 469 1250 435 1264 q 521 1231 499 1238 q 564 1225 542 1225 q 626 1237 599 1225 q 678 1274 653 1249 l 678 1211 q 563 1167 637 1167 z "},"Æ":{"ha":1255,"x_min":22,"x_max":1205,"o":"m 725 74 l 1205 74 l 1205 0 l 646 0 l 623 347 l 238 347 l 108 0 l 22 0 l 407 1028 l 1198 1028 l 1198 953 l 665 953 l 692 565 l 1131 565 l 1131 491 l 697 491 l 725 74 m 265 422 l 618 422 l 583 953 l 463 953 l 265 422 z "},"Ǽ":{"ha":1255,"x_min":22,"x_max":1205,"o":"m 725 74 l 1205 74 l 1205 0 l 646 0 l 623 347 l 238 347 l 108 0 l 22 0 l 407 1028 l 1198 1028 l 1198 953 l 665 953 l 692 565 l 1131 565 l 1131 491 l 697 491 l 725 74 m 265 422 l 618 422 l 583 953 l 463 953 l 265 422 m 582 1119 l 704 1313 l 797 1313 l 658 1119 l 582 1119 z "},"B":{"ha":861,"x_min":124,"x_max":808,"o":"m 592 531 q 754 445 700 511 q 808 277 808 378 q 763 119 808 182 q 622 24 719 56 q 369 -8 525 -8 q 124 8 243 -8 l 124 1012 q 394 1038 253 1038 q 686 972 594 1038 q 778 767 778 906 q 733 616 778 678 q 592 531 688 553 m 400 967 q 207 952 292 967 l 207 564 l 422 564 q 632 613 567 564 q 696 765 696 662 q 666 882 696 838 q 572 947 637 926 q 400 967 508 967 m 382 63 q 585 86 510 63 q 693 157 660 110 q 726 279 726 204 q 657 440 726 388 q 441 492 588 492 l 207 492 l 207 73 q 382 63 283 63 z "},"C":{"ha":784,"x_min":77,"x_max":758,"o":"m 524 -12 q 194 110 310 -12 q 77 513 77 233 q 195 913 77 785 q 535 1040 313 1040 q 758 1010 648 1040 l 758 933 q 536 965 651 965 q 332 921 414 965 q 208 777 251 876 q 165 515 165 678 q 209 247 165 347 q 332 105 252 147 q 529 63 412 63 q 641 72 588 63 q 758 102 695 81 l 758 26 q 524 -12 649 -12 z "},"Ć":{"ha":784,"x_min":77,"x_max":758,"o":"m 524 -12 q 194 110 310 -12 q 77 513 77 233 q 195 913 77 785 q 535 1040 313 1040 q 758 1010 648 1040 l 758 933 q 536 965 651 965 q 332 921 414 965 q 208 777 251 876 q 165 515 165 678 q 209 247 165 347 q 332 105 252 147 q 529 63 412 63 q 641 72 588 63 q 758 102 695 81 l 758 26 q 524 -12 649 -12 m 441 1119 l 563 1313 l 656 1313 l 517 1119 l 441 1119 z "},"Č":{"ha":784,"x_min":77,"x_max":758,"o":"m 524 -12 q 194 110 310 -12 q 77 513 77 233 q 195 913 77 785 q 535 1040 313 1040 q 758 1010 648 1040 l 758 933 q 536 965 651 965 q 332 921 414 965 q 208 777 251 876 q 165 515 165 678 q 209 247 165 347 q 332 105 252 147 q 529 63 412 63 q 641 72 588 63 q 758 102 695 81 l 758 26 q 524 -12 649 -12 m 609 1313 l 688 1313 l 520 1119 l 439 1119 l 270 1313 l 349 1313 l 479 1160 l 609 1313 z "},"Ç":{"ha":784,"x_min":77,"x_max":758,"o":"m 536 965 q 332 921 414 965 q 208 777 251 876 q 165 515 165 678 q 209 247 165 347 q 332 105 252 147 q 529 63 412 63 q 641 72 588 63 q 758 102 695 81 l 758 26 q 524 -12 649 -12 l 512 -12 l 512 -74 q 602 -105 569 -78 q 635 -178 635 -131 q 597 -257 635 -229 q 490 -284 558 -284 q 422 -277 456 -284 q 358 -258 388 -270 l 358 -209 q 488 -237 426 -237 q 580 -177 580 -237 q 487 -115 580 -115 l 459 -115 l 459 -10 q 176 132 276 8 q 77 513 77 256 q 195 913 77 785 q 535 1040 313 1040 q 758 1010 648 1040 l 758 933 q 536 965 651 965 z "},"Ḉ":{"ha":784,"x_min":77,"x_max":758,"o":"m 656 1313 l 517 1119 l 441 1119 l 563 1313 l 656 1313 m 536 965 q 332 921 414 965 q 208 777 251 876 q 165 515 165 678 q 209 247 165 347 q 332 105 252 147 q 529 63 412 63 q 641 72 588 63 q 758 102 695 81 l 758 26 q 524 -12 649 -12 l 512 -12 l 512 -74 q 602 -105 569 -78 q 635 -178 635 -131 q 597 -257 635 -229 q 490 -284 558 -284 q 422 -277 456 -284 q 358 -258 388 -270 l 358 -209 q 488 -237 426 -237 q 580 -177 580 -237 q 487 -115 580 -115 l 459 -115 l 459 -10 q 176 132 276 8 q 77 513 77 256 q 195 913 77 785 q 535 1040 313 1040 q 758 1010 648 1040 l 758 933 q 536 965 651 965 z "},"Ĉ":{"ha":784,"x_min":77,"x_max":758,"o":"m 524 -12 q 194 110 310 -12 q 77 513 77 233 q 195 913 77 785 q 535 1040 313 1040 q 758 1010 648 1040 l 758 933 q 536 965 651 965 q 332 921 414 965 q 208 777 251 876 q 165 515 165 678 q 209 247 165 347 q 332 105 252 147 q 529 63 412 63 q 641 72 588 63 q 758 102 695 81 l 758 26 q 524 -12 649 -12 m 688 1119 l 609 1119 l 479 1272 l 349 1119 l 270 1119 l 439 1313 l 520 1313 l 688 1119 z "},"Ċ":{"ha":784,"x_min":77,"x_max":758,"o":"m 524 -12 q 194 110 310 -12 q 77 513 77 233 q 195 913 77 785 q 535 1040 313 1040 q 758 1010 648 1040 l 758 933 q 536 965 651 965 q 332 921 414 965 q 208 777 251 876 q 165 515 165 678 q 209 247 165 347 q 332 105 252 147 q 529 63 412 63 q 641 72 588 63 q 758 102 695 81 l 758 26 q 524 -12 649 -12 m 479 1161 q 434 1176 451 1161 q 417 1217 417 1191 q 434 1258 417 1242 q 479 1273 451 1273 q 525 1258 508 1273 q 542 1217 542 1242 q 525 1176 542 1191 q 479 1161 508 1161 z "},"D":{"ha":955,"x_min":124,"x_max":878,"o":"m 358 -8 q 124 7 243 -8 l 124 1013 q 250 1031 184 1024 q 378 1038 317 1038 q 752 908 627 1038 q 878 514 878 778 q 748 119 878 247 q 358 -8 618 -8 m 371 67 q 605 113 513 67 q 744 258 698 160 q 790 514 790 357 q 689 855 790 747 q 378 964 588 964 q 208 949 304 964 l 208 76 q 371 67 278 67 z "},"Ǳ":{"ha":1706,"x_min":124,"x_max":1663,"o":"m 358 -8 q 124 7 243 -8 l 124 1013 q 250 1031 184 1024 q 378 1038 317 1038 q 752 908 627 1038 q 878 514 878 778 q 748 119 878 247 q 358 -8 618 -8 m 371 67 q 605 113 513 67 q 744 258 698 160 q 790 514 790 357 q 689 855 790 747 q 378 964 588 964 q 208 949 304 964 l 208 76 q 371 67 278 67 m 1076 74 l 1663 74 l 1663 0 l 964 0 l 964 48 l 1544 953 l 972 953 l 972 1028 l 1655 1028 l 1655 980 l 1076 74 z "},"Ǆ":{"ha":1706,"x_min":124,"x_max":1663,"o":"m 358 -8 q 124 7 243 -8 l 124 1013 q 250 1031 184 1024 q 378 1038 317 1038 q 752 908 627 1038 q 878 514 878 778 q 748 119 878 247 q 358 -8 618 -8 m 371 67 q 605 113 513 67 q 744 258 698 160 q 790 514 790 357 q 689 855 790 747 q 378 964 588 964 q 208 949 304 964 l 208 76 q 371 67 278 67 m 1076 74 l 1663 74 l 1663 0 l 964 0 l 964 48 l 1544 953 l 972 953 l 972 1028 l 1655 1028 l 1655 980 l 1076 74 m 1444 1313 l 1523 1313 l 1355 1119 l 1274 1119 l 1105 1313 l 1184 1313 l 1314 1160 l 1444 1313 z "},"Ð":{"ha":955,"x_min":1,"x_max":878,"o":"m 378 1038 q 752 908 627 1038 q 878 514 878 778 q 748 119 878 247 q 358 -8 618 -8 q 124 7 243 -8 l 124 498 l 1 498 l 1 560 l 124 560 l 124 1013 q 250 1031 184 1024 q 378 1038 317 1038 m 371 67 q 605 113 513 67 q 744 258 698 160 q 790 514 790 357 q 689 855 790 747 q 378 964 588 964 q 208 949 304 964 l 208 560 l 447 560 l 447 498 l 208 498 l 208 76 q 371 67 278 67 z "},"Ď":{"ha":955,"x_min":124,"x_max":878,"o":"m 358 -8 q 124 7 243 -8 l 124 1013 q 250 1031 184 1024 q 378 1038 317 1038 q 752 908 627 1038 q 878 514 878 778 q 748 119 878 247 q 358 -8 618 -8 m 371 67 q 605 113 513 67 q 744 258 698 160 q 790 514 790 357 q 689 855 790 747 q 378 964 588 964 q 208 949 304 964 l 208 76 q 371 67 278 67 m 563 1313 l 642 1313 l 474 1119 l 393 1119 l 224 1313 l 303 1313 l 433 1160 l 563 1313 z "},"Đ":{"ha":955,"x_min":1,"x_max":878,"o":"m 378 1038 q 752 908 627 1038 q 878 514 878 778 q 748 119 878 247 q 358 -8 618 -8 q 124 7 243 -8 l 124 498 l 1 498 l 1 560 l 124 560 l 124 1013 q 250 1031 184 1024 q 378 1038 317 1038 m 371 67 q 605 113 513 67 q 744 258 698 160 q 790 514 790 357 q 689 855 790 747 q 378 964 588 964 q 208 949 304 964 l 208 560 l 447 560 l 447 498 l 208 498 l 208 76 q 371 67 278 67 z "},"Ḍ":{"ha":955,"x_min":124,"x_max":878,"o":"m 358 -8 q 124 7 243 -8 l 124 1013 q 250 1031 184 1024 q 378 1038 317 1038 q 752 908 627 1038 q 878 514 878 778 q 748 119 878 247 q 358 -8 618 -8 m 371 67 q 605 113 513 67 q 744 258 698 160 q 790 514 790 357 q 689 855 790 747 q 378 964 588 964 q 208 949 304 964 l 208 76 q 371 67 278 67 m 435 -231 q 390 -216 407 -231 q 374 -176 374 -201 q 390 -135 374 -150 q 435 -119 407 -119 q 481 -135 465 -119 q 498 -176 498 -150 q 481 -216 498 -201 q 435 -231 465 -231 z "},"Ḏ":{"ha":955,"x_min":124,"x_max":878,"o":"m 358 -8 q 124 7 243 -8 l 124 1013 q 250 1031 184 1024 q 378 1038 317 1038 q 752 908 627 1038 q 878 514 878 778 q 748 119 878 247 q 358 -8 618 -8 m 371 67 q 605 113 513 67 q 744 258 698 160 q 790 514 790 357 q 689 855 790 747 q 378 964 588 964 q 208 949 304 964 l 208 76 q 371 67 278 67 m 234 -206 l 234 -145 l 638 -145 l 638 -206 l 234 -206 z "},"ǲ":{"ha":1576,"x_min":124,"x_max":1538,"o":"m 358 -8 q 124 7 243 -8 l 124 1013 q 250 1031 184 1024 q 378 1038 317 1038 q 752 908 627 1038 q 878 514 878 778 q 748 119 878 247 q 358 -8 618 -8 m 371 67 q 605 113 513 67 q 744 258 698 160 q 790 514 790 357 q 689 855 790 747 q 378 964 588 964 q 208 949 304 964 l 208 76 q 371 67 278 67 m 1105 72 l 1538 72 l 1538 0 l 998 0 l 998 51 l 1422 681 l 1006 681 l 1006 752 l 1530 752 l 1530 701 l 1105 72 z "},"ǅ":{"ha":1576,"x_min":124,"x_max":1538,"o":"m 358 -8 q 124 7 243 -8 l 124 1013 q 250 1031 184 1024 q 378 1038 317 1038 q 752 908 627 1038 q 878 514 878 778 q 748 119 878 247 q 358 -8 618 -8 m 371 67 q 605 113 513 67 q 744 258 698 160 q 790 514 790 357 q 689 855 790 747 q 378 964 588 964 q 208 949 304 964 l 208 76 q 371 67 278 67 m 1105 72 l 1538 72 l 1538 0 l 998 0 l 998 51 l 1422 681 l 1006 681 l 1006 752 l 1530 752 l 1530 701 l 1105 72 m 1398 1090 l 1477 1090 l 1309 897 l 1228 897 l 1059 1090 l 1138 1090 l 1268 938 l 1398 1090 z "},"E":{"ha":794,"x_min":124,"x_max":744,"o":"m 208 74 l 744 74 l 744 0 l 124 0 l 124 1028 l 738 1028 l 738 953 l 208 953 l 208 565 l 671 565 l 671 491 l 208 491 l 208 74 z "},"É":{"ha":794,"x_min":124,"x_max":744,"o":"m 208 74 l 744 74 l 744 0 l 124 0 l 124 1028 l 738 1028 l 738 953 l 208 953 l 208 565 l 671 565 l 671 491 l 208 491 l 208 74 m 408 1119 l 530 1313 l 622 1313 l 484 1119 l 408 1119 z "},"Ĕ":{"ha":794,"x_min":124,"x_max":744,"o":"m 208 74 l 744 74 l 744 0 l 124 0 l 124 1028 l 738 1028 l 738 953 l 208 953 l 208 565 l 671 565 l 671 491 l 208 491 l 208 74 m 447 1126 q 297 1172 350 1126 q 236 1296 243 1217 l 296 1296 q 339 1209 304 1238 q 447 1181 374 1181 q 555 1209 520 1181 q 597 1296 589 1238 l 656 1296 q 597 1171 649 1215 q 447 1126 544 1126 z "},"Ě":{"ha":794,"x_min":124,"x_max":744,"o":"m 208 74 l 744 74 l 744 0 l 124 0 l 124 1028 l 738 1028 l 738 953 l 208 953 l 208 565 l 671 565 l 671 491 l 208 491 l 208 74 m 576 1313 l 655 1313 l 487 1119 l 406 1119 l 237 1313 l 316 1313 l 446 1160 l 576 1313 z "},"Ḝ":{"ha":794,"x_min":124,"x_max":744,"o":"m 447 1126 q 297 1172 350 1126 q 236 1296 243 1217 l 296 1296 q 339 1209 304 1238 q 447 1181 374 1181 q 555 1209 520 1181 q 597 1296 589 1238 l 656 1296 q 597 1171 649 1215 q 447 1126 544 1126 m 471 0 l 471 -74 q 561 -105 528 -78 q 594 -178 594 -131 q 556 -257 594 -229 q 449 -284 517 -284 q 381 -277 415 -284 q 317 -258 347 -270 l 317 -209 q 447 -237 385 -237 q 539 -177 539 -237 q 446 -115 539 -115 l 418 -115 l 418 0 l 124 0 l 124 1028 l 738 1028 l 738 953 l 208 953 l 208 565 l 671 565 l 671 491 l 208 491 l 208 74 l 744 74 l 744 0 l 471 0 z "},"Ê":{"ha":794,"x_min":124,"x_max":744,"o":"m 208 74 l 744 74 l 744 0 l 124 0 l 124 1028 l 738 1028 l 738 953 l 208 953 l 208 565 l 671 565 l 671 491 l 208 491 l 208 74 m 655 1119 l 576 1119 l 446 1272 l 316 1119 l 237 1119 l 406 1313 l 487 1313 l 655 1119 z "},"Ế":{"ha":794,"x_min":124,"x_max":789,"o":"m 208 74 l 744 74 l 744 0 l 124 0 l 124 1028 l 738 1028 l 738 953 l 208 953 l 208 565 l 671 565 l 671 491 l 208 491 l 208 74 m 714 1433 l 789 1433 l 660 1248 l 600 1248 l 714 1433 m 406 1308 l 487 1308 l 655 1119 l 576 1119 l 446 1269 l 316 1119 l 237 1119 l 406 1308 z "},"Ệ":{"ha":794,"x_min":124,"x_max":744,"o":"m 208 74 l 744 74 l 744 0 l 124 0 l 124 1028 l 738 1028 l 738 953 l 208 953 l 208 565 l 671 565 l 671 491 l 208 491 l 208 74 m 447 -231 q 402 -216 419 -231 q 385 -176 385 -201 q 402 -135 385 -150 q 447 -119 419 -119 q 493 -135 476 -119 q 510 -176 510 -150 q 493 -216 510 -201 q 447 -231 476 -231 m 655 1119 l 576 1119 l 446 1272 l 316 1119 l 237 1119 l 406 1313 l 487 1313 l 655 1119 z "},"Ề":{"ha":794,"x_min":124,"x_max":744,"o":"m 208 74 l 744 74 l 744 0 l 124 0 l 124 1028 l 738 1028 l 738 953 l 208 953 l 208 565 l 671 565 l 671 491 l 208 491 l 208 74 m 676 1248 l 616 1248 l 488 1433 l 563 1433 l 676 1248 m 406 1308 l 487 1308 l 655 1119 l 576 1119 l 446 1269 l 316 1119 l 237 1119 l 406 1308 z "},"Ể":{"ha":794,"x_min":124,"x_max":774,"o":"m 208 74 l 744 74 l 744 0 l 124 0 l 124 1028 l 738 1028 l 738 953 l 208 953 l 208 565 l 671 565 l 671 491 l 208 491 l 208 74 m 638 1440 q 740 1419 706 1440 q 774 1364 774 1399 q 757 1323 774 1337 q 710 1295 741 1308 q 672 1274 685 1283 q 658 1248 660 1264 l 600 1248 q 611 1281 601 1267 q 634 1302 621 1294 q 669 1319 647 1310 q 705 1338 693 1329 q 717 1360 717 1347 q 698 1386 717 1377 q 634 1394 679 1394 q 498 1371 565 1394 l 498 1416 q 562 1433 526 1427 q 638 1440 599 1440 m 406 1308 l 487 1308 l 655 1119 l 576 1119 l 446 1269 l 316 1119 l 237 1119 l 406 1308 z "},"Ễ":{"ha":794,"x_min":124,"x_max":744,"o":"m 208 74 l 744 74 l 744 0 l 124 0 l 124 1028 l 738 1028 l 738 953 l 208 953 l 208 565 l 671 565 l 671 491 l 208 491 l 208 74 m 543 1390 q 602 1402 576 1390 q 655 1439 628 1414 l 655 1382 q 542 1340 612 1340 q 492 1347 516 1340 q 435 1367 467 1353 q 386 1385 405 1379 q 349 1390 368 1390 q 290 1378 317 1390 q 237 1342 264 1367 l 237 1399 q 350 1441 280 1441 q 401 1434 376 1441 q 457 1413 426 1426 q 505 1396 486 1401 q 543 1390 524 1390 m 406 1308 l 487 1308 l 655 1119 l 576 1119 l 446 1269 l 316 1119 l 237 1119 l 406 1308 z "},"Ȅ":{"ha":794,"x_min":124,"x_max":744,"o":"m 208 74 l 744 74 l 744 0 l 124 0 l 124 1028 l 738 1028 l 738 953 l 208 953 l 208 565 l 671 565 l 671 491 l 208 491 l 208 74 m 301 1119 l 208 1313 l 282 1313 l 369 1119 l 301 1119 m 523 1119 l 429 1313 l 503 1313 l 590 1119 l 523 1119 z "},"Ë":{"ha":794,"x_min":124,"x_max":744,"o":"m 208 74 l 744 74 l 744 0 l 124 0 l 124 1028 l 738 1028 l 738 953 l 208 953 l 208 565 l 671 565 l 671 491 l 208 491 l 208 74 m 288 1161 q 244 1176 260 1161 q 228 1217 228 1191 q 244 1258 228 1242 q 288 1273 260 1273 q 331 1258 315 1273 q 347 1217 347 1242 q 331 1176 347 1191 q 288 1161 315 1161 m 604 1161 q 561 1176 577 1161 q 546 1217 546 1191 q 561 1258 546 1242 q 604 1273 577 1273 q 647 1258 631 1273 q 663 1217 663 1242 q 647 1176 663 1191 q 604 1161 631 1161 z "},"Ė":{"ha":794,"x_min":124,"x_max":744,"o":"m 208 74 l 744 74 l 744 0 l 124 0 l 124 1028 l 738 1028 l 738 953 l 208 953 l 208 565 l 671 565 l 671 491 l 208 491 l 208 74 m 446 1161 q 401 1176 417 1161 q 384 1217 384 1191 q 401 1258 384 1242 q 446 1273 417 1273 q 492 1258 475 1273 q 508 1217 508 1242 q 492 1176 508 1191 q 446 1161 475 1161 z "},"Ẹ":{"ha":794,"x_min":124,"x_max":744,"o":"m 208 74 l 744 74 l 744 0 l 124 0 l 124 1028 l 738 1028 l 738 953 l 208 953 l 208 565 l 671 565 l 671 491 l 208 491 l 208 74 m 447 -231 q 402 -216 419 -231 q 385 -176 385 -201 q 402 -135 385 -150 q 447 -119 419 -119 q 493 -135 476 -119 q 510 -176 510 -150 q 493 -216 510 -201 q 447 -231 476 -231 z "},"È":{"ha":794,"x_min":124,"x_max":744,"o":"m 208 74 l 744 74 l 744 0 l 124 0 l 124 1028 l 738 1028 l 738 953 l 208 953 l 208 565 l 671 565 l 671 491 l 208 491 l 208 74 m 408 1119 l 270 1313 l 362 1313 l 485 1119 l 408 1119 z "},"Ẻ":{"ha":794,"x_min":124,"x_max":744,"o":"m 208 74 l 744 74 l 744 0 l 124 0 l 124 1028 l 738 1028 l 738 953 l 208 953 l 208 565 l 671 565 l 671 491 l 208 491 l 208 74 m 417 1119 q 427 1153 417 1140 q 451 1175 438 1167 q 487 1192 465 1183 q 522 1211 510 1202 q 533 1233 533 1219 q 515 1259 533 1250 q 451 1268 496 1268 q 315 1244 381 1268 l 315 1292 q 379 1309 342 1303 q 454 1315 415 1315 q 556 1294 522 1315 q 590 1238 590 1274 q 574 1196 590 1210 q 527 1167 558 1181 q 490 1146 502 1156 q 475 1119 477 1136 l 417 1119 z "},"Ȇ":{"ha":794,"x_min":124,"x_max":744,"o":"m 208 74 l 744 74 l 744 0 l 124 0 l 124 1028 l 738 1028 l 738 953 l 208 953 l 208 565 l 671 565 l 671 491 l 208 491 l 208 74 m 236 1135 q 295 1261 243 1216 q 445 1306 348 1306 q 595 1260 542 1306 q 656 1135 649 1215 l 597 1135 q 553 1222 588 1194 q 445 1251 518 1251 q 338 1222 372 1251 q 296 1135 303 1194 l 236 1135 z "},"Ē":{"ha":794,"x_min":124,"x_max":744,"o":"m 208 74 l 744 74 l 744 0 l 124 0 l 124 1028 l 738 1028 l 738 953 l 208 953 l 208 565 l 671 565 l 671 491 l 208 491 l 208 74 m 244 1186 l 244 1247 l 648 1247 l 648 1186 l 244 1186 z "},"Ḗ":{"ha":794,"x_min":124,"x_max":744,"o":"m 208 74 l 744 74 l 744 0 l 124 0 l 124 1028 l 738 1028 l 738 953 l 208 953 l 208 565 l 671 565 l 671 491 l 208 491 l 208 74 m 406 1319 l 527 1480 l 624 1480 l 488 1319 l 406 1319 m 244 1186 l 244 1247 l 648 1247 l 648 1186 l 244 1186 z "},"Ḕ":{"ha":794,"x_min":124,"x_max":744,"o":"m 208 74 l 744 74 l 744 0 l 124 0 l 124 1028 l 738 1028 l 738 953 l 208 953 l 208 565 l 671 565 l 671 491 l 208 491 l 208 74 m 406 1319 l 267 1480 l 364 1480 l 487 1319 l 406 1319 m 244 1186 l 244 1247 l 648 1247 l 648 1186 l 244 1186 z "},"Ę":{"ha":794,"x_min":124,"x_max":765,"o":"m 650 -237 q 703 -231 676 -237 q 765 -210 730 -224 l 765 -258 q 646 -284 706 -284 q 530 -252 570 -284 q 490 -161 490 -220 q 515 -75 490 -115 q 595 0 540 -36 l 124 0 l 124 1028 l 738 1028 l 738 953 l 208 953 l 208 565 l 671 565 l 671 491 l 208 491 l 208 74 l 744 74 l 744 0 l 688 0 q 578 -76 610 -39 q 547 -156 547 -112 q 573 -216 547 -196 q 650 -237 599 -237 z "},"Ẽ":{"ha":794,"x_min":124,"x_max":744,"o":"m 208 74 l 744 74 l 744 0 l 124 0 l 124 1028 l 738 1028 l 738 953 l 208 953 l 208 565 l 671 565 l 671 491 l 208 491 l 208 74 m 550 1167 q 496 1175 522 1167 q 436 1196 471 1182 q 384 1214 405 1208 q 341 1220 363 1220 q 279 1208 306 1220 q 227 1171 252 1197 l 227 1234 q 342 1278 269 1278 q 396 1271 370 1278 q 456 1250 422 1264 q 508 1231 486 1238 q 551 1225 529 1225 q 613 1237 586 1225 q 665 1274 640 1249 l 665 1211 q 550 1167 624 1167 z "},"F":{"ha":766,"x_min":124,"x_max":732,"o":"m 732 953 l 208 953 l 208 560 l 665 560 l 665 485 l 208 485 l 208 0 l 124 0 l 124 1028 l 732 1028 l 732 953 z "},"G":{"ha":922,"x_min":76,"x_max":813,"o":"m 813 500 l 813 12 q 697 -3 749 1 q 589 -8 645 -8 q 205 118 333 -8 q 77 513 78 243 q 204 913 76 785 q 560 1040 332 1040 q 790 1009 674 1040 l 790 933 q 674 958 728 951 q 564 965 619 965 q 268 860 372 965 q 165 515 165 754 q 212 258 165 356 q 351 113 258 159 q 585 67 443 67 q 731 77 666 67 l 731 500 l 813 500 z "},"Ǵ":{"ha":922,"x_min":77,"x_max":813,"o":"m 813 500 l 813 12 q 697 -3 749 1 q 589 -8 645 -8 q 205 118 333 -8 q 77 513 78 243 q 204 913 76 785 q 560 1040 332 1040 q 790 1009 674 1040 l 790 933 q 674 958 728 951 q 564 965 619 965 q 268 860 372 965 q 165 515 165 754 q 212 258 165 356 q 351 113 258 159 q 585 67 443 67 q 731 77 666 67 l 731 500 l 813 500 m 468 1119 l 590 1313 l 683 1313 l 544 1119 l 468 1119 z "},"Ğ":{"ha":922,"x_min":77,"x_max":813,"o":"m 813 500 l 813 12 q 697 -3 749 1 q 589 -8 645 -8 q 205 118 333 -8 q 77 513 78 243 q 204 913 76 785 q 560 1040 332 1040 q 790 1009 674 1040 l 790 933 q 674 958 728 951 q 564 965 619 965 q 268 860 372 965 q 165 515 165 754 q 212 258 165 356 q 351 113 258 159 q 585 67 443 67 q 731 77 666 67 l 731 500 l 813 500 m 508 1126 q 357 1172 410 1126 q 297 1296 303 1217 l 356 1296 q 400 1209 365 1238 q 508 1181 435 1181 q 615 1209 581 1181 q 657 1296 649 1238 l 717 1296 q 657 1171 709 1215 q 508 1126 605 1126 z "},"Ǧ":{"ha":922,"x_min":77,"x_max":813,"o":"m 813 500 l 813 12 q 697 -3 749 1 q 589 -8 645 -8 q 205 118 333 -8 q 77 513 78 243 q 204 913 76 785 q 560 1040 332 1040 q 790 1009 674 1040 l 790 933 q 674 958 728 951 q 564 965 619 965 q 268 860 372 965 q 165 515 165 754 q 212 258 165 356 q 351 113 258 159 q 585 67 443 67 q 731 77 666 67 l 731 500 l 813 500 m 636 1313 l 715 1313 l 547 1119 l 466 1119 l 297 1313 l 376 1313 l 506 1160 l 636 1313 z "},"Ĝ":{"ha":922,"x_min":77,"x_max":813,"o":"m 813 500 l 813 12 q 697 -3 749 1 q 589 -8 645 -8 q 205 118 333 -8 q 77 513 78 243 q 204 913 76 785 q 560 1040 332 1040 q 790 1009 674 1040 l 790 933 q 674 958 728 951 q 564 965 619 965 q 268 860 372 965 q 165 515 165 754 q 212 258 165 356 q 351 113 258 159 q 585 67 443 67 q 731 77 666 67 l 731 500 l 813 500 m 715 1119 l 636 1119 l 506 1272 l 376 1119 l 297 1119 l 466 1313 l 547 1313 l 715 1119 z "},"Ģ":{"ha":922,"x_min":77,"x_max":813,"o":"m 813 500 l 813 12 q 697 -3 749 1 q 589 -8 645 -8 q 205 118 333 -8 q 77 513 78 243 q 204 913 76 785 q 560 1040 332 1040 q 790 1009 674 1040 l 790 933 q 674 958 728 951 q 564 965 619 965 q 268 860 372 965 q 165 515 165 754 q 212 258 165 356 q 351 113 258 159 q 585 67 443 67 q 731 77 666 67 l 731 500 l 813 500 m 504 -119 q 551 -137 535 -119 q 567 -188 567 -154 q 557 -252 567 -217 q 531 -318 548 -287 l 478 -318 q 504 -222 501 -263 q 462 -207 477 -221 q 447 -170 447 -193 q 462 -133 447 -147 q 504 -119 477 -119 z "},"Ġ":{"ha":922,"x_min":77,"x_max":813,"o":"m 813 500 l 813 12 q 697 -3 749 1 q 589 -8 645 -8 q 205 118 333 -8 q 77 513 78 243 q 204 913 76 785 q 560 1040 332 1040 q 790 1009 674 1040 l 790 933 q 674 958 728 951 q 564 965 619 965 q 268 860 372 965 q 165 515 165 754 q 212 258 165 356 q 351 113 258 159 q 585 67 443 67 q 731 77 666 67 l 731 500 l 813 500 m 506 1161 q 461 1176 478 1161 q 444 1217 444 1191 q 461 1258 444 1242 q 506 1273 478 1273 q 552 1258 535 1273 q 569 1217 569 1242 q 552 1176 569 1191 q 506 1161 535 1161 z "},"Ḡ":{"ha":922,"x_min":77,"x_max":813,"o":"m 813 500 l 813 12 q 697 -3 749 1 q 589 -8 645 -8 q 205 118 333 -8 q 77 513 78 243 q 204 913 76 785 q 560 1040 332 1040 q 790 1009 674 1040 l 790 933 q 674 958 728 951 q 564 965 619 965 q 268 860 372 965 q 165 515 165 754 q 212 258 165 356 q 351 113 258 159 q 585 67 443 67 q 731 77 666 67 l 731 500 l 813 500 m 305 1186 l 305 1247 l 708 1247 l 708 1186 l 305 1186 z "},"H":{"ha":989,"x_min":124,"x_max":865,"o":"m 124 0 l 124 1028 l 208 1028 l 208 567 l 781 567 l 781 1028 l 865 1028 l 865 0 l 781 0 l 781 489 l 208 489 l 208 0 l 124 0 z "},"Ħ":{"ha":989,"x_min":1,"x_max":988,"o":"m 988 829 l 988 767 l 865 767 l 865 0 l 781 0 l 781 489 l 208 489 l 208 0 l 124 0 l 124 767 l 1 767 l 1 829 l 124 829 l 124 1028 l 208 1028 l 208 829 l 781 829 l 781 1028 l 865 1028 l 865 829 l 988 829 m 781 567 l 781 767 l 208 767 l 208 567 l 781 567 z "},"Ḫ":{"ha":989,"x_min":124,"x_max":865,"o":"m 124 0 l 124 1028 l 208 1028 l 208 567 l 781 567 l 781 1028 l 865 1028 l 865 0 l 781 0 l 781 489 l 208 489 l 208 0 l 124 0 m 496 -283 q 342 -236 396 -283 q 285 -108 288 -189 l 344 -108 q 384 -198 348 -167 q 496 -228 421 -228 q 606 -198 571 -228 q 645 -108 642 -167 l 705 -108 q 649 -237 702 -190 q 496 -283 596 -283 z "},"Ĥ":{"ha":989,"x_min":124,"x_max":865,"o":"m 124 0 l 124 1028 l 208 1028 l 208 567 l 781 567 l 781 1028 l 865 1028 l 865 0 l 781 0 l 781 489 l 208 489 l 208 0 l 124 0 m 703 1119 l 624 1119 l 494 1272 l 365 1119 l 285 1119 l 454 1313 l 535 1313 l 703 1119 z "},"Ḥ":{"ha":989,"x_min":124,"x_max":865,"o":"m 124 0 l 124 1028 l 208 1028 l 208 567 l 781 567 l 781 1028 l 865 1028 l 865 0 l 781 0 l 781 489 l 208 489 l 208 0 l 124 0 m 494 -231 q 449 -216 466 -231 q 433 -176 433 -201 q 449 -135 433 -150 q 494 -119 466 -119 q 540 -135 524 -119 q 557 -176 557 -150 q 540 -216 557 -201 q 494 -231 524 -231 z "},"I":{"ha":332,"x_min":124,"x_max":208,"o":"m 124 0 l 124 1028 l 208 1028 l 208 0 l 124 0 z "},"Í":{"ha":332,"x_min":124,"x_max":342,"o":"m 124 0 l 124 1028 l 208 1028 l 208 0 l 124 0 m 128 1119 l 250 1313 l 342 1313 l 204 1119 l 128 1119 z "},"Ĭ":{"ha":332,"x_min":-44,"x_max":376,"o":"m 124 0 l 124 1028 l 208 1028 l 208 0 l 124 0 m 167 1126 q 17 1172 70 1126 q -44 1296 -37 1217 l 16 1296 q 59 1209 24 1238 q 167 1181 94 1181 q 275 1209 240 1181 q 317 1296 309 1238 l 376 1296 q 317 1171 369 1215 q 167 1126 265 1126 z "},"Î":{"ha":332,"x_min":-43,"x_max":375,"o":"m 124 0 l 124 1028 l 208 1028 l 208 0 l 124 0 m 375 1119 l 296 1119 l 166 1272 l 36 1119 l -43 1119 l 126 1313 l 207 1313 l 375 1119 z "},"Ȉ":{"ha":332,"x_min":-72,"x_max":310,"o":"m 124 0 l 124 1028 l 208 1028 l 208 0 l 124 0 m 22 1119 l -72 1313 l 2 1313 l 90 1119 l 22 1119 m 243 1119 l 149 1313 l 223 1313 l 310 1119 l 243 1119 z "},"Ï":{"ha":332,"x_min":-51,"x_max":383,"o":"m 124 0 l 124 1028 l 208 1028 l 208 0 l 124 0 m 8 1161 q -35 1176 -19 1161 q -51 1217 -51 1191 q -35 1258 -51 1242 q 8 1273 -19 1273 q 51 1258 35 1273 q 67 1217 67 1242 q 51 1176 67 1191 q 8 1161 35 1161 m 324 1161 q 282 1176 297 1161 q 266 1217 266 1191 q 282 1258 266 1242 q 324 1273 297 1273 q 367 1258 351 1273 q 383 1217 383 1242 q 367 1176 383 1191 q 324 1161 351 1161 z "},"Ḯ":{"ha":332,"x_min":-51,"x_max":383,"o":"m 124 0 l 124 1028 l 208 1028 l 208 0 l 124 0 m 126 1319 l 247 1480 l 344 1480 l 208 1319 l 126 1319 m 8 1161 q -35 1176 -19 1161 q -51 1217 -51 1191 q -35 1258 -51 1242 q 8 1273 -19 1273 q 51 1258 35 1273 q 67 1217 67 1242 q 51 1176 67 1191 q 8 1161 35 1161 m 324 1161 q 282 1176 297 1161 q 266 1217 266 1191 q 282 1258 266 1242 q 324 1273 297 1273 q 367 1258 351 1273 q 383 1217 383 1242 q 367 1176 383 1191 q 324 1161 351 1161 z "},"İ":{"ha":332,"x_min":104,"x_max":228,"o":"m 124 0 l 124 1028 l 208 1028 l 208 0 l 124 0 m 166 1161 q 121 1176 138 1161 q 104 1217 104 1191 q 121 1258 104 1242 q 166 1273 138 1273 q 212 1258 195 1273 q 228 1217 228 1242 q 212 1176 228 1191 q 166 1161 195 1161 z "},"Ị":{"ha":332,"x_min":104,"x_max":228,"o":"m 124 0 l 124 1028 l 208 1028 l 208 0 l 124 0 m 166 -231 q 121 -216 138 -231 q 104 -176 104 -201 q 121 -135 104 -150 q 166 -119 138 -119 q 212 -135 195 -119 q 228 -176 228 -150 q 212 -216 228 -201 q 166 -231 195 -231 z "},"Ì":{"ha":332,"x_min":-10,"x_max":208,"o":"m 124 0 l 124 1028 l 208 1028 l 208 0 l 124 0 m 128 1119 l -10 1313 l 82 1313 l 205 1119 l 128 1119 z "},"Ỉ":{"ha":332,"x_min":35,"x_max":310,"o":"m 124 0 l 124 1028 l 208 1028 l 208 0 l 124 0 m 137 1119 q 148 1153 138 1140 q 171 1175 158 1167 q 207 1192 185 1183 q 242 1211 231 1202 q 253 1233 253 1219 q 235 1259 253 1250 q 171 1268 216 1268 q 35 1244 101 1268 l 35 1292 q 99 1309 63 1303 q 174 1315 135 1315 q 276 1294 242 1315 q 310 1238 310 1274 q 294 1196 310 1210 q 247 1167 278 1181 q 210 1146 222 1156 q 195 1119 197 1136 l 137 1119 z "},"Ȋ":{"ha":332,"x_min":-44,"x_max":376,"o":"m 124 0 l 124 1028 l 208 1028 l 208 0 l 124 0 m -44 1135 q 16 1261 -37 1216 q 165 1306 68 1306 q 316 1260 263 1306 q 376 1135 369 1215 l 317 1135 q 273 1222 308 1194 q 165 1251 238 1251 q 58 1222 92 1251 q 16 1135 23 1194 l -44 1135 z "},"Ī":{"ha":332,"x_min":-35,"x_max":368,"o":"m 124 0 l 124 1028 l 208 1028 l 208 0 l 124 0 m -35 1186 l -35 1247 l 368 1247 l 368 1186 l -35 1186 z "},"Į":{"ha":332,"x_min":10,"x_max":284,"o":"m 169 -237 q 223 -231 196 -237 q 284 -210 249 -224 l 284 -258 q 165 -284 225 -284 q 50 -252 90 -284 q 10 -161 10 -220 q 36 -72 10 -112 q 124 6 63 -31 l 124 1028 l 208 1028 l 208 0 q 98 -76 129 -39 q 67 -156 67 -112 q 93 -216 67 -196 q 169 -237 119 -237 z "},"Ĩ":{"ha":332,"x_min":-53,"x_max":385,"o":"m 124 0 l 124 1028 l 208 1028 l 208 0 l 124 0 m 270 1167 q 216 1175 242 1167 q 156 1196 191 1182 q 104 1214 125 1208 q 61 1220 83 1220 q -1 1208 26 1220 q -53 1171 -28 1197 l -53 1234 q 62 1278 -10 1278 q 116 1271 90 1278 q 176 1250 142 1264 q 228 1231 206 1238 q 271 1225 249 1225 q 333 1237 306 1225 q 385 1274 360 1249 l 385 1211 q 270 1167 344 1167 z "},"J":{"ha":332,"x_min":-4,"x_max":208,"o":"m -4 -199 q 94 -13 64 -105 q 124 201 124 79 l 124 1028 l 208 1028 l 208 183 q 168 -38 203 58 q 53 -237 133 -135 l -4 -199 z "},"Ĵ":{"ha":332,"x_min":-43,"x_max":375,"o":"m -4 -199 q 94 -13 64 -105 q 124 201 124 79 l 124 1028 l 208 1028 l 208 183 q 168 -38 203 58 q 53 -237 133 -135 l -4 -199 m 375 1119 l 296 1119 l 166 1272 l 36 1119 l -43 1119 l 126 1313 l 207 1313 l 375 1119 z "},"K":{"ha":843,"x_min":124,"x_max":855,"o":"m 757 0 l 371 489 l 208 489 l 208 0 l 124 0 l 124 1028 l 208 1028 l 208 566 l 373 566 l 731 1028 l 826 1028 l 438 529 l 855 0 l 757 0 z "},"Ķ":{"ha":843,"x_min":124,"x_max":855,"o":"m 757 0 l 371 489 l 208 489 l 208 0 l 124 0 l 124 1028 l 208 1028 l 208 566 l 373 566 l 731 1028 l 826 1028 l 438 529 l 855 0 l 757 0 m 438 -119 q 484 -137 468 -119 q 500 -188 500 -154 q 491 -252 500 -217 q 464 -318 481 -287 l 412 -318 q 438 -222 435 -263 q 395 -207 410 -221 q 380 -170 380 -193 q 395 -133 380 -147 q 438 -119 410 -119 z "},"L":{"ha":731,"x_min":124,"x_max":722,"o":"m 124 0 l 124 1028 l 208 1028 l 208 76 l 722 76 l 722 0 l 124 0 z "},"Ǉ":{"ha":1063,"x_min":124,"x_max":938,"o":"m 124 0 l 124 1028 l 208 1028 l 208 76 l 722 76 l 722 0 l 124 0 m 726 -199 q 824 -13 794 -105 q 854 201 854 79 l 854 1028 l 938 1028 l 938 183 q 899 -38 933 58 q 783 -237 864 -135 l 726 -199 z "},"Ĺ":{"ha":731,"x_min":124,"x_max":722,"o":"m 124 0 l 124 1028 l 208 1028 l 208 76 l 722 76 l 722 0 l 124 0 m 128 1119 l 250 1313 l 342 1313 l 204 1119 l 128 1119 z "},"Ľ":{"ha":731,"x_min":124,"x_max":722,"o":"m 124 0 l 124 1028 l 208 1028 l 208 76 l 722 76 l 722 0 l 124 0 m 462 792 q 473 940 470 860 q 476 1122 476 1019 l 542 1122 q 513 792 542 921 l 462 792 z "},"Ļ":{"ha":731,"x_min":124,"x_max":722,"o":"m 124 0 l 124 1028 l 208 1028 l 208 76 l 722 76 l 722 0 l 124 0 m 422 -119 q 468 -137 452 -119 q 484 -188 484 -154 q 475 -252 484 -217 q 448 -318 465 -287 l 396 -318 q 422 -222 419 -263 q 379 -207 394 -221 q 364 -170 364 -193 q 379 -133 364 -147 q 422 -119 394 -119 z "},"Ŀ":{"ha":731,"x_min":124,"x_max":722,"o":"m 124 0 l 124 1028 l 208 1028 l 208 76 l 722 76 l 722 0 l 124 0 m 524 492 q 477 507 494 492 q 461 550 461 523 q 478 593 461 577 q 524 609 494 609 q 569 593 553 609 q 586 550 586 577 q 569 507 586 523 q 524 492 553 492 z "},"Ḷ":{"ha":731,"x_min":124,"x_max":722,"o":"m 124 0 l 124 1028 l 208 1028 l 208 76 l 722 76 l 722 0 l 124 0 m 424 -231 q 378 -216 395 -231 q 362 -176 362 -201 q 378 -135 362 -150 q 424 -119 395 -119 q 469 -135 453 -119 q 486 -176 486 -150 q 469 -216 486 -201 q 424 -231 453 -231 z "},"ǈ":{"ha":1035,"x_min":124,"x_max":945,"o":"m 124 0 l 124 1028 l 208 1028 l 208 76 l 722 76 l 722 0 l 124 0 m 713 -282 q 811 -97 781 -189 q 841 117 841 -5 l 841 752 l 925 752 l 925 122 q 889 -113 925 -11 q 770 -321 853 -215 l 713 -282 m 883 933 q 837 948 853 933 q 820 990 820 963 q 837 1034 820 1017 q 883 1050 853 1050 q 928 1034 912 1050 q 945 990 945 1017 q 929 948 945 963 q 883 933 913 933 z "},"Ḻ":{"ha":731,"x_min":124,"x_max":722,"o":"m 124 0 l 124 1028 l 208 1028 l 208 76 l 722 76 l 722 0 l 124 0 m 222 -206 l 222 -145 l 626 -145 l 626 -206 l 222 -206 z "},"Ł":{"ha":731,"x_min":-7,"x_max":722,"o":"m 208 76 l 722 76 l 722 0 l 124 0 l 124 470 l 28 395 l -7 447 l 124 549 l 124 1028 l 208 1028 l 208 615 l 398 765 l 433 714 l 208 536 l 208 76 z "},"M":{"ha":1201,"x_min":126,"x_max":1075,"o":"m 977 1028 l 1075 1028 l 1075 0 l 995 0 l 995 893 l 641 141 l 560 141 l 206 888 l 206 0 l 126 0 l 126 1028 l 225 1028 l 602 225 l 977 1028 z "},"Ṃ":{"ha":1201,"x_min":126,"x_max":1075,"o":"m 977 1028 l 1075 1028 l 1075 0 l 995 0 l 995 893 l 641 141 l 560 141 l 206 888 l 206 0 l 126 0 l 126 1028 l 225 1028 l 602 225 l 977 1028 m 603 -231 q 558 -216 575 -231 q 542 -176 542 -201 q 558 -135 542 -150 q 603 -119 575 -119 q 649 -135 633 -119 q 666 -176 666 -150 q 649 -216 666 -201 q 603 -231 633 -231 z "},"N":{"ha":1008,"x_min":124,"x_max":884,"o":"m 803 1028 l 884 1028 l 884 0 l 796 0 l 204 898 l 204 0 l 124 0 l 124 1028 l 212 1028 l 803 130 l 803 1028 z "},"Ǌ":{"ha":1340,"x_min":124,"x_max":1215,"o":"m 803 1028 l 884 1028 l 884 0 l 796 0 l 204 898 l 204 0 l 124 0 l 124 1028 l 212 1028 l 803 130 l 803 1028 m 1003 -199 q 1101 -13 1072 -105 q 1131 201 1131 79 l 1131 1028 l 1215 1028 l 1215 183 q 1176 -38 1210 58 q 1060 -237 1141 -135 l 1003 -199 z "},"Ń":{"ha":1008,"x_min":124,"x_max":884,"o":"m 803 1028 l 884 1028 l 884 0 l 796 0 l 204 898 l 204 0 l 124 0 l 124 1028 l 212 1028 l 803 130 l 803 1028 m 466 1119 l 588 1313 l 681 1313 l 542 1119 l 466 1119 z "},"Ň":{"ha":1008,"x_min":124,"x_max":884,"o":"m 803 1028 l 884 1028 l 884 0 l 796 0 l 204 898 l 204 0 l 124 0 l 124 1028 l 212 1028 l 803 130 l 803 1028 m 634 1313 l 713 1313 l 545 1119 l 464 1119 l 295 1313 l 374 1313 l 504 1160 l 634 1313 z "},"Ņ":{"ha":1008,"x_min":124,"x_max":884,"o":"m 803 1028 l 884 1028 l 884 0 l 796 0 l 204 898 l 204 0 l 124 0 l 124 1028 l 212 1028 l 803 130 l 803 1028 m 502 -119 q 549 -137 533 -119 q 565 -188 565 -154 q 555 -252 565 -217 q 528 -318 546 -287 l 476 -318 q 502 -222 499 -263 q 460 -207 475 -221 q 444 -170 444 -193 q 460 -133 444 -147 q 502 -119 475 -119 z "},"Ṅ":{"ha":1008,"x_min":124,"x_max":884,"o":"m 803 1028 l 884 1028 l 884 0 l 796 0 l 204 898 l 204 0 l 124 0 l 124 1028 l 212 1028 l 803 130 l 803 1028 m 504 1161 q 459 1176 476 1161 q 442 1217 442 1191 q 459 1258 442 1242 q 504 1273 476 1273 q 550 1258 533 1273 q 567 1217 567 1242 q 550 1176 567 1191 q 504 1161 533 1161 z "},"Ṇ":{"ha":1008,"x_min":124,"x_max":884,"o":"m 803 1028 l 884 1028 l 884 0 l 796 0 l 204 898 l 204 0 l 124 0 l 124 1028 l 212 1028 l 803 130 l 803 1028 m 504 -231 q 459 -216 476 -231 q 442 -176 442 -201 q 459 -135 442 -150 q 504 -119 476 -119 q 550 -135 533 -119 q 567 -176 567 -150 q 550 -216 567 -201 q 504 -231 533 -231 z "},"Ŋ":{"ha":1008,"x_min":124,"x_max":884,"o":"m 884 1028 l 884 126 q 848 -112 884 -10 q 729 -321 812 -215 l 672 -282 q 753 -145 724 -212 q 795 -1 783 -78 l 204 897 l 204 0 l 124 0 l 124 1028 l 212 1028 l 803 130 l 803 1028 l 884 1028 z "},"ǋ":{"ha":1313,"x_min":124,"x_max":1222,"o":"m 803 1028 l 884 1028 l 884 0 l 796 0 l 204 898 l 204 0 l 124 0 l 124 1028 l 212 1028 l 803 130 l 803 1028 m 990 -282 q 1088 -97 1058 -189 q 1118 117 1118 -5 l 1118 752 l 1202 752 l 1202 122 q 1166 -113 1202 -11 q 1047 -321 1130 -215 l 990 -282 m 1160 933 q 1114 948 1131 933 q 1097 990 1097 963 q 1114 1034 1097 1017 q 1160 1050 1131 1050 q 1206 1034 1189 1050 q 1222 990 1222 1017 q 1206 948 1222 963 q 1160 933 1190 933 z "},"Ṉ":{"ha":1008,"x_min":124,"x_max":884,"o":"m 803 1028 l 884 1028 l 884 0 l 796 0 l 204 898 l 204 0 l 124 0 l 124 1028 l 212 1028 l 803 130 l 803 1028 m 303 -206 l 303 -145 l 706 -145 l 706 -206 l 303 -206 z "},"Ñ":{"ha":1008,"x_min":124,"x_max":884,"o":"m 803 1028 l 884 1028 l 884 0 l 796 0 l 204 898 l 204 0 l 124 0 l 124 1028 l 212 1028 l 803 130 l 803 1028 m 608 1167 q 555 1175 580 1167 q 494 1196 529 1182 q 442 1214 463 1208 q 399 1220 421 1220 q 337 1208 364 1220 q 285 1171 310 1197 l 285 1234 q 400 1278 328 1278 q 454 1271 428 1278 q 515 1250 480 1264 q 566 1231 544 1238 q 609 1225 588 1225 q 672 1237 644 1225 q 724 1274 699 1249 l 724 1211 q 608 1167 682 1167 z "},"O":{"ha":978,"x_min":77,"x_max":901,"o":"m 489 -12 q 186 116 294 -12 q 77 514 77 244 q 186 912 77 784 q 489 1040 296 1040 q 792 912 683 1040 q 901 514 901 784 q 791 116 901 244 q 489 -12 682 -12 m 489 62 q 728 167 644 62 q 813 510 813 273 q 728 859 813 753 q 489 966 644 966 q 249 860 334 966 q 165 517 165 755 q 249 168 165 275 q 489 62 334 62 z "},"Ó":{"ha":978,"x_min":77,"x_max":901,"o":"m 489 -12 q 186 116 294 -12 q 77 514 77 244 q 186 912 77 784 q 489 1040 296 1040 q 792 912 683 1040 q 901 514 901 784 q 791 116 901 244 q 489 -12 682 -12 m 489 62 q 728 167 644 62 q 813 510 813 273 q 728 859 813 753 q 489 966 644 966 q 249 860 334 966 q 165 517 165 755 q 249 168 165 275 q 489 62 334 62 m 451 1119 l 573 1313 l 665 1313 l 527 1119 l 451 1119 z "},"Ŏ":{"ha":978,"x_min":77,"x_max":901,"o":"m 489 -12 q 186 116 294 -12 q 77 514 77 244 q 186 912 77 784 q 489 1040 296 1040 q 792 912 683 1040 q 901 514 901 784 q 791 116 901 244 q 489 -12 682 -12 m 489 62 q 728 167 644 62 q 813 510 813 273 q 728 859 813 753 q 489 966 644 966 q 249 860 334 966 q 165 517 165 755 q 249 168 165 275 q 489 62 334 62 m 490 1126 q 340 1172 393 1126 q 279 1296 286 1217 l 339 1296 q 382 1209 347 1238 q 490 1181 417 1181 q 598 1209 563 1181 q 640 1296 632 1238 l 699 1296 q 640 1171 692 1215 q 490 1126 588 1126 z "},"Ô":{"ha":978,"x_min":77,"x_max":901,"o":"m 489 -12 q 186 116 294 -12 q 77 514 77 244 q 186 912 77 784 q 489 1040 296 1040 q 792 912 683 1040 q 901 514 901 784 q 791 116 901 244 q 489 -12 682 -12 m 489 62 q 728 167 644 62 q 813 510 813 273 q 728 859 813 753 q 489 966 644 966 q 249 860 334 966 q 165 517 165 755 q 249 168 165 275 q 489 62 334 62 m 698 1119 l 619 1119 l 489 1272 l 359 1119 l 280 1119 l 449 1313 l 530 1313 l 698 1119 z "},"Ố":{"ha":978,"x_min":77,"x_max":901,"o":"m 489 -12 q 186 116 294 -12 q 77 514 77 244 q 186 912 77 784 q 489 1040 296 1040 q 792 912 683 1040 q 901 514 901 784 q 791 116 901 244 q 489 -12 682 -12 m 489 62 q 728 167 644 62 q 813 510 813 273 q 728 859 813 753 q 489 966 644 966 q 249 860 334 966 q 165 517 165 755 q 249 168 165 275 q 489 62 334 62 m 757 1433 l 832 1433 l 703 1248 l 643 1248 l 757 1433 m 449 1308 l 530 1308 l 698 1119 l 619 1119 l 489 1269 l 359 1119 l 280 1119 l 449 1308 z "},"Ộ":{"ha":978,"x_min":77,"x_max":901,"o":"m 489 -12 q 186 116 294 -12 q 77 514 77 244 q 186 912 77 784 q 489 1040 296 1040 q 792 912 683 1040 q 901 514 901 784 q 791 116 901 244 q 489 -12 682 -12 m 489 62 q 728 167 644 62 q 813 510 813 273 q 728 859 813 753 q 489 966 644 966 q 249 860 334 966 q 165 517 165 755 q 249 168 165 275 q 489 62 334 62 m 489 -231 q 444 -216 460 -231 q 427 -176 427 -201 q 444 -135 427 -150 q 489 -119 460 -119 q 535 -135 518 -119 q 551 -176 551 -150 q 535 -216 551 -201 q 489 -231 518 -231 m 698 1119 l 619 1119 l 489 1272 l 359 1119 l 280 1119 l 449 1313 l 530 1313 l 698 1119 z "},"Ồ":{"ha":978,"x_min":77,"x_max":901,"o":"m 489 -12 q 186 116 294 -12 q 77 514 77 244 q 186 912 77 784 q 489 1040 296 1040 q 792 912 683 1040 q 901 514 901 784 q 791 116 901 244 q 489 -12 682 -12 m 489 62 q 728 167 644 62 q 813 510 813 273 q 728 859 813 753 q 489 966 644 966 q 249 860 334 966 q 165 517 165 755 q 249 168 165 275 q 489 62 334 62 m 719 1248 l 659 1248 l 531 1433 l 606 1433 l 719 1248 m 449 1308 l 530 1308 l 698 1119 l 619 1119 l 489 1269 l 359 1119 l 280 1119 l 449 1308 z "},"Ổ":{"ha":978,"x_min":77,"x_max":901,"o":"m 489 -12 q 186 116 294 -12 q 77 514 77 244 q 186 912 77 784 q 489 1040 296 1040 q 792 912 683 1040 q 901 514 901 784 q 791 116 901 244 q 489 -12 682 -12 m 489 62 q 728 167 644 62 q 813 510 813 273 q 728 859 813 753 q 489 966 644 966 q 249 860 334 966 q 165 517 165 755 q 249 168 165 275 q 489 62 334 62 m 681 1440 q 783 1419 749 1440 q 817 1364 817 1399 q 800 1323 817 1337 q 753 1295 784 1308 q 715 1274 728 1283 q 701 1248 703 1264 l 643 1248 q 654 1281 644 1267 q 677 1302 664 1294 q 713 1319 690 1310 q 748 1338 736 1329 q 760 1360 760 1347 q 741 1386 760 1377 q 677 1394 722 1394 q 541 1371 608 1394 l 541 1416 q 605 1433 569 1427 q 681 1440 642 1440 m 449 1308 l 530 1308 l 698 1119 l 619 1119 l 489 1269 l 359 1119 l 280 1119 l 449 1308 z "},"Ỗ":{"ha":978,"x_min":77,"x_max":901,"o":"m 489 -12 q 186 116 294 -12 q 77 514 77 244 q 186 912 77 784 q 489 1040 296 1040 q 792 912 683 1040 q 901 514 901 784 q 791 116 901 244 q 489 -12 682 -12 m 489 62 q 728 167 644 62 q 813 510 813 273 q 728 859 813 753 q 489 966 644 966 q 249 860 334 966 q 165 517 165 755 q 249 168 165 275 q 489 62 334 62 m 586 1390 q 645 1402 619 1390 q 698 1439 672 1414 l 698 1382 q 585 1340 655 1340 q 535 1347 559 1340 q 478 1367 510 1353 q 430 1385 448 1379 q 392 1390 411 1390 q 333 1378 360 1390 q 280 1342 307 1367 l 280 1399 q 393 1441 323 1441 q 444 1434 419 1441 q 500 1413 469 1426 q 548 1396 529 1401 q 586 1390 567 1390 m 449 1308 l 530 1308 l 698 1119 l 619 1119 l 489 1269 l 359 1119 l 280 1119 l 449 1308 z "},"Ȍ":{"ha":978,"x_min":77,"x_max":901,"o":"m 489 -12 q 186 116 294 -12 q 77 514 77 244 q 186 912 77 784 q 489 1040 296 1040 q 792 912 683 1040 q 901 514 901 784 q 791 116 901 244 q 489 -12 682 -12 m 489 62 q 728 167 644 62 q 813 510 813 273 q 728 859 813 753 q 489 966 644 966 q 249 860 334 966 q 165 517 165 755 q 249 168 165 275 q 489 62 334 62 m 344 1119 l 251 1313 l 325 1313 l 413 1119 l 344 1119 m 566 1119 l 472 1313 l 546 1313 l 633 1119 l 566 1119 z "},"Ö":{"ha":978,"x_min":77,"x_max":901,"o":"m 489 -12 q 186 116 294 -12 q 77 514 77 244 q 186 912 77 784 q 489 1040 296 1040 q 792 912 683 1040 q 901 514 901 784 q 791 116 901 244 q 489 -12 682 -12 m 489 62 q 728 167 644 62 q 813 510 813 273 q 728 859 813 753 q 489 966 644 966 q 249 860 334 966 q 165 517 165 755 q 249 168 165 275 q 489 62 334 62 m 331 1161 q 288 1176 303 1161 q 272 1217 272 1191 q 288 1258 272 1242 q 331 1273 303 1273 q 374 1258 358 1273 q 390 1217 390 1242 q 374 1176 390 1191 q 331 1161 358 1161 m 647 1161 q 605 1176 620 1161 q 589 1217 589 1191 q 605 1258 589 1242 q 647 1273 620 1273 q 690 1258 674 1273 q 706 1217 706 1242 q 690 1176 706 1191 q 647 1161 674 1161 z "},"Ȫ":{"ha":978,"x_min":77,"x_max":901,"o":"m 489 -12 q 186 116 294 -12 q 77 514 77 244 q 186 912 77 784 q 489 1040 296 1040 q 792 912 683 1040 q 901 514 901 784 q 791 116 901 244 q 489 -12 682 -12 m 489 62 q 728 167 644 62 q 813 510 813 273 q 728 859 813 753 q 489 966 644 966 q 249 860 334 966 q 165 517 165 755 q 249 168 165 275 q 489 62 334 62 m 331 1161 q 288 1176 303 1161 q 272 1217 272 1191 q 288 1258 272 1242 q 331 1273 303 1273 q 374 1258 358 1273 q 390 1217 390 1242 q 374 1176 390 1191 q 331 1161 358 1161 m 647 1161 q 605 1176 620 1161 q 589 1217 589 1191 q 605 1258 589 1242 q 647 1273 620 1273 q 690 1258 674 1273 q 706 1217 706 1242 q 690 1176 706 1191 q 647 1161 674 1161 m 288 1362 l 288 1422 l 691 1422 l 691 1362 l 288 1362 z "},"Ȱ":{"ha":978,"x_min":77,"x_max":901,"o":"m 489 -12 q 186 116 294 -12 q 77 514 77 244 q 186 912 77 784 q 489 1040 296 1040 q 792 912 683 1040 q 901 514 901 784 q 791 116 901 244 q 489 -12 682 -12 m 489 62 q 728 167 644 62 q 813 510 813 273 q 728 859 813 753 q 489 966 644 966 q 249 860 334 966 q 165 517 165 755 q 249 168 165 275 q 489 62 334 62 m 489 1161 q 444 1176 460 1161 q 427 1217 427 1191 q 444 1258 427 1242 q 489 1273 460 1273 q 535 1258 518 1273 q 551 1217 551 1242 q 535 1176 551 1191 q 489 1161 518 1161 m 288 1362 l 288 1422 l 691 1422 l 691 1362 l 288 1362 z "},"Ọ":{"ha":978,"x_min":77,"x_max":901,"o":"m 489 -12 q 186 116 294 -12 q 77 514 77 244 q 186 912 77 784 q 489 1040 296 1040 q 792 912 683 1040 q 901 514 901 784 q 791 116 901 244 q 489 -12 682 -12 m 489 62 q 728 167 644 62 q 813 510 813 273 q 728 859 813 753 q 489 966 644 966 q 249 860 334 966 q 165 517 165 755 q 249 168 165 275 q 489 62 334 62 m 489 -231 q 444 -216 460 -231 q 427 -176 427 -201 q 444 -135 427 -150 q 489 -119 460 -119 q 535 -135 518 -119 q 551 -176 551 -150 q 535 -216 551 -201 q 489 -231 518 -231 z "},"Ò":{"ha":978,"x_min":77,"x_max":901,"o":"m 489 -12 q 186 116 294 -12 q 77 514 77 244 q 186 912 77 784 q 489 1040 296 1040 q 792 912 683 1040 q 901 514 901 784 q 791 116 901 244 q 489 -12 682 -12 m 489 62 q 728 167 644 62 q 813 510 813 273 q 728 859 813 753 q 489 966 644 966 q 249 860 334 966 q 165 517 165 755 q 249 168 165 275 q 489 62 334 62 m 451 1119 l 313 1313 l 405 1313 l 528 1119 l 451 1119 z "},"Ỏ":{"ha":978,"x_min":77,"x_max":901,"o":"m 489 -12 q 186 116 294 -12 q 77 514 77 244 q 186 912 77 784 q 489 1040 296 1040 q 792 912 683 1040 q 901 514 901 784 q 791 116 901 244 q 489 -12 682 -12 m 489 62 q 728 167 644 62 q 813 510 813 273 q 728 859 813 753 q 489 966 644 966 q 249 860 334 966 q 165 517 165 755 q 249 168 165 275 q 489 62 334 62 m 460 1119 q 470 1153 460 1140 q 494 1175 481 1167 q 530 1192 508 1183 q 565 1211 553 1202 q 576 1233 576 1219 q 558 1259 576 1250 q 494 1268 539 1268 q 358 1244 424 1268 l 358 1292 q 422 1309 385 1303 q 497 1315 458 1315 q 599 1294 565 1315 q 633 1238 633 1274 q 617 1196 633 1210 q 570 1167 601 1181 q 533 1146 545 1156 q 518 1119 520 1136 l 460 1119 z "},"Ơ":{"ha":978,"x_min":77,"x_max":903,"o":"m 737 967 q 858 794 816 907 q 901 514 901 682 q 792 115 901 242 q 489 -12 683 -12 q 186 116 295 -12 q 77 514 77 244 q 186 912 77 784 q 489 1040 296 1040 q 556 1037 524 1040 q 594 1033 588 1033 q 699 1024 659 1024 q 799 1052 764 1024 q 835 1135 835 1079 q 831 1183 835 1161 q 819 1233 827 1206 l 886 1233 q 899 1185 895 1208 q 903 1132 903 1163 q 859 1016 903 1059 q 737 967 815 973 m 489 62 q 728 167 644 62 q 813 510 813 273 q 728 859 813 753 q 489 966 644 966 q 249 860 334 966 q 165 517 165 755 q 249 168 165 275 q 489 62 334 62 z "},"Ớ":{"ha":978,"x_min":77,"x_max":903,"o":"m 737 967 q 858 794 816 907 q 901 514 901 682 q 792 115 901 242 q 489 -12 683 -12 q 186 116 295 -12 q 77 514 77 244 q 186 912 77 784 q 489 1040 296 1040 q 556 1037 524 1040 q 594 1033 588 1033 q 699 1024 659 1024 q 799 1052 764 1024 q 835 1135 835 1079 q 831 1183 835 1161 q 819 1233 827 1206 l 886 1233 q 899 1185 895 1208 q 903 1132 903 1163 q 859 1016 903 1059 q 737 967 815 973 m 489 62 q 728 167 644 62 q 813 510 813 273 q 728 859 813 753 q 489 966 644 966 q 249 860 334 966 q 165 517 165 755 q 249 168 165 275 q 489 62 334 62 m 451 1119 l 573 1313 l 665 1313 l 527 1119 l 451 1119 z "},"Ợ":{"ha":978,"x_min":77,"x_max":903,"o":"m 737 967 q 858 794 816 907 q 901 514 901 682 q 792 115 901 242 q 489 -12 683 -12 q 186 116 295 -12 q 77 514 77 244 q 186 912 77 784 q 489 1040 296 1040 q 556 1037 524 1040 q 594 1033 588 1033 q 699 1024 659 1024 q 799 1052 764 1024 q 835 1135 835 1079 q 831 1183 835 1161 q 819 1233 827 1206 l 886 1233 q 899 1185 895 1208 q 903 1132 903 1163 q 859 1016 903 1059 q 737 967 815 973 m 489 62 q 728 167 644 62 q 813 510 813 273 q 728 859 813 753 q 489 966 644 966 q 249 860 334 966 q 165 517 165 755 q 249 168 165 275 q 489 62 334 62 m 489 -231 q 444 -216 460 -231 q 427 -176 427 -201 q 444 -135 427 -150 q 489 -119 460 -119 q 535 -135 518 -119 q 551 -176 551 -150 q 535 -216 551 -201 q 489 -231 518 -231 z "},"Ờ":{"ha":978,"x_min":77,"x_max":903,"o":"m 737 967 q 858 794 816 907 q 901 514 901 682 q 792 115 901 242 q 489 -12 683 -12 q 186 116 295 -12 q 77 514 77 244 q 186 912 77 784 q 489 1040 296 1040 q 556 1037 524 1040 q 594 1033 588 1033 q 699 1024 659 1024 q 799 1052 764 1024 q 835 1135 835 1079 q 831 1183 835 1161 q 819 1233 827 1206 l 886 1233 q 899 1185 895 1208 q 903 1132 903 1163 q 859 1016 903 1059 q 737 967 815 973 m 489 62 q 728 167 644 62 q 813 510 813 273 q 728 859 813 753 q 489 966 644 966 q 249 860 334 966 q 165 517 165 755 q 249 168 165 275 q 489 62 334 62 m 451 1119 l 313 1313 l 405 1313 l 528 1119 l 451 1119 z "},"Ở":{"ha":978,"x_min":77,"x_max":903,"o":"m 737 967 q 858 794 816 907 q 901 514 901 682 q 792 115 901 242 q 489 -12 683 -12 q 186 116 295 -12 q 77 514 77 244 q 186 912 77 784 q 489 1040 296 1040 q 556 1037 524 1040 q 594 1033 588 1033 q 699 1024 659 1024 q 799 1052 764 1024 q 835 1135 835 1079 q 831 1183 835 1161 q 819 1233 827 1206 l 886 1233 q 899 1185 895 1208 q 903 1132 903 1163 q 859 1016 903 1059 q 737 967 815 973 m 489 62 q 728 167 644 62 q 813 510 813 273 q 728 859 813 753 q 489 966 644 966 q 249 860 334 966 q 165 517 165 755 q 249 168 165 275 q 489 62 334 62 m 460 1119 q 470 1153 460 1140 q 494 1175 481 1167 q 530 1192 508 1183 q 565 1211 553 1202 q 576 1233 576 1219 q 558 1259 576 1250 q 494 1268 539 1268 q 358 1244 424 1268 l 358 1292 q 422 1309 385 1303 q 497 1315 458 1315 q 599 1294 565 1315 q 633 1238 633 1274 q 617 1196 633 1210 q 570 1167 601 1181 q 533 1146 545 1156 q 518 1119 520 1136 l 460 1119 z "},"Ỡ":{"ha":978,"x_min":77,"x_max":903,"o":"m 385 1220 q 323 1208 350 1220 q 272 1171 297 1197 l 272 1234 q 386 1278 313 1278 q 439 1271 415 1278 q 499 1250 464 1264 q 551 1231 531 1238 q 593 1225 572 1225 q 655 1237 628 1225 q 706 1274 681 1249 l 706 1211 q 592 1167 665 1167 q 539 1175 564 1167 q 478 1196 513 1182 q 427 1214 449 1208 q 385 1220 406 1220 m 737 967 q 858 794 816 907 q 901 514 901 682 q 792 115 901 242 q 489 -12 683 -12 q 186 116 295 -12 q 77 514 77 244 q 186 912 77 784 q 489 1040 296 1040 q 556 1037 524 1040 q 594 1033 588 1033 q 699 1024 659 1024 q 799 1052 764 1024 q 835 1135 835 1079 q 831 1183 835 1161 q 819 1233 827 1206 l 886 1233 q 899 1185 895 1208 q 903 1132 903 1163 q 859 1016 903 1059 q 737 967 815 973 m 489 62 q 728 167 644 62 q 813 510 813 273 q 728 859 813 753 q 489 966 644 966 q 249 860 334 966 q 165 517 165 755 q 249 168 165 275 q 489 62 334 62 z "},"Ő":{"ha":978,"x_min":77,"x_max":901,"o":"m 489 -12 q 186 116 294 -12 q 77 514 77 244 q 186 912 77 784 q 489 1040 296 1040 q 792 912 683 1040 q 901 514 901 784 q 791 116 901 244 q 489 -12 682 -12 m 489 62 q 728 167 644 62 q 813 510 813 273 q 728 859 813 753 q 489 966 644 966 q 249 860 334 966 q 165 517 165 755 q 249 168 165 275 q 489 62 334 62 m 344 1119 l 432 1313 l 506 1313 l 413 1119 l 344 1119 m 566 1119 l 653 1313 l 727 1313 l 633 1119 l 566 1119 z "},"Ȏ":{"ha":978,"x_min":77,"x_max":901,"o":"m 489 -12 q 186 116 294 -12 q 77 514 77 244 q 186 912 77 784 q 489 1040 296 1040 q 792 912 683 1040 q 901 514 901 784 q 791 116 901 244 q 489 -12 682 -12 m 489 62 q 728 167 644 62 q 813 510 813 273 q 728 859 813 753 q 489 966 644 966 q 249 860 334 966 q 165 517 165 755 q 249 168 165 275 q 489 62 334 62 m 279 1135 q 339 1261 286 1216 q 488 1306 391 1306 q 639 1260 585 1306 q 699 1135 692 1215 l 640 1135 q 596 1222 631 1194 q 488 1251 561 1251 q 381 1222 415 1251 q 339 1135 346 1194 l 279 1135 z "},"Ō":{"ha":978,"x_min":77,"x_max":901,"o":"m 489 -12 q 186 116 294 -12 q 77 514 77 244 q 186 912 77 784 q 489 1040 296 1040 q 792 912 683 1040 q 901 514 901 784 q 791 116 901 244 q 489 -12 682 -12 m 489 62 q 728 167 644 62 q 813 510 813 273 q 728 859 813 753 q 489 966 644 966 q 249 860 334 966 q 165 517 165 755 q 249 168 165 275 q 489 62 334 62 m 288 1186 l 288 1247 l 691 1247 l 691 1186 l 288 1186 z "},"Ṓ":{"ha":978,"x_min":77,"x_max":901,"o":"m 489 -12 q 186 116 294 -12 q 77 514 77 244 q 186 912 77 784 q 489 1040 296 1040 q 792 912 683 1040 q 901 514 901 784 q 791 116 901 244 q 489 -12 682 -12 m 489 62 q 728 167 644 62 q 813 510 813 273 q 728 859 813 753 q 489 966 644 966 q 249 860 334 966 q 165 517 165 755 q 249 168 165 275 q 489 62 334 62 m 449 1319 l 570 1480 l 667 1480 l 531 1319 l 449 1319 m 288 1186 l 288 1247 l 691 1247 l 691 1186 l 288 1186 z "},"Ṑ":{"ha":978,"x_min":77,"x_max":901,"o":"m 489 -12 q 186 116 294 -12 q 77 514 77 244 q 186 912 77 784 q 489 1040 296 1040 q 792 912 683 1040 q 901 514 901 784 q 791 116 901 244 q 489 -12 682 -12 m 489 62 q 728 167 644 62 q 813 510 813 273 q 728 859 813 753 q 489 966 644 966 q 249 860 334 966 q 165 517 165 755 q 249 168 165 275 q 489 62 334 62 m 449 1319 l 310 1480 l 407 1480 l 530 1319 l 449 1319 m 288 1186 l 288 1247 l 691 1247 l 691 1186 l 288 1186 z "},"Ǫ":{"ha":978,"x_min":77,"x_max":901,"o":"m 641 10 q 506 -66 546 -24 q 466 -156 466 -108 q 492 -216 466 -196 q 569 -237 519 -237 q 622 -231 595 -237 q 683 -210 649 -224 l 683 -258 q 565 -284 624 -284 q 449 -252 490 -284 q 408 -161 408 -219 q 430 -80 408 -117 q 501 -12 452 -43 l 490 -12 q 186 116 295 -12 q 77 514 77 244 q 186 912 77 784 q 489 1040 296 1040 q 792 913 683 1040 q 901 514 901 785 q 832 176 901 298 q 641 10 763 54 m 489 62 q 728 167 644 62 q 813 510 813 273 q 728 859 813 753 q 489 966 644 966 q 249 860 334 966 q 165 517 165 755 q 249 168 165 275 q 489 62 334 62 z "},"Ø":{"ha":978,"x_min":77,"x_max":901,"o":"m 805 895 q 901 514 901 763 q 791 116 901 244 q 489 -12 682 -12 q 212 88 314 -12 l 136 -16 l 89 19 l 173 133 q 77 514 77 267 q 186 912 77 784 q 489 1040 296 1040 q 765 941 663 1040 l 841 1044 l 888 1009 l 805 895 m 165 517 q 226 205 165 315 l 717 874 q 489 966 638 966 q 249 860 334 966 q 165 517 165 755 m 489 62 q 728 167 644 62 q 813 510 813 273 q 752 823 813 710 l 261 154 q 489 62 341 62 z "},"Ǿ":{"ha":978,"x_min":77,"x_max":901,"o":"m 805 895 q 901 514 901 763 q 791 116 901 244 q 489 -12 682 -12 q 212 88 314 -12 l 136 -16 l 89 19 l 173 133 q 77 514 77 267 q 186 912 77 784 q 489 1040 296 1040 q 765 941 663 1040 l 841 1044 l 888 1009 l 805 895 m 165 517 q 226 205 165 315 l 717 874 q 489 966 638 966 q 249 860 334 966 q 165 517 165 755 m 489 62 q 728 167 644 62 q 813 510 813 273 q 752 823 813 710 l 261 154 q 489 62 341 62 m 448 1119 l 570 1313 l 663 1313 l 524 1119 l 448 1119 z "},"Õ":{"ha":978,"x_min":77,"x_max":901,"o":"m 489 -12 q 186 116 294 -12 q 77 514 77 244 q 186 912 77 784 q 489 1040 296 1040 q 792 912 683 1040 q 901 514 901 784 q 791 116 901 244 q 489 -12 682 -12 m 489 62 q 728 167 644 62 q 813 510 813 273 q 728 859 813 753 q 489 966 644 966 q 249 860 334 966 q 165 517 165 755 q 249 168 165 275 q 489 62 334 62 m 593 1167 q 539 1175 565 1167 q 479 1196 514 1182 q 427 1214 448 1208 q 384 1220 406 1220 q 322 1208 349 1220 q 270 1171 295 1197 l 270 1234 q 385 1278 313 1278 q 439 1271 413 1278 q 499 1250 465 1264 q 551 1231 529 1238 q 594 1225 572 1225 q 656 1237 629 1225 q 708 1274 683 1249 l 708 1211 q 593 1167 667 1167 z "},"Ṍ":{"ha":978,"x_min":77,"x_max":901,"o":"m 489 -12 q 186 116 294 -12 q 77 514 77 244 q 186 912 77 784 q 489 1040 296 1040 q 792 912 683 1040 q 901 514 901 784 q 791 116 901 244 q 489 -12 682 -12 m 489 62 q 728 167 644 62 q 813 510 813 273 q 728 859 813 753 q 489 966 644 966 q 249 860 334 966 q 165 517 165 755 q 249 168 165 275 q 489 62 334 62 m 449 1319 l 570 1480 l 667 1480 l 531 1319 l 449 1319 m 593 1167 q 539 1175 565 1167 q 479 1196 514 1182 q 427 1214 448 1208 q 384 1220 406 1220 q 322 1208 349 1220 q 270 1171 295 1197 l 270 1234 q 385 1278 313 1278 q 439 1271 413 1278 q 499 1250 465 1264 q 551 1231 529 1238 q 594 1225 572 1225 q 656 1237 629 1225 q 708 1274 683 1249 l 708 1211 q 593 1167 667 1167 z "},"Ṏ":{"ha":978,"x_min":77,"x_max":901,"o":"m 489 -12 q 186 116 294 -12 q 77 514 77 244 q 186 912 77 784 q 489 1040 296 1040 q 792 912 683 1040 q 901 514 901 784 q 791 116 901 244 q 489 -12 682 -12 m 489 62 q 728 167 644 62 q 813 510 813 273 q 728 859 813 753 q 489 966 644 966 q 249 860 334 966 q 165 517 165 755 q 249 168 165 275 q 489 62 334 62 m 593 1167 q 539 1175 565 1167 q 479 1196 514 1182 q 427 1214 448 1208 q 384 1220 406 1220 q 322 1208 349 1220 q 270 1171 295 1197 l 270 1234 q 385 1278 313 1278 q 439 1271 413 1278 q 499 1250 465 1264 q 551 1231 529 1238 q 594 1225 572 1225 q 656 1237 629 1225 q 708 1274 683 1249 l 708 1211 q 593 1167 667 1167 m 331 1337 q 288 1352 303 1337 q 272 1392 272 1367 q 288 1433 272 1418 q 331 1449 303 1449 q 374 1433 358 1449 q 390 1392 390 1418 q 374 1352 390 1367 q 331 1337 358 1337 m 647 1337 q 605 1352 620 1337 q 589 1392 589 1367 q 605 1433 589 1418 q 647 1449 620 1449 q 690 1433 674 1449 q 706 1392 706 1418 q 690 1352 706 1367 q 647 1337 674 1337 z "},"Ȭ":{"ha":978,"x_min":77,"x_max":901,"o":"m 489 -12 q 186 116 294 -12 q 77 514 77 244 q 186 912 77 784 q 489 1040 296 1040 q 792 912 683 1040 q 901 514 901 784 q 791 116 901 244 q 489 -12 682 -12 m 489 62 q 728 167 644 62 q 813 510 813 273 q 728 859 813 753 q 489 966 644 966 q 249 860 334 966 q 165 517 165 755 q 249 168 165 275 q 489 62 334 62 m 593 1167 q 539 1175 565 1167 q 479 1196 514 1182 q 427 1214 448 1208 q 384 1220 406 1220 q 322 1208 349 1220 q 270 1171 295 1197 l 270 1234 q 385 1278 313 1278 q 439 1271 413 1278 q 499 1250 465 1264 q 551 1231 529 1238 q 594 1225 572 1225 q 656 1237 629 1225 q 708 1274 683 1249 l 708 1211 q 593 1167 667 1167 m 288 1362 l 288 1422 l 691 1422 l 691 1362 l 288 1362 z "},"Œ":{"ha":1376,"x_min":77,"x_max":1326,"o":"m 1326 74 l 1326 0 l 794 0 q 701 -3 758 0 q 583 -7 606 -7 q 205 120 332 -7 q 77 514 77 247 q 203 908 77 778 q 573 1038 328 1038 q 691 1032 616 1038 q 786 1028 759 1028 l 1319 1028 l 1319 953 l 810 953 l 810 565 l 1252 565 l 1252 491 l 810 491 l 810 74 l 1326 74 m 727 953 q 567 963 650 963 q 264 854 364 963 q 165 514 165 746 q 266 174 165 281 q 573 67 367 67 q 727 74 676 67 l 727 953 z "},"P":{"ha":841,"x_min":124,"x_max":776,"o":"m 124 1013 q 376 1038 253 1038 q 676 954 575 1038 q 776 693 776 869 q 673 434 776 522 q 352 347 569 347 q 208 353 280 347 l 208 0 l 124 0 l 124 1013 m 354 419 q 611 485 531 419 q 692 691 692 552 q 615 900 692 834 q 380 967 538 967 q 208 953 296 967 l 208 428 q 354 419 269 419 z "},"Þ":{"ha":848,"x_min":124,"x_max":776,"o":"m 124 1028 l 208 1028 l 208 860 q 376 874 291 874 q 676 789 576 874 q 776 528 776 705 q 673 269 776 357 q 353 182 569 182 q 208 189 280 182 l 208 0 l 124 0 l 124 1028 m 354 254 q 611 321 531 254 q 692 526 692 388 q 615 736 692 669 q 380 802 538 802 q 208 788 293 802 l 208 263 q 354 254 269 254 z "},"Q":{"ha":978,"x_min":77,"x_max":901,"o":"m 901 514 q 803 131 901 264 q 517 -6 706 -1 q 883 -72 667 -53 l 869 -144 q 391 -35 562 -110 q 149 169 220 39 q 77 513 77 299 q 186 912 77 783 q 489 1040 296 1040 q 792 913 683 1040 q 901 514 901 785 m 165 517 q 249 168 165 274 q 489 62 333 62 q 728 167 644 62 q 813 510 813 273 q 728 859 813 753 q 489 966 644 966 q 249 860 334 966 q 165 517 165 755 z "},"R":{"ha":895,"x_min":124,"x_max":854,"o":"m 758 0 l 424 438 q 358 436 392 436 q 207 442 294 436 l 207 0 l 124 0 l 124 1013 q 252 1032 190 1025 q 386 1038 314 1038 q 681 966 585 1038 q 776 740 776 893 q 710 547 777 620 q 510 449 643 474 l 854 0 l 758 0 m 207 514 q 284 508 253 510 q 358 507 315 507 q 615 564 535 507 q 695 739 695 620 q 664 871 695 821 q 565 944 632 921 q 389 967 498 967 q 295 964 336 967 q 207 951 254 960 l 207 514 z "},"Ŕ":{"ha":895,"x_min":124,"x_max":854,"o":"m 758 0 l 424 438 q 358 436 392 436 q 207 442 294 436 l 207 0 l 124 0 l 124 1013 q 252 1032 190 1025 q 386 1038 314 1038 q 681 966 585 1038 q 776 740 776 893 q 710 547 777 620 q 510 449 643 474 l 854 0 l 758 0 m 207 514 q 284 508 253 510 q 358 507 315 507 q 615 564 535 507 q 695 739 695 620 q 664 871 695 821 q 565 944 632 921 q 389 967 498 967 q 295 964 336 967 q 207 951 254 960 l 207 514 m 391 1119 l 513 1313 l 606 1313 l 467 1119 l 391 1119 z "},"Ř":{"ha":895,"x_min":124,"x_max":854,"o":"m 758 0 l 424 438 q 358 436 392 436 q 207 442 294 436 l 207 0 l 124 0 l 124 1013 q 252 1032 190 1025 q 386 1038 314 1038 q 681 966 585 1038 q 776 740 776 893 q 710 547 777 620 q 510 449 643 474 l 854 0 l 758 0 m 207 514 q 284 508 253 510 q 358 507 315 507 q 615 564 535 507 q 695 739 695 620 q 664 871 695 821 q 565 944 632 921 q 389 967 498 967 q 295 964 336 967 q 207 951 254 960 l 207 514 m 559 1313 l 638 1313 l 470 1119 l 389 1119 l 220 1313 l 299 1313 l 429 1160 l 559 1313 z "},"Ŗ":{"ha":895,"x_min":124,"x_max":854,"o":"m 758 0 l 424 438 q 358 436 392 436 q 207 442 294 436 l 207 0 l 124 0 l 124 1013 q 252 1032 190 1025 q 386 1038 314 1038 q 681 966 585 1038 q 776 740 776 893 q 710 547 777 620 q 510 449 643 474 l 854 0 l 758 0 m 207 514 q 284 508 253 510 q 358 507 315 507 q 615 564 535 507 q 695 739 695 620 q 664 871 695 821 q 565 944 632 921 q 389 967 498 967 q 295 964 336 967 q 207 951 254 960 l 207 514 m 465 -119 q 512 -137 496 -119 q 528 -188 528 -154 q 518 -252 528 -217 q 492 -318 509 -287 l 440 -318 q 465 -222 463 -263 q 423 -207 438 -221 q 408 -170 408 -193 q 423 -133 408 -147 q 465 -119 438 -119 z "},"Ȑ":{"ha":895,"x_min":124,"x_max":854,"o":"m 758 0 l 424 438 q 358 436 392 436 q 207 442 294 436 l 207 0 l 124 0 l 124 1013 q 252 1032 190 1025 q 386 1038 314 1038 q 681 966 585 1038 q 776 740 776 893 q 710 547 777 620 q 510 449 643 474 l 854 0 l 758 0 m 207 514 q 284 508 253 510 q 358 507 315 507 q 615 564 535 507 q 695 739 695 620 q 664 871 695 821 q 565 944 632 921 q 389 967 498 967 q 295 964 336 967 q 207 951 254 960 l 207 514 m 285 1119 l 191 1313 l 265 1313 l 353 1119 l 285 1119 m 506 1119 l 413 1313 l 486 1313 l 574 1119 l 506 1119 z "},"Ṛ":{"ha":895,"x_min":124,"x_max":854,"o":"m 758 0 l 424 438 q 358 436 392 436 q 207 442 294 436 l 207 0 l 124 0 l 124 1013 q 252 1032 190 1025 q 386 1038 314 1038 q 681 966 585 1038 q 776 740 776 893 q 710 547 777 620 q 510 449 643 474 l 854 0 l 758 0 m 207 514 q 284 508 253 510 q 358 507 315 507 q 615 564 535 507 q 695 739 695 620 q 664 871 695 821 q 565 944 632 921 q 389 967 498 967 q 295 964 336 967 q 207 951 254 960 l 207 514 m 467 -231 q 422 -216 439 -231 q 406 -176 406 -201 q 422 -135 406 -150 q 467 -119 439 -119 q 513 -135 497 -119 q 530 -176 530 -150 q 513 -216 530 -201 q 467 -231 497 -231 z "},"Ȓ":{"ha":895,"x_min":124,"x_max":854,"o":"m 758 0 l 424 438 q 358 436 392 436 q 207 442 294 436 l 207 0 l 124 0 l 124 1013 q 252 1032 190 1025 q 386 1038 314 1038 q 681 966 585 1038 q 776 740 776 893 q 710 547 777 620 q 510 449 643 474 l 854 0 l 758 0 m 207 514 q 284 508 253 510 q 358 507 315 507 q 615 564 535 507 q 695 739 695 620 q 664 871 695 821 q 565 944 632 921 q 389 967 498 967 q 295 964 336 967 q 207 951 254 960 l 207 514 m 219 1135 q 279 1261 226 1216 q 428 1306 331 1306 q 579 1260 526 1306 q 640 1135 632 1215 l 580 1135 q 536 1222 572 1194 q 428 1251 501 1251 q 321 1222 356 1251 q 279 1135 286 1194 l 219 1135 z "},"Ṟ":{"ha":895,"x_min":124,"x_max":854,"o":"m 758 0 l 424 438 q 358 436 392 436 q 207 442 294 436 l 207 0 l 124 0 l 124 1013 q 252 1032 190 1025 q 386 1038 314 1038 q 681 966 585 1038 q 776 740 776 893 q 710 547 777 620 q 510 449 643 474 l 854 0 l 758 0 m 207 514 q 284 508 253 510 q 358 507 315 507 q 615 564 535 507 q 695 739 695 620 q 664 871 695 821 q 565 944 632 921 q 389 967 498 967 q 295 964 336 967 q 207 951 254 960 l 207 514 m 266 -206 l 266 -145 l 669 -145 l 669 -206 l 266 -206 z "},"S":{"ha":722,"x_min":55,"x_max":667,"o":"m 314 -12 q 190 -2 254 -12 q 69 28 126 8 l 69 103 q 315 62 192 62 q 515 114 449 62 q 581 267 581 166 q 559 363 581 325 q 491 427 538 401 q 363 474 444 453 l 313 487 q 118 588 182 521 q 55 763 55 654 q 94 911 55 849 q 213 1007 134 974 q 406 1040 291 1040 q 520 1032 463 1040 q 624 1009 578 1024 l 624 934 q 406 966 522 966 q 207 915 273 966 q 141 768 141 865 q 161 674 141 712 q 225 610 181 636 q 344 564 269 584 l 394 551 q 601 449 535 515 q 667 272 667 382 q 626 117 667 181 q 506 20 585 53 q 314 -12 426 -12 z "},"Ś":{"ha":722,"x_min":55,"x_max":667,"o":"m 314 -12 q 190 -2 254 -12 q 69 28 126 8 l 69 103 q 315 62 192 62 q 515 114 449 62 q 581 267 581 166 q 559 363 581 325 q 491 427 538 401 q 363 474 444 453 l 313 487 q 118 588 182 521 q 55 763 55 654 q 94 911 55 849 q 213 1007 134 974 q 406 1040 291 1040 q 520 1032 463 1040 q 624 1009 578 1024 l 624 934 q 406 966 522 966 q 207 915 273 966 q 141 768 141 865 q 161 674 141 712 q 225 610 181 636 q 344 564 269 584 l 394 551 q 601 449 535 515 q 667 272 667 382 q 626 117 667 181 q 506 20 585 53 q 314 -12 426 -12 m 328 1119 l 451 1313 l 543 1313 l 405 1119 l 328 1119 z "},"Ṥ":{"ha":722,"x_min":55,"x_max":667,"o":"m 314 -12 q 190 -2 254 -12 q 69 28 126 8 l 69 103 q 315 62 192 62 q 515 114 449 62 q 581 267 581 166 q 559 363 581 325 q 491 427 538 401 q 363 474 444 453 l 313 487 q 118 588 182 521 q 55 763 55 654 q 94 911 55 849 q 213 1007 134 974 q 406 1040 291 1040 q 520 1032 463 1040 q 624 1009 578 1024 l 624 934 q 406 966 522 966 q 207 915 273 966 q 141 768 141 865 q 161 674 141 712 q 225 610 181 636 q 344 564 269 584 l 394 551 q 601 449 535 515 q 667 272 667 382 q 626 117 667 181 q 506 20 585 53 q 314 -12 426 -12 m 313 1285 q 271 1299 286 1285 q 256 1336 256 1313 q 271 1375 256 1360 q 313 1389 287 1389 q 354 1375 338 1389 q 369 1336 369 1360 q 354 1299 369 1313 q 313 1285 339 1285 m 328 1119 l 451 1313 l 543 1313 l 405 1119 l 328 1119 z "},"Š":{"ha":722,"x_min":55,"x_max":667,"o":"m 314 -12 q 190 -2 254 -12 q 69 28 126 8 l 69 103 q 315 62 192 62 q 515 114 449 62 q 581 267 581 166 q 559 363 581 325 q 491 427 538 401 q 363 474 444 453 l 313 487 q 118 588 182 521 q 55 763 55 654 q 94 911 55 849 q 213 1007 134 974 q 406 1040 291 1040 q 520 1032 463 1040 q 624 1009 578 1024 l 624 934 q 406 966 522 966 q 207 915 273 966 q 141 768 141 865 q 161 674 141 712 q 225 610 181 636 q 344 564 269 584 l 394 551 q 601 449 535 515 q 667 272 667 382 q 626 117 667 181 q 506 20 585 53 q 314 -12 426 -12 m 497 1313 l 576 1313 l 408 1119 l 326 1119 l 158 1313 l 237 1313 l 367 1160 l 497 1313 z "},"Ṧ":{"ha":722,"x_min":55,"x_max":667,"o":"m 314 -12 q 190 -2 254 -12 q 69 28 126 8 l 69 103 q 315 62 192 62 q 515 114 449 62 q 581 267 581 166 q 559 363 581 325 q 491 427 538 401 q 363 474 444 453 l 313 487 q 118 588 182 521 q 55 763 55 654 q 94 911 55 849 q 213 1007 134 974 q 406 1040 291 1040 q 520 1032 463 1040 q 624 1009 578 1024 l 624 934 q 406 966 522 966 q 207 915 273 966 q 141 768 141 865 q 161 674 141 712 q 225 610 181 636 q 344 564 269 584 l 394 551 q 601 449 535 515 q 667 272 667 382 q 626 117 667 181 q 506 20 585 53 q 314 -12 426 -12 m 367 1317 q 325 1331 340 1317 q 310 1368 310 1344 q 325 1407 310 1392 q 367 1421 341 1421 q 409 1407 393 1421 q 424 1368 424 1392 q 409 1331 424 1344 q 367 1317 393 1317 m 497 1313 l 576 1313 l 408 1119 l 326 1119 l 158 1313 l 237 1313 l 367 1160 l 497 1313 z "},"Ş":{"ha":722,"x_min":55,"x_max":667,"o":"m 667 272 q 596 80 667 152 q 390 -8 524 8 l 390 -74 q 481 -105 448 -78 q 513 -178 513 -131 q 475 -257 513 -229 q 369 -284 437 -284 q 300 -277 335 -284 q 237 -258 266 -270 l 237 -209 q 367 -237 305 -237 q 458 -177 458 -237 q 365 -115 458 -115 l 338 -115 l 338 -12 q 314 -12 330 -12 q 190 -2 254 -12 q 69 28 126 8 l 69 103 q 315 62 192 62 q 515 114 449 62 q 581 267 581 166 q 559 363 581 325 q 491 427 538 401 q 363 474 444 453 l 313 487 q 118 588 182 521 q 55 763 55 654 q 94 911 55 849 q 213 1007 134 974 q 406 1040 291 1040 q 520 1032 463 1040 q 624 1009 578 1024 l 624 934 q 406 966 522 966 q 207 915 273 966 q 141 768 141 865 q 161 674 141 712 q 225 610 181 636 q 344 564 269 584 l 394 551 q 601 449 535 515 q 667 272 667 382 z "},"Ŝ":{"ha":722,"x_min":55,"x_max":667,"o":"m 314 -12 q 190 -2 254 -12 q 69 28 126 8 l 69 103 q 315 62 192 62 q 515 114 449 62 q 581 267 581 166 q 559 363 581 325 q 491 427 538 401 q 363 474 444 453 l 313 487 q 118 588 182 521 q 55 763 55 654 q 94 911 55 849 q 213 1007 134 974 q 406 1040 291 1040 q 520 1032 463 1040 q 624 1009 578 1024 l 624 934 q 406 966 522 966 q 207 915 273 966 q 141 768 141 865 q 161 674 141 712 q 225 610 181 636 q 344 564 269 584 l 394 551 q 601 449 535 515 q 667 272 667 382 q 626 117 667 181 q 506 20 585 53 q 314 -12 426 -12 m 576 1119 l 497 1119 l 367 1272 l 237 1119 l 158 1119 l 326 1313 l 408 1313 l 576 1119 z "},"Ș":{"ha":722,"x_min":55,"x_max":667,"o":"m 314 -12 q 190 -2 254 -12 q 69 28 126 8 l 69 103 q 315 62 192 62 q 515 114 449 62 q 581 267 581 166 q 559 363 581 325 q 491 427 538 401 q 363 474 444 453 l 313 487 q 118 588 182 521 q 55 763 55 654 q 94 911 55 849 q 213 1007 134 974 q 406 1040 291 1040 q 520 1032 463 1040 q 624 1009 578 1024 l 624 934 q 406 966 522 966 q 207 915 273 966 q 141 768 141 865 q 161 674 141 712 q 225 610 181 636 q 344 564 269 584 l 394 551 q 601 449 535 515 q 667 272 667 382 q 626 117 667 181 q 506 20 585 53 q 314 -12 426 -12 m 365 -119 q 411 -137 395 -119 q 427 -188 427 -154 q 418 -252 427 -217 q 391 -318 408 -287 l 339 -318 q 365 -222 362 -263 q 322 -207 338 -221 q 307 -170 307 -193 q 322 -133 307 -147 q 365 -119 338 -119 z "},"Ṡ":{"ha":722,"x_min":55,"x_max":667,"o":"m 314 -12 q 190 -2 254 -12 q 69 28 126 8 l 69 103 q 315 62 192 62 q 515 114 449 62 q 581 267 581 166 q 559 363 581 325 q 491 427 538 401 q 363 474 444 453 l 313 487 q 118 588 182 521 q 55 763 55 654 q 94 911 55 849 q 213 1007 134 974 q 406 1040 291 1040 q 520 1032 463 1040 q 624 1009 578 1024 l 624 934 q 406 966 522 966 q 207 915 273 966 q 141 768 141 865 q 161 674 141 712 q 225 610 181 636 q 344 564 269 584 l 394 551 q 601 449 535 515 q 667 272 667 382 q 626 117 667 181 q 506 20 585 53 q 314 -12 426 -12 m 367 1161 q 322 1176 338 1161 q 305 1217 305 1191 q 322 1258 305 1242 q 367 1273 338 1273 q 413 1258 396 1273 q 429 1217 429 1242 q 413 1176 429 1191 q 367 1161 396 1161 z "},"Ṣ":{"ha":722,"x_min":55,"x_max":667,"o":"m 314 -12 q 190 -2 254 -12 q 69 28 126 8 l 69 103 q 315 62 192 62 q 515 114 449 62 q 581 267 581 166 q 559 363 581 325 q 491 427 538 401 q 363 474 444 453 l 313 487 q 118 588 182 521 q 55 763 55 654 q 94 911 55 849 q 213 1007 134 974 q 406 1040 291 1040 q 520 1032 463 1040 q 624 1009 578 1024 l 624 934 q 406 966 522 966 q 207 915 273 966 q 141 768 141 865 q 161 674 141 712 q 225 610 181 636 q 344 564 269 584 l 394 551 q 601 449 535 515 q 667 272 667 382 q 626 117 667 181 q 506 20 585 53 q 314 -12 426 -12 m 367 -231 q 322 -216 338 -231 q 305 -176 305 -201 q 322 -135 305 -150 q 367 -119 338 -119 q 413 -135 396 -119 q 429 -176 429 -150 q 413 -216 429 -201 q 367 -231 396 -231 z "},"Ṩ":{"ha":722,"x_min":55,"x_max":667,"o":"m 314 -12 q 190 -2 254 -12 q 69 28 126 8 l 69 103 q 315 62 192 62 q 515 114 449 62 q 581 267 581 166 q 559 363 581 325 q 491 427 538 401 q 363 474 444 453 l 313 487 q 118 588 182 521 q 55 763 55 654 q 94 911 55 849 q 213 1007 134 974 q 406 1040 291 1040 q 520 1032 463 1040 q 624 1009 578 1024 l 624 934 q 406 966 522 966 q 207 915 273 966 q 141 768 141 865 q 161 674 141 712 q 225 610 181 636 q 344 564 269 584 l 394 551 q 601 449 535 515 q 667 272 667 382 q 626 117 667 181 q 506 20 585 53 q 314 -12 426 -12 m 367 -231 q 322 -216 338 -231 q 305 -176 305 -201 q 322 -135 305 -150 q 367 -119 338 -119 q 413 -135 396 -119 q 429 -176 429 -150 q 413 -216 429 -201 q 367 -231 396 -231 m 367 1161 q 322 1176 338 1161 q 305 1217 305 1191 q 322 1258 305 1242 q 367 1273 338 1273 q 413 1258 396 1273 q 429 1217 429 1242 q 413 1176 429 1191 q 367 1161 396 1161 z "},"ẞ":{"ha":1155,"x_min":124,"x_max":1101,"o":"m 830 551 q 1035 449 970 515 q 1101 272 1101 382 q 1060 117 1101 181 q 940 20 1019 53 q 748 -12 860 -12 q 626 -2 690 -12 q 506 27 563 8 l 506 103 q 631 72 568 82 q 750 62 693 62 q 949 114 883 62 q 1015 267 1015 166 q 993 363 1015 325 q 924 427 971 401 q 799 474 878 453 l 749 487 q 556 587 619 520 q 492 763 492 654 q 572 958 492 888 q 486 967 533 967 q 275 894 342 967 q 208 667 208 822 l 208 0 l 124 0 l 124 656 q 212 947 124 853 q 486 1040 300 1040 q 660 1011 588 1040 q 842 1040 735 1040 q 955 1032 898 1040 q 1058 1010 1011 1024 l 1058 934 q 842 966 956 966 q 644 915 710 966 q 578 768 578 865 q 598 674 578 712 q 662 610 618 636 q 780 564 706 583 l 830 551 z "},"Ə":{"ha":976,"x_min":70,"x_max":899,"o":"m 395 1040 q 770 914 642 1040 q 899 511 899 788 q 790 115 899 242 q 488 -12 681 -12 q 180 114 290 -12 q 70 507 70 240 l 70 550 l 813 550 q 758 794 807 703 q 617 926 708 886 q 390 967 526 967 q 256 958 326 967 q 124 933 187 950 l 124 1008 q 395 1040 250 1040 m 488 60 q 724 158 640 60 q 813 480 808 256 l 158 480 q 201 235 161 328 q 313 101 241 142 q 488 60 384 60 z "},"T":{"ha":797,"x_min":10,"x_max":788,"o":"m 356 0 l 356 952 l 10 952 l 10 1028 l 788 1028 l 788 952 l 441 952 l 441 0 l 356 0 z "},"Ŧ":{"ha":797,"x_min":10,"x_max":788,"o":"m 788 952 l 441 952 l 441 576 l 670 576 l 670 514 l 441 514 l 441 0 l 356 0 l 356 514 l 127 514 l 127 576 l 356 576 l 356 952 l 10 952 l 10 1028 l 788 1028 l 788 952 z "},"Ť":{"ha":797,"x_min":10,"x_max":788,"o":"m 356 0 l 356 952 l 10 952 l 10 1028 l 788 1028 l 788 952 l 441 952 l 441 0 l 356 0 m 528 1313 l 608 1313 l 440 1119 l 358 1119 l 190 1313 l 269 1313 l 399 1160 l 528 1313 z "},"Ţ":{"ha":797,"x_min":10,"x_max":788,"o":"m 422 0 l 422 -74 q 513 -105 480 -78 q 545 -178 545 -131 q 507 -257 545 -229 q 401 -284 469 -284 q 332 -277 367 -284 q 269 -258 298 -270 l 269 -209 q 399 -237 337 -237 q 490 -177 490 -237 q 397 -115 490 -115 l 369 -115 l 369 0 l 356 0 l 356 952 l 10 952 l 10 1028 l 788 1028 l 788 952 l 441 952 l 441 0 l 422 0 z "},"Ț":{"ha":797,"x_min":10,"x_max":788,"o":"m 356 0 l 356 952 l 10 952 l 10 1028 l 788 1028 l 788 952 l 441 952 l 441 0 l 356 0 m 397 -119 q 443 -137 427 -119 q 459 -188 459 -154 q 450 -252 459 -217 q 423 -318 440 -287 l 371 -318 q 397 -222 394 -263 q 354 -207 369 -221 q 339 -170 339 -193 q 354 -133 339 -147 q 397 -119 369 -119 z "},"Ṭ":{"ha":797,"x_min":10,"x_max":788,"o":"m 356 0 l 356 952 l 10 952 l 10 1028 l 788 1028 l 788 952 l 441 952 l 441 0 l 356 0 m 399 -231 q 353 -216 370 -231 q 337 -176 337 -201 q 353 -135 337 -150 q 399 -119 370 -119 q 444 -135 428 -119 q 461 -176 461 -150 q 444 -216 461 -201 q 399 -231 428 -231 z "},"Ṯ":{"ha":797,"x_min":10,"x_max":788,"o":"m 356 0 l 356 952 l 10 952 l 10 1028 l 788 1028 l 788 952 l 441 952 l 441 0 l 356 0 m 197 -206 l 197 -145 l 601 -145 l 601 -206 l 197 -206 z "},"U":{"ha":970,"x_min":118,"x_max":852,"o":"m 486 -12 q 278 29 359 -12 q 157 157 197 71 q 118 380 118 244 l 118 1028 l 203 1028 l 203 369 q 271 136 203 210 q 486 62 339 62 q 701 136 633 62 q 769 369 769 210 l 769 1028 l 852 1028 l 852 380 q 813 157 852 244 q 693 29 774 71 q 486 -12 613 -12 z "},"Ú":{"ha":970,"x_min":118,"x_max":852,"o":"m 486 -12 q 278 29 359 -12 q 157 157 197 71 q 118 380 118 244 l 118 1028 l 203 1028 l 203 369 q 271 136 203 210 q 486 62 339 62 q 701 136 633 62 q 769 369 769 210 l 769 1028 l 852 1028 l 852 380 q 813 157 852 244 q 693 29 774 71 q 486 -12 613 -12 m 448 1119 l 570 1313 l 663 1313 l 524 1119 l 448 1119 z "},"Ŭ":{"ha":970,"x_min":118,"x_max":852,"o":"m 486 -12 q 278 29 359 -12 q 157 157 197 71 q 118 380 118 244 l 118 1028 l 203 1028 l 203 369 q 271 136 203 210 q 486 62 339 62 q 701 136 633 62 q 769 369 769 210 l 769 1028 l 852 1028 l 852 380 q 813 157 852 244 q 693 29 774 71 q 486 -12 613 -12 m 488 1126 q 337 1172 390 1126 q 276 1296 283 1217 l 336 1296 q 380 1209 344 1238 q 488 1181 415 1181 q 595 1209 560 1181 q 637 1296 629 1238 l 697 1296 q 637 1171 689 1215 q 488 1126 585 1126 z "},"Û":{"ha":970,"x_min":118,"x_max":852,"o":"m 486 -12 q 278 29 359 -12 q 157 157 197 71 q 118 380 118 244 l 118 1028 l 203 1028 l 203 369 q 271 136 203 210 q 486 62 339 62 q 701 136 633 62 q 769 369 769 210 l 769 1028 l 852 1028 l 852 380 q 813 157 852 244 q 693 29 774 71 q 486 -12 613 -12 m 695 1119 l 616 1119 l 486 1272 l 356 1119 l 277 1119 l 446 1313 l 527 1313 l 695 1119 z "},"Ȕ":{"ha":970,"x_min":118,"x_max":852,"o":"m 486 -12 q 278 29 359 -12 q 157 157 197 71 q 118 380 118 244 l 118 1028 l 203 1028 l 203 369 q 271 136 203 210 q 486 62 339 62 q 701 136 633 62 q 769 369 769 210 l 769 1028 l 852 1028 l 852 380 q 813 157 852 244 q 693 29 774 71 q 486 -12 613 -12 m 342 1119 l 248 1313 l 322 1313 l 410 1119 l 342 1119 m 563 1119 l 469 1313 l 543 1313 l 631 1119 l 563 1119 z "},"Ü":{"ha":970,"x_min":118,"x_max":852,"o":"m 486 -12 q 278 29 359 -12 q 157 157 197 71 q 118 380 118 244 l 118 1028 l 203 1028 l 203 369 q 271 136 203 210 q 486 62 339 62 q 701 136 633 62 q 769 369 769 210 l 769 1028 l 852 1028 l 852 380 q 813 157 852 244 q 693 29 774 71 q 486 -12 613 -12 m 328 1161 q 285 1176 301 1161 q 269 1217 269 1191 q 285 1258 269 1242 q 328 1273 301 1273 q 371 1258 355 1273 q 387 1217 387 1242 q 371 1176 387 1191 q 328 1161 355 1161 m 644 1161 q 602 1176 617 1161 q 586 1217 586 1191 q 602 1258 586 1242 q 644 1273 617 1273 q 688 1258 672 1273 q 703 1217 703 1242 q 688 1176 703 1191 q 644 1161 672 1161 z "},"Ụ":{"ha":970,"x_min":118,"x_max":852,"o":"m 486 -12 q 278 29 359 -12 q 157 157 197 71 q 118 380 118 244 l 118 1028 l 203 1028 l 203 369 q 271 136 203 210 q 486 62 339 62 q 701 136 633 62 q 769 369 769 210 l 769 1028 l 852 1028 l 852 380 q 813 157 852 244 q 693 29 774 71 q 486 -12 613 -12 m 486 -231 q 441 -216 458 -231 q 424 -176 424 -201 q 441 -135 424 -150 q 486 -119 458 -119 q 532 -135 515 -119 q 549 -176 549 -150 q 532 -216 549 -201 q 486 -231 515 -231 z "},"Ù":{"ha":970,"x_min":118,"x_max":852,"o":"m 486 -12 q 278 29 359 -12 q 157 157 197 71 q 118 380 118 244 l 118 1028 l 203 1028 l 203 369 q 271 136 203 210 q 486 62 339 62 q 701 136 633 62 q 769 369 769 210 l 769 1028 l 852 1028 l 852 380 q 813 157 852 244 q 693 29 774 71 q 486 -12 613 -12 m 448 1119 l 310 1313 l 402 1313 l 525 1119 l 448 1119 z "},"Ủ":{"ha":970,"x_min":118,"x_max":852,"o":"m 486 -12 q 278 29 359 -12 q 157 157 197 71 q 118 380 118 244 l 118 1028 l 203 1028 l 203 369 q 271 136 203 210 q 486 62 339 62 q 701 136 633 62 q 769 369 769 210 l 769 1028 l 852 1028 l 852 380 q 813 157 852 244 q 693 29 774 71 q 486 -12 613 -12 m 457 1119 q 468 1153 458 1140 q 491 1175 478 1167 q 527 1192 505 1183 q 562 1211 551 1202 q 574 1233 574 1219 q 555 1259 574 1250 q 491 1268 536 1268 q 355 1244 422 1268 l 355 1292 q 419 1309 383 1303 q 494 1315 456 1315 q 597 1294 563 1315 q 631 1238 631 1274 q 614 1196 631 1210 q 567 1167 598 1181 q 530 1146 542 1156 q 515 1119 517 1136 l 457 1119 z "},"Ư":{"ha":971,"x_min":118,"x_max":1007,"o":"m 486 -12 q 278 29 359 -12 q 157 157 197 71 q 118 380 118 244 l 118 1028 l 203 1028 l 203 369 q 271 136 203 210 q 486 62 339 62 q 701 136 633 62 q 769 369 769 210 l 769 1028 l 803 1028 q 940 1135 940 1028 q 935 1184 940 1161 q 923 1233 931 1206 l 990 1233 q 1003 1185 999 1208 q 1007 1132 1007 1163 q 966 1021 1007 1062 q 852 974 925 981 l 852 380 q 813 157 852 244 q 693 29 774 71 q 486 -12 613 -12 z "},"Ứ":{"ha":971,"x_min":118,"x_max":1007,"o":"m 486 -12 q 278 29 359 -12 q 157 157 197 71 q 118 380 118 244 l 118 1028 l 203 1028 l 203 369 q 271 136 203 210 q 486 62 339 62 q 701 136 633 62 q 769 369 769 210 l 769 1028 l 803 1028 q 940 1135 940 1028 q 935 1184 940 1161 q 923 1233 931 1206 l 990 1233 q 1003 1185 999 1208 q 1007 1132 1007 1163 q 966 1021 1007 1062 q 852 974 925 981 l 852 380 q 813 157 852 244 q 693 29 774 71 q 486 -12 613 -12 m 448 1119 l 570 1313 l 663 1313 l 524 1119 l 448 1119 z "},"Ự":{"ha":971,"x_min":118,"x_max":1007,"o":"m 486 -12 q 278 29 359 -12 q 157 157 197 71 q 118 380 118 244 l 118 1028 l 203 1028 l 203 369 q 271 136 203 210 q 486 62 339 62 q 701 136 633 62 q 769 369 769 210 l 769 1028 l 803 1028 q 940 1135 940 1028 q 935 1184 940 1161 q 923 1233 931 1206 l 990 1233 q 1003 1185 999 1208 q 1007 1132 1007 1163 q 966 1021 1007 1062 q 852 974 925 981 l 852 380 q 813 157 852 244 q 693 29 774 71 q 486 -12 613 -12 m 486 -231 q 441 -216 458 -231 q 424 -176 424 -201 q 441 -135 424 -150 q 486 -119 458 -119 q 532 -135 515 -119 q 549 -176 549 -150 q 532 -216 549 -201 q 486 -231 515 -231 z "},"Ừ":{"ha":971,"x_min":118,"x_max":1007,"o":"m 486 -12 q 278 29 359 -12 q 157 157 197 71 q 118 380 118 244 l 118 1028 l 203 1028 l 203 369 q 271 136 203 210 q 486 62 339 62 q 701 136 633 62 q 769 369 769 210 l 769 1028 l 803 1028 q 940 1135 940 1028 q 935 1184 940 1161 q 923 1233 931 1206 l 990 1233 q 1003 1185 999 1208 q 1007 1132 1007 1163 q 966 1021 1007 1062 q 852 974 925 981 l 852 380 q 813 157 852 244 q 693 29 774 71 q 486 -12 613 -12 m 448 1119 l 310 1313 l 402 1313 l 525 1119 l 448 1119 z "},"Ử":{"ha":971,"x_min":118,"x_max":1007,"o":"m 486 -12 q 278 29 359 -12 q 157 157 197 71 q 118 380 118 244 l 118 1028 l 203 1028 l 203 369 q 271 136 203 210 q 486 62 339 62 q 701 136 633 62 q 769 369 769 210 l 769 1028 l 803 1028 q 940 1135 940 1028 q 935 1184 940 1161 q 923 1233 931 1206 l 990 1233 q 1003 1185 999 1208 q 1007 1132 1007 1163 q 966 1021 1007 1062 q 852 974 925 981 l 852 380 q 813 157 852 244 q 693 29 774 71 q 486 -12 613 -12 m 457 1119 q 468 1153 458 1140 q 491 1175 478 1167 q 527 1192 505 1183 q 562 1211 551 1202 q 574 1233 574 1219 q 555 1259 574 1250 q 491 1268 536 1268 q 355 1244 422 1268 l 355 1292 q 419 1309 383 1303 q 494 1315 456 1315 q 597 1294 563 1315 q 631 1238 631 1274 q 614 1196 631 1210 q 567 1167 598 1181 q 530 1146 542 1156 q 515 1119 517 1136 l 457 1119 z "},"Ữ":{"ha":971,"x_min":118,"x_max":1007,"o":"m 486 -12 q 278 29 359 -12 q 157 157 197 71 q 118 380 118 244 l 118 1028 l 203 1028 l 203 369 q 271 136 203 210 q 486 62 339 62 q 701 136 633 62 q 769 369 769 210 l 769 1028 l 803 1028 q 940 1135 940 1028 q 935 1184 940 1161 q 923 1233 931 1206 l 990 1233 q 1003 1185 999 1208 q 1007 1132 1007 1163 q 966 1021 1007 1062 q 852 974 925 981 l 852 380 q 813 157 852 244 q 693 29 774 71 q 486 -12 613 -12 m 590 1167 q 536 1175 562 1167 q 476 1196 511 1182 q 424 1214 445 1208 q 381 1220 403 1220 q 319 1208 346 1220 q 267 1171 292 1197 l 267 1234 q 382 1278 310 1278 q 436 1271 410 1278 q 497 1250 462 1264 q 548 1231 526 1238 q 591 1225 569 1225 q 653 1237 626 1225 q 706 1274 681 1249 l 706 1211 q 590 1167 664 1167 z "},"Ű":{"ha":970,"x_min":118,"x_max":852,"o":"m 486 -12 q 278 29 359 -12 q 157 157 197 71 q 118 380 118 244 l 118 1028 l 203 1028 l 203 369 q 271 136 203 210 q 486 62 339 62 q 701 136 633 62 q 769 369 769 210 l 769 1028 l 852 1028 l 852 380 q 813 157 852 244 q 693 29 774 71 q 486 -12 613 -12 m 342 1119 l 429 1313 l 503 1313 l 410 1119 l 342 1119 m 563 1119 l 651 1313 l 724 1313 l 631 1119 l 563 1119 z "},"Ȗ":{"ha":970,"x_min":118,"x_max":852,"o":"m 486 -12 q 278 29 359 -12 q 157 157 197 71 q 118 380 118 244 l 118 1028 l 203 1028 l 203 369 q 271 136 203 210 q 486 62 339 62 q 701 136 633 62 q 769 369 769 210 l 769 1028 l 852 1028 l 852 380 q 813 157 852 244 q 693 29 774 71 q 486 -12 613 -12 m 276 1135 q 336 1261 283 1216 q 485 1306 388 1306 q 636 1260 583 1306 q 697 1135 689 1215 l 637 1135 q 593 1222 628 1194 q 485 1251 558 1251 q 378 1222 413 1251 q 336 1135 343 1194 l 276 1135 z "},"Ū":{"ha":970,"x_min":118,"x_max":852,"o":"m 486 -12 q 278 29 359 -12 q 157 157 197 71 q 118 380 118 244 l 118 1028 l 203 1028 l 203 369 q 271 136 203 210 q 486 62 339 62 q 701 136 633 62 q 769 369 769 210 l 769 1028 l 852 1028 l 852 380 q 813 157 852 244 q 693 29 774 71 q 486 -12 613 -12 m 285 1186 l 285 1247 l 688 1247 l 688 1186 l 285 1186 z "},"Ṻ":{"ha":970,"x_min":118,"x_max":852,"o":"m 486 -12 q 278 29 359 -12 q 157 157 197 71 q 118 380 118 244 l 118 1028 l 203 1028 l 203 369 q 271 136 203 210 q 486 62 339 62 q 701 136 633 62 q 769 369 769 210 l 769 1028 l 852 1028 l 852 380 q 813 157 852 244 q 693 29 774 71 q 486 -12 613 -12 m 285 1186 l 285 1247 l 688 1247 l 688 1186 l 285 1186 m 328 1337 q 285 1352 301 1337 q 269 1392 269 1367 q 285 1433 269 1418 q 328 1449 301 1449 q 371 1433 355 1449 q 387 1392 387 1418 q 371 1352 387 1367 q 328 1337 355 1337 m 644 1337 q 602 1352 617 1337 q 586 1392 586 1367 q 602 1433 586 1418 q 644 1449 617 1449 q 688 1433 672 1449 q 703 1392 703 1418 q 688 1352 703 1367 q 644 1337 672 1337 z "},"Ų":{"ha":970,"x_min":118,"x_max":852,"o":"m 852 1028 l 852 380 q 800 132 852 224 q 632 5 747 39 q 451 -153 451 -49 q 554 -235 451 -235 q 607 -229 581 -235 q 669 -209 634 -223 l 669 -256 q 550 -283 610 -283 q 434 -250 474 -283 q 394 -158 394 -218 q 487 -12 394 -68 l 486 -12 q 278 29 359 -12 q 157 157 197 71 q 118 380 118 244 l 118 1028 l 203 1028 l 203 369 q 271 136 203 210 q 486 62 339 62 q 701 136 633 62 q 769 369 769 210 l 769 1028 l 852 1028 z "},"Ů":{"ha":970,"x_min":118,"x_max":852,"o":"m 486 -12 q 278 29 359 -12 q 157 157 197 71 q 118 380 118 244 l 118 1028 l 203 1028 l 203 369 q 271 136 203 210 q 486 62 339 62 q 701 136 633 62 q 769 369 769 210 l 769 1028 l 852 1028 l 852 380 q 813 157 852 244 q 693 29 774 71 q 486 -12 613 -12 m 486 1115 q 418 1132 449 1115 q 371 1178 388 1149 q 354 1246 354 1208 q 371 1314 354 1283 q 418 1361 388 1344 q 486 1378 449 1378 q 554 1361 524 1378 q 601 1314 584 1344 q 619 1246 619 1283 q 601 1178 619 1208 q 554 1132 584 1149 q 486 1115 524 1115 m 486 1160 q 548 1183 524 1160 q 572 1246 572 1206 q 548 1309 572 1286 q 486 1333 524 1333 q 425 1309 449 1333 q 401 1246 401 1286 q 425 1183 401 1206 q 486 1160 449 1160 z "},"Ũ":{"ha":970,"x_min":118,"x_max":852,"o":"m 486 -12 q 278 29 359 -12 q 157 157 197 71 q 118 380 118 244 l 118 1028 l 203 1028 l 203 369 q 271 136 203 210 q 486 62 339 62 q 701 136 633 62 q 769 369 769 210 l 769 1028 l 852 1028 l 852 380 q 813 157 852 244 q 693 29 774 71 q 486 -12 613 -12 m 590 1167 q 536 1175 562 1167 q 476 1196 511 1182 q 424 1214 445 1208 q 381 1220 403 1220 q 319 1208 346 1220 q 267 1171 292 1197 l 267 1234 q 382 1278 310 1278 q 436 1271 410 1278 q 497 1250 462 1264 q 548 1231 526 1238 q 591 1225 569 1225 q 653 1237 626 1225 q 706 1274 681 1249 l 706 1211 q 590 1167 664 1167 z "},"Ṹ":{"ha":970,"x_min":118,"x_max":852,"o":"m 486 -12 q 278 29 359 -12 q 157 157 197 71 q 118 380 118 244 l 118 1028 l 203 1028 l 203 369 q 271 136 203 210 q 486 62 339 62 q 701 136 633 62 q 769 369 769 210 l 769 1028 l 852 1028 l 852 380 q 813 157 852 244 q 693 29 774 71 q 486 -12 613 -12 m 446 1319 l 567 1480 l 665 1480 l 528 1319 l 446 1319 m 590 1167 q 536 1175 562 1167 q 476 1196 511 1182 q 424 1214 445 1208 q 381 1220 403 1220 q 319 1208 346 1220 q 267 1171 292 1197 l 267 1234 q 382 1278 310 1278 q 436 1271 410 1278 q 497 1250 462 1264 q 548 1231 526 1238 q 591 1225 569 1225 q 653 1237 626 1225 q 706 1274 681 1249 l 706 1211 q 590 1167 664 1167 z "},"V":{"ha":892,"x_min":10,"x_max":882,"o":"m 797 1028 l 882 1028 l 506 0 l 385 0 l 10 1028 l 99 1028 l 449 67 l 797 1028 z "},"W":{"ha":1440,"x_min":42,"x_max":1397,"o":"m 1315 1028 l 1397 1028 l 1103 0 l 991 0 l 721 934 l 449 0 l 337 0 l 42 1028 l 130 1028 l 397 79 l 670 1028 l 773 1028 l 1046 76 l 1315 1028 z "},"Ẃ":{"ha":1440,"x_min":42,"x_max":1397,"o":"m 1315 1028 l 1397 1028 l 1103 0 l 991 0 l 721 934 l 449 0 l 337 0 l 42 1028 l 130 1028 l 397 79 l 670 1028 l 773 1028 l 1046 76 l 1315 1028 m 683 1119 l 805 1313 l 897 1313 l 759 1119 l 683 1119 z "},"Ŵ":{"ha":1440,"x_min":42,"x_max":1397,"o":"m 1315 1028 l 1397 1028 l 1103 0 l 991 0 l 721 934 l 449 0 l 337 0 l 42 1028 l 130 1028 l 397 79 l 670 1028 l 773 1028 l 1046 76 l 1315 1028 m 930 1119 l 851 1119 l 721 1272 l 591 1119 l 512 1119 l 681 1313 l 762 1313 l 930 1119 z "},"Ẅ":{"ha":1440,"x_min":42,"x_max":1397,"o":"m 1315 1028 l 1397 1028 l 1103 0 l 991 0 l 721 934 l 449 0 l 337 0 l 42 1028 l 130 1028 l 397 79 l 670 1028 l 773 1028 l 1046 76 l 1315 1028 m 563 1161 q 519 1176 535 1161 q 503 1217 503 1191 q 519 1258 503 1242 q 563 1273 535 1273 q 606 1258 590 1273 q 622 1217 622 1242 q 606 1176 622 1191 q 563 1161 590 1161 m 879 1161 q 836 1176 852 1161 q 821 1217 821 1191 q 836 1258 821 1242 q 879 1273 852 1273 q 922 1258 906 1273 q 938 1217 938 1242 q 922 1176 938 1191 q 879 1161 906 1161 z "},"Ẁ":{"ha":1440,"x_min":42,"x_max":1397,"o":"m 1315 1028 l 1397 1028 l 1103 0 l 991 0 l 721 934 l 449 0 l 337 0 l 42 1028 l 130 1028 l 397 79 l 670 1028 l 773 1028 l 1046 76 l 1315 1028 m 683 1119 l 545 1313 l 637 1313 l 760 1119 l 683 1119 z "},"X":{"ha":871,"x_min":15,"x_max":855,"o":"m 485 523 l 855 0 l 756 0 l 435 455 l 112 0 l 15 0 l 385 522 l 25 1028 l 124 1028 l 435 589 l 747 1028 l 844 1028 l 485 523 z "},"Y":{"ha":797,"x_min":-18,"x_max":809,"o":"m 809 1028 l 441 463 l 441 0 l 357 0 l 357 463 l -18 1028 l 77 1028 l 401 540 l 719 1028 l 809 1028 z "},"Ý":{"ha":797,"x_min":-18,"x_max":809,"o":"m 809 1028 l 441 463 l 441 0 l 357 0 l 357 463 l -18 1028 l 77 1028 l 401 540 l 719 1028 l 809 1028 m 360 1119 l 483 1313 l 575 1313 l 437 1119 l 360 1119 z "},"Ŷ":{"ha":797,"x_min":-18,"x_max":809,"o":"m 809 1028 l 441 463 l 441 0 l 357 0 l 357 463 l -18 1028 l 77 1028 l 401 540 l 719 1028 l 809 1028 m 608 1119 l 528 1119 l 399 1272 l 269 1119 l 190 1119 l 358 1313 l 440 1313 l 608 1119 z "},"Ÿ":{"ha":797,"x_min":-18,"x_max":809,"o":"m 809 1028 l 441 463 l 441 0 l 357 0 l 357 463 l -18 1028 l 77 1028 l 401 540 l 719 1028 l 809 1028 m 240 1161 q 197 1176 213 1161 q 181 1217 181 1191 q 197 1258 181 1242 q 240 1273 213 1273 q 283 1258 267 1273 q 299 1217 299 1242 q 283 1176 299 1191 q 240 1161 267 1161 m 557 1161 q 514 1176 530 1161 q 499 1217 499 1191 q 514 1258 499 1242 q 557 1273 530 1273 q 600 1258 584 1273 q 616 1217 616 1242 q 600 1176 616 1191 q 557 1161 584 1161 z "},"Ẏ":{"ha":797,"x_min":-18,"x_max":809,"o":"m 809 1028 l 441 463 l 441 0 l 357 0 l 357 463 l -18 1028 l 77 1028 l 401 540 l 719 1028 l 809 1028 m 399 1161 q 353 1176 370 1161 q 337 1217 337 1191 q 353 1258 337 1242 q 399 1273 370 1273 q 444 1258 428 1273 q 461 1217 461 1242 q 444 1176 461 1191 q 399 1161 428 1161 z "},"Ỵ":{"ha":797,"x_min":-18,"x_max":809,"o":"m 809 1028 l 441 463 l 441 0 l 357 0 l 357 463 l -18 1028 l 77 1028 l 401 540 l 719 1028 l 809 1028 m 399 -231 q 353 -216 370 -231 q 337 -176 337 -201 q 353 -135 337 -150 q 399 -119 370 -119 q 444 -135 428 -119 q 461 -176 461 -150 q 444 -216 461 -201 q 399 -231 428 -231 z "},"Ỳ":{"ha":797,"x_min":-18,"x_max":809,"o":"m 809 1028 l 441 463 l 441 0 l 357 0 l 357 463 l -18 1028 l 77 1028 l 401 540 l 719 1028 l 809 1028 m 360 1119 l 223 1313 l 315 1313 l 438 1119 l 360 1119 z "},"Ỷ":{"ha":797,"x_min":-18,"x_max":809,"o":"m 809 1028 l 441 463 l 441 0 l 357 0 l 357 463 l -18 1028 l 77 1028 l 401 540 l 719 1028 l 809 1028 m 369 1119 q 380 1153 370 1140 q 404 1175 390 1167 q 440 1192 417 1183 q 475 1211 463 1202 q 486 1233 486 1219 q 467 1259 486 1250 q 403 1268 449 1268 q 267 1244 334 1268 l 267 1292 q 332 1309 295 1303 q 407 1315 368 1315 q 509 1294 475 1315 q 543 1238 543 1274 q 527 1196 543 1210 q 480 1167 510 1181 q 442 1146 455 1156 q 428 1119 430 1136 l 369 1119 z "},"Ȳ":{"ha":797,"x_min":-18,"x_max":809,"o":"m 809 1028 l 441 463 l 441 0 l 357 0 l 357 463 l -18 1028 l 77 1028 l 401 540 l 719 1028 l 809 1028 m 197 1186 l 197 1247 l 601 1247 l 601 1186 l 197 1186 z "},"Ỹ":{"ha":797,"x_min":-18,"x_max":809,"o":"m 809 1028 l 441 463 l 441 0 l 357 0 l 357 463 l -18 1028 l 77 1028 l 401 540 l 719 1028 l 809 1028 m 503 1167 q 449 1175 474 1167 q 389 1196 424 1182 q 336 1214 358 1208 q 294 1220 315 1220 q 232 1208 258 1220 q 180 1171 205 1197 l 180 1234 q 294 1278 222 1278 q 349 1271 323 1278 q 409 1250 374 1264 q 460 1231 439 1238 q 503 1225 482 1225 q 566 1237 539 1225 q 618 1274 593 1249 l 618 1211 q 503 1167 576 1167 z "},"Z":{"ha":785,"x_min":43,"x_max":742,"o":"m 155 74 l 742 74 l 742 0 l 43 0 l 43 48 l 623 953 l 51 953 l 51 1028 l 734 1028 l 734 980 l 155 74 z "},"Ź":{"ha":785,"x_min":43,"x_max":742,"o":"m 155 74 l 742 74 l 742 0 l 43 0 l 43 48 l 623 953 l 51 953 l 51 1028 l 734 1028 l 734 980 l 155 74 m 355 1119 l 477 1313 l 569 1313 l 431 1119 l 355 1119 z "},"Ž":{"ha":785,"x_min":43,"x_max":742,"o":"m 155 74 l 742 74 l 742 0 l 43 0 l 43 48 l 623 953 l 51 953 l 51 1028 l 734 1028 l 734 980 l 155 74 m 523 1313 l 602 1313 l 434 1119 l 353 1119 l 184 1313 l 263 1313 l 393 1160 l 523 1313 z "},"Ż":{"ha":785,"x_min":43,"x_max":742,"o":"m 155 74 l 742 74 l 742 0 l 43 0 l 43 48 l 623 953 l 51 953 l 51 1028 l 734 1028 l 734 980 l 155 74 m 393 1161 q 348 1176 365 1161 q 331 1217 331 1191 q 348 1258 331 1242 q 393 1273 365 1273 q 439 1258 422 1273 q 456 1217 456 1242 q 439 1176 456 1191 q 393 1161 422 1161 z "},"Ẓ":{"ha":785,"x_min":43,"x_max":742,"o":"m 155 74 l 742 74 l 742 0 l 43 0 l 43 48 l 623 953 l 51 953 l 51 1028 l 734 1028 l 734 980 l 155 74 m 393 -231 q 348 -216 365 -231 q 331 -176 331 -201 q 348 -135 331 -150 q 393 -119 365 -119 q 439 -135 422 -119 q 456 -176 456 -150 q 439 -216 456 -201 q 393 -231 422 -231 z "},"a":{"ha":699,"x_min":69,"x_max":598,"o":"m 324 763 q 476 739 417 763 q 567 658 536 715 q 598 504 598 601 l 598 0 l 527 0 l 521 86 l 514 86 q 418 14 476 40 q 292 -12 360 -12 q 173 12 224 -12 q 96 81 123 36 q 69 190 69 126 q 132 340 69 287 q 331 408 195 394 l 516 429 l 516 507 q 494 619 516 578 q 428 675 472 659 q 316 692 385 692 q 217 683 269 692 q 113 658 164 675 l 113 730 q 214 755 158 746 q 324 763 271 763 m 309 57 q 421 82 367 57 q 516 160 475 107 l 516 367 l 335 347 q 197 300 240 336 q 154 197 154 264 q 193 93 154 128 q 309 57 232 57 z "},"á":{"ha":699,"x_min":69,"x_max":598,"o":"m 324 763 q 476 739 417 763 q 567 658 536 715 q 598 504 598 601 l 598 0 l 527 0 l 521 86 l 514 86 q 418 14 476 40 q 292 -12 360 -12 q 173 12 224 -12 q 96 81 123 36 q 69 190 69 126 q 132 340 69 287 q 331 408 195 394 l 516 429 l 516 507 q 494 619 516 578 q 428 675 472 659 q 316 692 385 692 q 217 683 269 692 q 113 658 164 675 l 113 730 q 214 755 158 746 q 324 763 271 763 m 309 57 q 421 82 367 57 q 516 160 475 107 l 516 367 l 335 347 q 197 300 240 336 q 154 197 154 264 q 193 93 154 128 q 309 57 232 57 m 308 874 l 456 1122 l 547 1122 l 385 874 l 308 874 z "},"ă":{"ha":699,"x_min":69,"x_max":598,"o":"m 324 763 q 476 739 417 763 q 567 658 536 715 q 598 504 598 601 l 598 0 l 527 0 l 521 86 l 514 86 q 418 14 476 40 q 292 -12 360 -12 q 173 12 224 -12 q 96 81 123 36 q 69 190 69 126 q 132 340 69 287 q 331 408 195 394 l 516 429 l 516 507 q 494 619 516 578 q 428 675 472 659 q 316 692 385 692 q 217 683 269 692 q 113 658 164 675 l 113 730 q 214 755 158 746 q 324 763 271 763 m 309 57 q 421 82 367 57 q 516 160 475 107 l 516 367 l 335 347 q 197 300 240 336 q 154 197 154 264 q 193 93 154 128 q 309 57 232 57 m 348 881 q 206 939 258 881 q 150 1103 154 997 l 210 1103 q 249 978 215 1020 q 348 936 283 936 q 446 978 413 936 q 483 1103 479 1020 l 544 1103 q 489 939 539 997 q 348 881 438 881 z "},"ắ":{"ha":699,"x_min":69,"x_max":598,"o":"m 324 763 q 476 739 417 763 q 567 658 536 715 q 598 504 598 601 l 598 0 l 527 0 l 521 86 l 514 86 q 418 14 476 40 q 292 -12 360 -12 q 173 12 224 -12 q 96 81 123 36 q 69 190 69 126 q 132 340 69 287 q 331 408 195 394 l 516 429 l 516 507 q 494 619 516 578 q 428 675 472 659 q 316 692 385 692 q 217 683 269 692 q 113 658 164 675 l 113 730 q 214 755 158 746 q 324 763 271 763 m 309 57 q 421 82 367 57 q 516 160 475 107 l 516 367 l 335 347 q 197 300 240 336 q 154 197 154 264 q 193 93 154 128 q 309 57 232 57 m 313 1108 l 435 1297 l 518 1297 l 381 1108 l 313 1108 m 348 882 q 205 939 256 882 q 149 1099 153 996 l 208 1099 q 248 976 214 1017 q 348 935 282 935 q 447 976 414 935 q 485 1099 480 1017 l 545 1099 q 489 939 540 995 q 348 882 439 882 z "},"ặ":{"ha":699,"x_min":69,"x_max":598,"o":"m 324 763 q 476 739 417 763 q 567 658 536 715 q 598 504 598 601 l 598 0 l 527 0 l 521 86 l 514 86 q 418 14 476 40 q 292 -12 360 -12 q 173 12 224 -12 q 96 81 123 36 q 69 190 69 126 q 132 340 69 287 q 331 408 195 394 l 516 429 l 516 507 q 494 619 516 578 q 428 675 472 659 q 316 692 385 692 q 217 683 269 692 q 113 658 164 675 l 113 730 q 214 755 158 746 q 324 763 271 763 m 309 57 q 421 82 367 57 q 516 160 475 107 l 516 367 l 335 347 q 197 300 240 336 q 154 197 154 264 q 193 93 154 128 q 309 57 232 57 m 356 -235 q 313 -219 329 -235 q 297 -178 297 -203 q 313 -135 297 -151 q 356 -119 329 -119 q 399 -135 383 -119 q 415 -178 415 -151 q 399 -219 415 -204 q 356 -235 383 -235 m 348 881 q 206 939 258 881 q 150 1103 154 997 l 210 1103 q 249 978 215 1020 q 348 936 283 936 q 446 978 413 936 q 483 1103 479 1020 l 544 1103 q 489 939 539 997 q 348 881 438 881 z "},"ằ":{"ha":699,"x_min":69,"x_max":598,"o":"m 324 763 q 476 739 417 763 q 567 658 536 715 q 598 504 598 601 l 598 0 l 527 0 l 521 86 l 514 86 q 418 14 476 40 q 292 -12 360 -12 q 173 12 224 -12 q 96 81 123 36 q 69 190 69 126 q 132 340 69 287 q 331 408 195 394 l 516 429 l 516 507 q 494 619 516 578 q 428 675 472 659 q 316 692 385 692 q 217 683 269 692 q 113 658 164 675 l 113 730 q 214 755 158 746 q 324 763 271 763 m 309 57 q 421 82 367 57 q 516 160 475 107 l 516 367 l 335 347 q 197 300 240 336 q 154 197 154 264 q 193 93 154 128 q 309 57 232 57 m 313 1108 l 176 1297 l 258 1297 l 381 1108 l 313 1108 m 348 882 q 205 939 256 882 q 149 1099 153 996 l 208 1099 q 248 976 214 1017 q 348 935 282 935 q 447 976 414 935 q 485 1099 480 1017 l 545 1099 q 489 939 540 995 q 348 882 439 882 z "},"ẳ":{"ha":699,"x_min":69,"x_max":598,"o":"m 324 763 q 476 739 417 763 q 567 658 536 715 q 598 504 598 601 l 598 0 l 527 0 l 521 86 l 514 86 q 418 14 476 40 q 292 -12 360 -12 q 173 12 224 -12 q 96 81 123 36 q 69 190 69 126 q 132 340 69 287 q 331 408 195 394 l 516 429 l 516 507 q 494 619 516 578 q 428 675 472 659 q 316 692 385 692 q 217 683 269 692 q 113 658 164 675 l 113 730 q 214 755 158 746 q 324 763 271 763 m 309 57 q 421 82 367 57 q 516 160 475 107 l 516 367 l 335 347 q 197 300 240 336 q 154 197 154 264 q 193 93 154 128 q 309 57 232 57 m 317 1108 q 328 1141 318 1128 q 351 1163 338 1155 q 387 1180 365 1170 q 422 1198 410 1190 q 434 1221 434 1207 q 415 1246 434 1238 q 351 1255 397 1255 q 215 1231 282 1255 l 215 1276 q 280 1294 243 1288 q 355 1300 316 1300 q 457 1280 423 1300 q 491 1224 491 1259 q 475 1183 491 1197 q 428 1156 458 1169 q 390 1134 403 1144 q 376 1108 378 1124 l 317 1108 m 348 882 q 205 939 256 882 q 149 1099 153 996 l 208 1099 q 248 976 214 1017 q 348 935 282 935 q 447 976 414 935 q 485 1099 480 1017 l 545 1099 q 489 939 540 995 q 348 882 439 882 z "},"ẵ":{"ha":699,"x_min":69,"x_max":598,"o":"m 324 763 q 476 739 417 763 q 567 658 536 715 q 598 504 598 601 l 598 0 l 527 0 l 521 86 l 514 86 q 418 14 476 40 q 292 -12 360 -12 q 173 12 224 -12 q 96 81 123 36 q 69 190 69 126 q 132 340 69 287 q 331 408 195 394 l 516 429 l 516 507 q 494 619 516 578 q 428 675 472 659 q 316 692 385 692 q 217 683 269 692 q 113 658 164 675 l 113 730 q 214 755 158 746 q 324 763 271 763 m 309 57 q 421 82 367 57 q 516 160 475 107 l 516 367 l 335 347 q 197 300 240 336 q 154 197 154 264 q 193 93 154 128 q 309 57 232 57 m 446 1156 q 396 1163 419 1156 q 336 1183 373 1169 q 286 1202 306 1196 q 247 1208 267 1208 q 188 1196 214 1208 q 136 1159 161 1184 l 136 1219 q 248 1263 178 1263 q 298 1256 274 1263 q 357 1235 322 1249 q 407 1216 387 1222 q 447 1210 426 1210 q 506 1222 480 1210 q 558 1258 533 1234 l 558 1199 q 446 1156 516 1156 m 348 882 q 205 939 256 882 q 149 1099 153 996 l 208 1099 q 248 976 214 1017 q 348 935 282 935 q 447 976 414 935 q 485 1099 480 1017 l 545 1099 q 489 939 540 995 q 348 882 439 882 z "},"â":{"ha":699,"x_min":69,"x_max":598,"o":"m 324 763 q 476 739 417 763 q 567 658 536 715 q 598 504 598 601 l 598 0 l 527 0 l 521 86 l 514 86 q 418 14 476 40 q 292 -12 360 -12 q 173 12 224 -12 q 96 81 123 36 q 69 190 69 126 q 132 340 69 287 q 331 408 195 394 l 516 429 l 516 507 q 494 619 516 578 q 428 675 472 659 q 316 692 385 692 q 217 683 269 692 q 113 658 164 675 l 113 730 q 214 755 158 746 q 324 763 271 763 m 309 57 q 421 82 367 57 q 516 160 475 107 l 516 367 l 335 347 q 197 300 240 336 q 154 197 154 264 q 193 93 154 128 q 309 57 232 57 m 540 874 l 468 874 l 347 1075 l 226 874 l 153 874 l 307 1122 l 387 1122 l 540 874 z "},"ấ":{"ha":699,"x_min":69,"x_max":696,"o":"m 324 763 q 476 739 417 763 q 567 658 536 715 q 598 504 598 601 l 598 0 l 527 0 l 521 86 l 514 86 q 418 14 476 40 q 292 -12 360 -12 q 173 12 224 -12 q 96 81 123 36 q 69 190 69 126 q 132 340 69 287 q 331 408 195 394 l 516 429 l 516 507 q 494 619 516 578 q 428 675 472 659 q 316 692 385 692 q 217 683 269 692 q 113 658 164 675 l 113 730 q 214 755 158 746 q 324 763 271 763 m 309 57 q 421 82 367 57 q 516 160 475 107 l 516 367 l 335 347 q 197 300 240 336 q 154 197 154 264 q 193 93 154 128 q 309 57 232 57 m 613 1297 l 696 1297 l 558 1108 l 490 1108 l 613 1297 m 307 1122 l 387 1122 l 540 874 l 468 874 l 347 1075 l 226 874 l 153 874 l 307 1122 z "},"ậ":{"ha":699,"x_min":69,"x_max":598,"o":"m 324 763 q 476 739 417 763 q 567 658 536 715 q 598 504 598 601 l 598 0 l 527 0 l 521 86 l 514 86 q 418 14 476 40 q 292 -12 360 -12 q 173 12 224 -12 q 96 81 123 36 q 69 190 69 126 q 132 340 69 287 q 331 408 195 394 l 516 429 l 516 507 q 494 619 516 578 q 428 675 472 659 q 316 692 385 692 q 217 683 269 692 q 113 658 164 675 l 113 730 q 214 755 158 746 q 324 763 271 763 m 309 57 q 421 82 367 57 q 516 160 475 107 l 516 367 l 335 347 q 197 300 240 336 q 154 197 154 264 q 193 93 154 128 q 309 57 232 57 m 356 -235 q 313 -219 329 -235 q 297 -178 297 -203 q 313 -135 297 -151 q 356 -119 329 -119 q 399 -135 383 -119 q 415 -178 415 -151 q 399 -219 415 -204 q 356 -235 383 -235 m 540 874 l 468 874 l 347 1075 l 226 874 l 153 874 l 307 1122 l 387 1122 l 540 874 z "},"ầ":{"ha":699,"x_min":69,"x_max":598,"o":"m 324 763 q 476 739 417 763 q 567 658 536 715 q 598 504 598 601 l 598 0 l 527 0 l 521 86 l 514 86 q 418 14 476 40 q 292 -12 360 -12 q 173 12 224 -12 q 96 81 123 36 q 69 190 69 126 q 132 340 69 287 q 331 408 195 394 l 516 429 l 516 507 q 494 619 516 578 q 428 675 472 659 q 316 692 385 692 q 217 683 269 692 q 113 658 164 675 l 113 730 q 214 755 158 746 q 324 763 271 763 m 309 57 q 421 82 367 57 q 516 160 475 107 l 516 367 l 335 347 q 197 300 240 336 q 154 197 154 264 q 193 93 154 128 q 309 57 232 57 m 569 1108 l 503 1108 l 365 1297 l 447 1297 l 569 1108 m 307 1122 l 387 1122 l 540 874 l 468 874 l 347 1075 l 226 874 l 153 874 l 307 1122 z "},"ẩ":{"ha":699,"x_min":69,"x_max":657,"o":"m 324 763 q 476 739 417 763 q 567 658 536 715 q 598 504 598 601 l 598 0 l 527 0 l 521 86 l 514 86 q 418 14 476 40 q 292 -12 360 -12 q 173 12 224 -12 q 96 81 123 36 q 69 190 69 126 q 132 340 69 287 q 331 408 195 394 l 516 429 l 516 507 q 494 619 516 578 q 428 675 472 659 q 316 692 385 692 q 217 683 269 692 q 113 658 164 675 l 113 730 q 214 755 158 746 q 324 763 271 763 m 309 57 q 421 82 367 57 q 516 160 475 107 l 516 367 l 335 347 q 197 300 240 336 q 154 197 154 264 q 193 93 154 128 q 309 57 232 57 m 523 1300 q 624 1280 590 1300 q 657 1224 657 1259 q 641 1184 657 1198 q 595 1157 625 1170 q 557 1135 569 1145 q 542 1108 544 1126 l 486 1108 q 497 1142 487 1128 q 520 1163 507 1155 q 555 1181 533 1171 q 589 1199 578 1190 q 601 1221 601 1208 q 582 1246 601 1238 q 519 1255 564 1255 q 385 1231 449 1255 l 385 1276 q 448 1294 412 1288 q 523 1300 484 1300 m 307 1122 l 387 1122 l 540 874 l 468 874 l 347 1075 l 226 874 l 153 874 l 307 1122 z "},"ẫ":{"ha":699,"x_min":69,"x_max":598,"o":"m 324 763 q 476 739 417 763 q 567 658 536 715 q 598 504 598 601 l 598 0 l 527 0 l 521 86 l 514 86 q 418 14 476 40 q 292 -12 360 -12 q 173 12 224 -12 q 96 81 123 36 q 69 190 69 126 q 132 340 69 287 q 331 408 195 394 l 516 429 l 516 507 q 494 619 516 578 q 428 675 472 659 q 316 692 385 692 q 217 683 269 692 q 113 658 164 675 l 113 730 q 214 755 158 746 q 324 763 271 763 m 309 57 q 421 82 367 57 q 516 160 475 107 l 516 367 l 335 347 q 197 300 240 336 q 154 197 154 264 q 193 93 154 128 q 309 57 232 57 m 446 1210 q 505 1222 478 1210 q 556 1258 531 1234 l 556 1199 q 445 1156 515 1156 q 396 1163 419 1156 q 336 1183 373 1169 q 288 1201 308 1195 q 248 1208 267 1208 q 189 1196 215 1208 q 138 1159 162 1184 l 138 1219 q 249 1263 178 1263 q 298 1256 275 1263 q 358 1235 321 1249 q 406 1217 386 1223 q 446 1210 426 1210 m 306 1115 l 388 1115 l 543 874 l 469 874 l 347 1071 l 224 874 l 151 874 l 306 1115 z "},"ȁ":{"ha":699,"x_min":69,"x_max":598,"o":"m 324 763 q 476 739 417 763 q 567 658 536 715 q 598 504 598 601 l 598 0 l 527 0 l 521 86 l 514 86 q 418 14 476 40 q 292 -12 360 -12 q 173 12 224 -12 q 96 81 123 36 q 69 190 69 126 q 132 340 69 287 q 331 408 195 394 l 516 429 l 516 507 q 494 619 516 578 q 428 675 472 659 q 316 692 385 692 q 217 683 269 692 q 113 658 164 675 l 113 730 q 214 755 158 746 q 324 763 271 763 m 309 57 q 421 82 367 57 q 516 160 475 107 l 516 367 l 335 347 q 197 300 240 336 q 154 197 154 264 q 193 93 154 128 q 309 57 232 57 m 202 874 l 100 1122 l 176 1122 l 270 874 l 202 874 m 424 874 l 322 1122 l 397 1122 l 491 874 l 424 874 z "},"ä":{"ha":699,"x_min":69,"x_max":598,"o":"m 324 763 q 476 739 417 763 q 567 658 536 715 q 598 504 598 601 l 598 0 l 527 0 l 521 86 l 514 86 q 418 14 476 40 q 292 -12 360 -12 q 173 12 224 -12 q 96 81 123 36 q 69 190 69 126 q 132 340 69 287 q 331 408 195 394 l 516 429 l 516 507 q 494 619 516 578 q 428 675 472 659 q 316 692 385 692 q 217 683 269 692 q 113 658 164 675 l 113 730 q 214 755 158 746 q 324 763 271 763 m 309 57 q 421 82 367 57 q 516 160 475 107 l 516 367 l 335 347 q 197 300 240 336 q 154 197 154 264 q 193 93 154 128 q 309 57 232 57 m 201 930 q 158 945 174 930 q 142 987 142 960 q 158 1030 142 1013 q 201 1046 174 1046 q 244 1030 228 1046 q 260 987 260 1013 q 244 945 260 960 q 201 930 228 930 m 492 930 q 449 945 465 930 q 433 987 433 960 q 450 1030 433 1013 q 492 1046 466 1046 q 535 1030 519 1046 q 551 987 551 1013 q 535 945 551 960 q 492 930 519 930 z "},"ạ":{"ha":699,"x_min":69,"x_max":598,"o":"m 324 763 q 476 739 417 763 q 567 658 536 715 q 598 504 598 601 l 598 0 l 527 0 l 521 86 l 514 86 q 418 14 476 40 q 292 -12 360 -12 q 173 12 224 -12 q 96 81 123 36 q 69 190 69 126 q 132 340 69 287 q 331 408 195 394 l 516 429 l 516 507 q 494 619 516 578 q 428 675 472 659 q 316 692 385 692 q 217 683 269 692 q 113 658 164 675 l 113 730 q 214 755 158 746 q 324 763 271 763 m 309 57 q 421 82 367 57 q 516 160 475 107 l 516 367 l 335 347 q 197 300 240 336 q 154 197 154 264 q 193 93 154 128 q 309 57 232 57 m 356 -235 q 313 -219 329 -235 q 297 -178 297 -203 q 313 -135 297 -151 q 356 -119 329 -119 q 399 -135 383 -119 q 415 -178 415 -151 q 399 -219 415 -204 q 356 -235 383 -235 z "},"à":{"ha":699,"x_min":69,"x_max":598,"o":"m 324 763 q 476 739 417 763 q 567 658 536 715 q 598 504 598 601 l 598 0 l 527 0 l 521 86 l 514 86 q 418 14 476 40 q 292 -12 360 -12 q 173 12 224 -12 q 96 81 123 36 q 69 190 69 126 q 132 340 69 287 q 331 408 195 394 l 516 429 l 516 507 q 494 619 516 578 q 428 675 472 659 q 316 692 385 692 q 217 683 269 692 q 113 658 164 675 l 113 730 q 214 755 158 746 q 324 763 271 763 m 309 57 q 421 82 367 57 q 516 160 475 107 l 516 367 l 335 347 q 197 300 240 336 q 154 197 154 264 q 193 93 154 128 q 309 57 232 57 m 308 874 l 147 1122 l 238 1122 l 385 874 l 308 874 z "},"ả":{"ha":699,"x_min":69,"x_max":598,"o":"m 324 763 q 476 739 417 763 q 567 658 536 715 q 598 504 598 601 l 598 0 l 527 0 l 521 86 l 514 86 q 418 14 476 40 q 292 -12 360 -12 q 173 12 224 -12 q 96 81 123 36 q 69 190 69 126 q 132 340 69 287 q 331 408 195 394 l 516 429 l 516 507 q 494 619 516 578 q 428 675 472 659 q 316 692 385 692 q 217 683 269 692 q 113 658 164 675 l 113 730 q 214 755 158 746 q 324 763 271 763 m 309 57 q 421 82 367 57 q 516 160 475 107 l 516 367 l 335 347 q 197 300 240 336 q 154 197 154 264 q 193 93 154 128 q 309 57 232 57 m 318 874 q 328 919 319 900 q 351 949 338 938 q 385 976 364 961 q 418 1004 408 992 q 428 1033 428 1015 q 408 1070 428 1058 q 344 1082 388 1082 q 288 1078 317 1082 q 236 1065 259 1074 l 236 1114 q 288 1126 258 1122 q 345 1131 317 1131 q 451 1106 416 1131 q 485 1036 485 1082 q 471 986 485 1005 q 428 949 456 968 q 390 915 403 931 q 376 874 376 899 l 318 874 z "},"ȃ":{"ha":699,"x_min":69,"x_max":598,"o":"m 324 763 q 476 739 417 763 q 567 658 536 715 q 598 504 598 601 l 598 0 l 527 0 l 521 86 l 514 86 q 418 14 476 40 q 292 -12 360 -12 q 173 12 224 -12 q 96 81 123 36 q 69 190 69 126 q 132 340 69 287 q 331 408 195 394 l 516 429 l 516 507 q 494 619 516 578 q 428 675 472 659 q 316 692 385 692 q 217 683 269 692 q 113 658 164 675 l 113 730 q 214 755 158 746 q 324 763 271 763 m 309 57 q 421 82 367 57 q 516 160 475 107 l 516 367 l 335 347 q 197 300 240 336 q 154 197 154 264 q 193 93 154 128 q 309 57 232 57 m 150 893 q 205 1058 154 1001 q 346 1115 255 1115 q 488 1057 436 1115 q 544 893 539 999 l 483 893 q 346 1060 474 1060 q 247 1018 281 1060 q 210 893 214 976 l 150 893 z "},"ā":{"ha":699,"x_min":69,"x_max":598,"o":"m 324 763 q 476 739 417 763 q 567 658 536 715 q 598 504 598 601 l 598 0 l 527 0 l 521 86 l 514 86 q 418 14 476 40 q 292 -12 360 -12 q 173 12 224 -12 q 96 81 123 36 q 69 190 69 126 q 132 340 69 287 q 331 408 195 394 l 516 429 l 516 507 q 494 619 516 578 q 428 675 472 659 q 316 692 385 692 q 217 683 269 692 q 113 658 164 675 l 113 730 q 214 755 158 746 q 324 763 271 763 m 309 57 q 421 82 367 57 q 516 160 475 107 l 516 367 l 335 347 q 197 300 240 336 q 154 197 154 264 q 193 93 154 128 q 309 57 232 57 m 140 958 l 140 1018 l 554 1018 l 554 958 l 140 958 z "},"ą":{"ha":699,"x_min":69,"x_max":663,"o":"m 560 -237 q 663 -208 611 -237 l 663 -256 q 611 -277 640 -269 q 556 -284 583 -284 q 451 -251 489 -284 q 414 -161 414 -218 q 441 -70 414 -112 q 526 10 468 -28 l 521 86 l 514 86 q 418 14 476 40 q 292 -12 360 -12 q 173 12 224 -12 q 96 81 123 36 q 69 190 69 126 q 132 340 69 287 q 331 408 195 394 l 516 429 l 516 507 q 494 619 516 578 q 428 675 472 659 q 316 692 385 692 q 217 683 269 692 q 113 658 164 675 l 113 730 q 214 755 158 746 q 324 763 271 763 q 476 739 417 763 q 567 658 536 715 q 598 504 598 601 l 598 0 q 500 -75 530 -38 q 471 -156 471 -112 q 494 -216 471 -194 q 560 -237 518 -237 m 309 57 q 421 82 367 57 q 516 160 475 107 l 516 367 l 335 347 q 197 300 240 336 q 154 197 154 264 q 193 93 154 128 q 309 57 232 57 z "},"å":{"ha":699,"x_min":69,"x_max":598,"o":"m 324 763 q 476 739 417 763 q 567 658 536 715 q 598 504 598 601 l 598 0 l 527 0 l 521 86 l 514 86 q 418 14 476 40 q 292 -12 360 -12 q 173 12 224 -12 q 96 81 123 36 q 69 190 69 126 q 132 340 69 287 q 331 408 195 394 l 516 429 l 516 507 q 494 619 516 578 q 428 675 472 659 q 316 692 385 692 q 217 683 269 692 q 113 658 164 675 l 113 730 q 214 755 158 746 q 324 763 271 763 m 309 57 q 421 82 367 57 q 516 160 475 107 l 516 367 l 335 347 q 197 300 240 336 q 154 197 154 264 q 193 93 154 128 q 309 57 232 57 m 347 870 q 279 887 309 870 q 232 934 249 904 q 215 1002 215 965 q 232 1069 215 1040 q 279 1116 249 1099 q 347 1133 309 1133 q 414 1116 384 1133 q 462 1069 444 1099 q 479 1002 479 1040 q 462 934 479 965 q 414 887 444 904 q 347 870 384 870 m 347 915 q 408 939 385 915 q 432 1002 432 962 q 408 1065 432 1042 q 347 1088 385 1088 q 285 1065 309 1088 q 262 1002 262 1042 q 285 939 262 962 q 347 915 309 915 z "},"ǻ":{"ha":699,"x_min":69,"x_max":598,"o":"m 324 763 q 476 739 417 763 q 567 658 536 715 q 598 504 598 601 l 598 0 l 527 0 l 521 86 l 514 86 q 418 14 476 40 q 292 -12 360 -12 q 173 12 224 -12 q 96 81 123 36 q 69 190 69 126 q 132 340 69 287 q 331 408 195 394 l 516 429 l 516 507 q 494 619 516 578 q 428 675 472 659 q 316 692 385 692 q 217 683 269 692 q 113 658 164 675 l 113 730 q 214 755 158 746 q 324 763 271 763 m 309 57 q 421 82 367 57 q 516 160 475 107 l 516 367 l 335 347 q 197 300 240 336 q 154 197 154 264 q 193 93 154 128 q 309 57 232 57 m 449 1088 q 479 1002 479 1051 q 462 934 479 965 q 414 887 444 904 q 347 870 384 870 q 279 887 309 870 q 232 934 249 904 q 215 1002 215 965 q 232 1069 215 1040 q 279 1116 249 1099 q 347 1133 309 1133 q 408 1120 379 1133 l 504 1236 l 581 1236 l 449 1088 m 347 915 q 408 939 385 915 q 432 1002 432 962 q 408 1065 432 1042 q 347 1088 385 1088 q 285 1065 309 1088 q 262 1002 262 1042 q 285 939 262 962 q 347 915 309 915 z "},"ã":{"ha":699,"x_min":69,"x_max":598,"o":"m 324 763 q 476 739 417 763 q 567 658 536 715 q 598 504 598 601 l 598 0 l 527 0 l 521 86 l 514 86 q 418 14 476 40 q 292 -12 360 -12 q 173 12 224 -12 q 96 81 123 36 q 69 190 69 126 q 132 340 69 287 q 331 408 195 394 l 516 429 l 516 507 q 494 619 516 578 q 428 675 472 659 q 316 692 385 692 q 217 683 269 692 q 113 658 164 675 l 113 730 q 214 755 158 746 q 324 763 271 763 m 309 57 q 421 82 367 57 q 516 160 475 107 l 516 367 l 335 347 q 197 300 240 336 q 154 197 154 264 q 193 93 154 128 q 309 57 232 57 m 443 944 q 394 952 417 944 q 337 974 371 959 q 287 993 306 987 q 249 999 268 999 q 191 987 217 999 q 140 949 165 975 l 140 1014 q 250 1059 181 1059 q 300 1051 276 1059 q 358 1029 324 1044 q 406 1010 387 1016 q 444 1003 426 1003 q 503 1016 477 1003 q 554 1055 529 1028 l 554 990 q 443 944 513 944 z "},"æ":{"ha":1139,"x_min":69,"x_max":1081,"o":"m 1081 346 l 598 346 q 631 178 601 242 q 717 87 660 115 q 860 58 774 58 q 1044 90 942 58 l 1044 19 q 851 -13 944 -13 q 678 21 749 -13 q 567 127 607 55 q 441 20 508 51 q 297 -12 374 -12 q 176 12 227 -12 q 97 81 124 35 q 69 190 69 126 q 137 350 69 292 q 351 409 205 409 l 516 409 l 516 508 q 493 619 516 579 q 428 676 471 660 q 316 692 385 692 q 217 683 269 692 q 113 658 164 675 l 113 730 q 214 755 158 746 q 322 763 269 763 q 485 731 424 763 q 572 626 547 699 q 664 730 606 695 q 803 764 723 764 q 1009 669 937 764 q 1081 376 1081 574 l 1081 346 m 801 699 q 653 631 705 699 q 598 409 601 563 l 999 409 q 945 632 995 565 q 801 699 896 699 m 310 57 q 436 88 376 57 q 540 191 495 119 q 517 347 519 259 l 353 347 q 201 307 248 347 q 154 197 154 267 q 194 93 154 128 q 310 57 234 57 z "},"ǽ":{"ha":1139,"x_min":69,"x_max":1081,"o":"m 1081 346 l 598 346 q 631 178 601 242 q 717 87 660 115 q 860 58 774 58 q 1044 90 942 58 l 1044 19 q 851 -13 944 -13 q 678 21 749 -13 q 567 127 607 55 q 441 20 508 51 q 297 -12 374 -12 q 176 12 227 -12 q 97 81 124 35 q 69 190 69 126 q 137 350 69 292 q 351 409 205 409 l 516 409 l 516 508 q 493 619 516 579 q 428 676 471 660 q 316 692 385 692 q 217 683 269 692 q 113 658 164 675 l 113 730 q 214 755 158 746 q 322 763 269 763 q 485 731 424 763 q 572 626 547 699 q 664 730 606 695 q 803 764 723 764 q 1009 669 937 764 q 1081 376 1081 574 l 1081 346 m 801 699 q 653 631 705 699 q 598 409 601 563 l 999 409 q 945 632 995 565 q 801 699 896 699 m 310 57 q 436 88 376 57 q 540 191 495 119 q 517 347 519 259 l 353 347 q 201 307 248 347 q 154 197 154 267 q 194 93 154 128 q 310 57 234 57 m 519 874 l 667 1122 l 758 1122 l 597 874 l 519 874 z "},"b":{"ha":767,"x_min":110,"x_max":697,"o":"m 330 -12 q 216 -5 273 -12 q 110 19 160 3 l 110 1122 l 194 1122 l 194 673 l 199 673 q 290 739 235 714 q 411 763 344 763 q 618 674 540 763 q 697 390 697 585 q 604 88 697 188 q 330 -12 511 -12 m 334 58 q 542 136 472 58 q 611 382 611 213 q 553 620 611 550 q 391 690 494 690 q 281 665 333 690 q 194 592 228 640 l 194 77 q 260 64 223 69 q 334 58 297 58 z "},"c":{"ha":593,"x_min":69,"x_max":568,"o":"m 388 -13 q 150 81 231 -13 q 69 376 69 175 q 157 670 69 577 q 417 763 244 763 q 568 744 499 763 l 568 670 q 425 690 494 690 q 274 659 333 690 q 185 561 215 629 q 156 378 156 492 q 183 193 156 263 q 264 92 210 123 q 399 60 317 60 q 568 93 472 60 l 568 19 q 388 -13 479 -13 z "},"ć":{"ha":593,"x_min":69,"x_max":568,"o":"m 388 -13 q 150 81 231 -13 q 69 376 69 175 q 157 670 69 577 q 417 763 244 763 q 568 744 499 763 l 568 670 q 425 690 494 690 q 274 659 333 690 q 185 561 215 629 q 156 378 156 492 q 183 193 156 263 q 264 92 210 123 q 399 60 317 60 q 568 93 472 60 l 568 19 q 388 -13 479 -13 m 314 874 l 461 1122 l 553 1122 l 391 874 l 314 874 z "},"č":{"ha":593,"x_min":69,"x_max":568,"o":"m 388 -13 q 150 81 231 -13 q 69 376 69 175 q 157 670 69 577 q 417 763 244 763 q 568 744 499 763 l 568 670 q 425 690 494 690 q 274 659 333 690 q 185 561 215 629 q 156 378 156 492 q 183 193 156 263 q 264 92 210 123 q 399 60 317 60 q 568 93 472 60 l 568 19 q 388 -13 479 -13 m 476 1122 l 548 1122 l 392 874 l 313 874 l 157 1122 l 228 1122 l 353 919 l 476 1122 z "},"ç":{"ha":593,"x_min":69,"x_max":568,"o":"m 425 690 q 274 659 333 690 q 185 561 215 629 q 156 378 156 492 q 183 193 156 263 q 264 92 210 123 q 399 60 317 60 q 568 93 472 60 l 568 19 q 388 -13 479 -13 l 382 -13 l 382 -75 q 461 -107 434 -80 q 489 -179 489 -134 q 454 -256 489 -228 q 355 -284 419 -284 q 293 -277 324 -284 q 240 -259 262 -271 l 240 -210 q 355 -237 294 -237 q 434 -177 434 -237 q 353 -115 434 -115 l 329 -115 l 329 -10 q 135 100 201 6 q 69 376 69 194 q 157 670 69 577 q 417 763 244 763 q 568 744 499 763 l 568 670 q 425 690 494 690 z "},"ḉ":{"ha":593,"x_min":69,"x_max":568,"o":"m 553 1122 l 391 874 l 314 874 l 461 1122 l 553 1122 m 425 690 q 274 659 333 690 q 185 561 215 629 q 156 378 156 492 q 183 193 156 263 q 264 92 210 123 q 399 60 317 60 q 568 93 472 60 l 568 19 q 388 -13 479 -13 l 382 -13 l 382 -75 q 461 -107 434 -80 q 489 -179 489 -134 q 454 -256 489 -228 q 355 -284 419 -284 q 293 -277 324 -284 q 240 -259 262 -271 l 240 -210 q 355 -237 294 -237 q 434 -177 434 -237 q 353 -115 434 -115 l 329 -115 l 329 -10 q 135 100 201 6 q 69 376 69 194 q 157 670 69 577 q 417 763 244 763 q 568 744 499 763 l 568 670 q 425 690 494 690 z "},"ĉ":{"ha":593,"x_min":69,"x_max":568,"o":"m 388 -13 q 150 81 231 -13 q 69 376 69 175 q 157 670 69 577 q 417 763 244 763 q 568 744 499 763 l 568 670 q 425 690 494 690 q 274 659 333 690 q 185 561 215 629 q 156 378 156 492 q 183 193 156 263 q 264 92 210 123 q 399 60 317 60 q 568 93 472 60 l 568 19 q 388 -13 479 -13 m 546 874 l 474 874 l 353 1075 l 231 874 l 159 874 l 313 1122 l 392 1122 l 546 874 z "},"ċ":{"ha":593,"x_min":69,"x_max":568,"o":"m 388 -13 q 150 81 231 -13 q 69 376 69 175 q 157 670 69 577 q 417 763 244 763 q 568 744 499 763 l 568 670 q 425 690 494 690 q 274 659 333 690 q 185 561 215 629 q 156 378 156 492 q 183 193 156 263 q 264 92 210 123 q 399 60 317 60 q 568 93 472 60 l 568 19 q 388 -13 479 -13 m 352 929 q 306 944 323 929 q 290 987 290 960 q 306 1030 290 1014 q 352 1047 323 1047 q 398 1030 381 1047 q 415 987 415 1014 q 398 944 415 960 q 352 929 382 929 z "},"d":{"ha":767,"x_min":69,"x_max":656,"o":"m 363 -12 q 150 77 230 -12 q 69 360 69 167 q 441 763 69 763 q 572 752 504 763 l 572 1122 l 656 1122 l 656 0 l 584 0 l 578 82 l 572 82 q 482 13 536 39 q 363 -12 428 -12 m 378 61 q 487 87 435 61 q 572 165 538 113 l 572 678 q 509 688 545 684 q 439 692 472 692 q 226 615 296 692 q 156 369 156 538 q 214 131 156 201 q 378 61 272 61 z "},"ð":{"ha":756,"x_min":69,"x_max":685,"o":"m 519 919 q 641 669 597 804 q 685 401 685 533 q 604 89 685 190 q 379 -13 524 -13 q 151 82 233 -13 q 69 376 69 176 q 150 668 69 574 q 374 763 231 763 q 547 701 481 763 q 439 906 507 809 l 144 857 l 135 914 l 399 958 q 224 1122 322 1050 l 331 1122 q 482 972 412 1063 l 659 1001 l 669 944 l 519 919 m 379 58 q 542 134 484 58 q 600 374 600 210 q 543 619 600 546 q 378 692 486 692 q 213 619 269 692 q 156 377 156 547 q 213 131 156 205 q 379 58 270 58 z "},"ď":{"ha":767,"x_min":69,"x_max":802,"o":"m 363 -12 q 150 77 230 -12 q 69 360 69 167 q 441 763 69 763 q 572 752 504 763 l 572 1122 l 656 1122 l 656 0 l 584 0 l 578 82 l 572 82 q 482 13 536 39 q 363 -12 428 -12 m 378 61 q 487 87 435 61 q 572 165 538 113 l 572 678 q 509 688 545 684 q 439 692 472 692 q 226 615 296 692 q 156 369 156 538 q 214 131 156 201 q 378 61 272 61 m 722 819 q 736 1122 736 935 l 802 1122 q 795 965 802 1044 q 772 819 788 886 l 722 819 z "},"đ":{"ha":767,"x_min":69,"x_max":760,"o":"m 760 910 l 656 910 l 656 0 l 584 0 l 578 82 l 572 82 q 482 13 536 39 q 363 -12 428 -12 q 150 77 230 -12 q 69 360 69 167 q 441 763 69 763 q 572 752 504 763 l 572 910 l 324 910 l 324 973 l 572 973 l 572 1122 l 656 1122 l 656 973 l 760 973 l 760 910 m 572 678 q 509 688 545 684 q 439 692 472 692 q 226 615 296 692 q 156 369 156 538 q 214 131 156 201 q 378 61 272 61 q 487 87 435 61 q 572 165 538 113 l 572 678 z "},"ḍ":{"ha":767,"x_min":69,"x_max":656,"o":"m 363 -12 q 150 77 230 -12 q 69 360 69 167 q 441 763 69 763 q 572 752 504 763 l 572 1122 l 656 1122 l 656 0 l 584 0 l 578 82 l 572 82 q 482 13 536 39 q 363 -12 428 -12 m 378 61 q 487 87 435 61 q 572 165 538 113 l 572 678 q 509 688 545 684 q 439 692 472 692 q 226 615 296 692 q 156 369 156 538 q 214 131 156 201 q 378 61 272 61 m 383 -235 q 341 -219 357 -235 q 324 -178 324 -203 q 341 -135 324 -151 q 383 -119 357 -119 q 426 -135 410 -119 q 442 -178 442 -151 q 426 -219 442 -204 q 383 -235 410 -235 z "},"ḏ":{"ha":767,"x_min":69,"x_max":656,"o":"m 363 -12 q 150 77 230 -12 q 69 360 69 167 q 441 763 69 763 q 572 752 504 763 l 572 1122 l 656 1122 l 656 0 l 584 0 l 578 82 l 572 82 q 482 13 536 39 q 363 -12 428 -12 m 378 61 q 487 87 435 61 q 572 165 538 113 l 572 678 q 509 688 545 684 q 439 692 472 692 q 226 615 296 692 q 156 369 156 538 q 214 131 156 201 q 378 61 272 61 m 196 -208 l 196 -148 l 571 -148 l 571 -208 l 196 -208 z "},"ǳ":{"ha":1388,"x_min":69,"x_max":1349,"o":"m 363 -12 q 150 77 230 -12 q 69 360 69 167 q 441 763 69 763 q 572 752 504 763 l 572 1122 l 656 1122 l 656 0 l 584 0 l 578 82 l 572 82 q 482 13 536 39 q 363 -12 428 -12 m 378 61 q 487 87 435 61 q 572 165 538 113 l 572 678 q 509 688 545 684 q 439 692 472 692 q 226 615 296 692 q 156 369 156 538 q 214 131 156 201 q 378 61 272 61 m 917 72 l 1349 72 l 1349 0 l 810 0 l 810 51 l 1234 681 l 817 681 l 817 752 l 1342 752 l 1342 701 l 917 72 z "},"ǆ":{"ha":1388,"x_min":69,"x_max":1349,"o":"m 363 -12 q 150 77 230 -12 q 69 360 69 167 q 441 763 69 763 q 572 752 504 763 l 572 1122 l 656 1122 l 656 0 l 584 0 l 578 82 l 572 82 q 482 13 536 39 q 363 -12 428 -12 m 378 61 q 487 87 435 61 q 572 165 538 113 l 572 678 q 509 688 545 684 q 439 692 472 692 q 226 615 296 692 q 156 369 156 538 q 214 131 156 201 q 378 61 272 61 m 917 72 l 1349 72 l 1349 0 l 810 0 l 810 51 l 1234 681 l 817 681 l 817 752 l 1342 752 l 1342 701 l 917 72 m 1204 1122 l 1276 1122 l 1120 874 l 1040 874 l 885 1122 l 956 1122 l 1081 919 l 1204 1122 z "},"e":{"ha":701,"x_min":69,"x_max":643,"o":"m 643 346 l 155 346 q 188 178 158 242 q 275 87 218 115 q 420 58 333 58 q 607 90 502 58 l 607 19 q 411 -13 505 -13 q 155 80 241 -13 q 69 376 69 173 q 147 667 69 572 q 363 763 224 763 q 571 668 499 763 q 643 375 643 573 l 643 346 m 362 698 q 211 630 265 698 q 155 409 158 563 l 561 409 q 508 631 558 563 q 362 698 458 698 z "},"é":{"ha":701,"x_min":69,"x_max":643,"o":"m 643 346 l 155 346 q 188 178 158 242 q 275 87 218 115 q 420 58 333 58 q 607 90 502 58 l 607 19 q 411 -13 505 -13 q 155 80 241 -13 q 69 376 69 173 q 147 667 69 572 q 363 763 224 763 q 571 668 499 763 q 643 375 643 573 l 643 346 m 362 698 q 211 630 265 698 q 155 409 158 563 l 561 409 q 508 631 558 563 q 362 698 458 698 m 324 874 l 471 1122 l 563 1122 l 401 874 l 324 874 z "},"ĕ":{"ha":701,"x_min":69,"x_max":643,"o":"m 643 346 l 155 346 q 188 178 158 242 q 275 87 218 115 q 420 58 333 58 q 607 90 502 58 l 607 19 q 411 -13 505 -13 q 155 80 241 -13 q 69 376 69 173 q 147 667 69 572 q 363 763 224 763 q 571 668 499 763 q 643 375 643 573 l 643 346 m 362 698 q 211 630 265 698 q 155 409 158 563 l 561 409 q 508 631 558 563 q 362 698 458 698 m 363 881 q 221 939 273 881 q 165 1103 169 997 l 225 1103 q 264 978 231 1020 q 363 936 298 936 q 461 978 428 936 q 499 1103 494 1020 l 559 1103 q 504 939 554 997 q 363 881 453 881 z "},"ě":{"ha":701,"x_min":69,"x_max":643,"o":"m 643 346 l 155 346 q 188 178 158 242 q 275 87 218 115 q 420 58 333 58 q 607 90 502 58 l 607 19 q 411 -13 505 -13 q 155 80 241 -13 q 69 376 69 173 q 147 667 69 572 q 363 763 224 763 q 571 668 499 763 q 643 375 643 573 l 643 346 m 362 698 q 211 630 265 698 q 155 409 158 563 l 561 409 q 508 631 558 563 q 362 698 458 698 m 486 1122 l 558 1122 l 402 874 l 322 874 l 167 1122 l 238 1122 l 363 919 l 486 1122 z "},"ḝ":{"ha":701,"x_min":69,"x_max":643,"o":"m 363 881 q 221 939 273 881 q 165 1103 169 997 l 225 1103 q 264 978 231 1020 q 363 936 298 936 q 461 978 428 936 q 499 1103 494 1020 l 559 1103 q 504 939 554 997 q 363 881 453 881 m 643 346 l 155 346 q 188 178 158 242 q 275 87 218 115 q 420 58 333 58 q 607 90 502 58 l 607 19 q 411 -13 505 -13 l 391 -13 l 391 -75 q 470 -107 443 -80 q 498 -179 498 -134 q 463 -256 498 -228 q 364 -284 428 -284 q 302 -277 333 -284 q 249 -259 271 -271 l 249 -210 q 364 -237 303 -237 q 443 -177 443 -237 q 363 -115 443 -115 l 338 -115 l 338 -8 q 137 103 204 10 q 69 376 69 196 q 147 667 69 572 q 363 763 224 763 q 571 668 499 763 q 643 375 643 573 l 643 346 m 362 698 q 211 630 265 698 q 155 409 158 563 l 561 409 q 508 631 558 563 q 362 698 458 698 z "},"ê":{"ha":701,"x_min":69,"x_max":643,"o":"m 643 346 l 155 346 q 188 178 158 242 q 275 87 218 115 q 420 58 333 58 q 607 90 502 58 l 607 19 q 411 -13 505 -13 q 155 80 241 -13 q 69 376 69 173 q 147 667 69 572 q 363 763 224 763 q 571 668 499 763 q 643 375 643 573 l 643 346 m 362 698 q 211 630 265 698 q 155 409 158 563 l 561 409 q 508 631 558 563 q 362 698 458 698 m 556 874 l 483 874 l 363 1075 l 241 874 l 169 874 l 322 1122 l 402 1122 l 556 874 z "},"ế":{"ha":701,"x_min":69,"x_max":711,"o":"m 643 346 l 155 346 q 188 178 158 242 q 275 87 218 115 q 420 58 333 58 q 607 90 502 58 l 607 19 q 411 -13 505 -13 q 155 80 241 -13 q 69 376 69 173 q 147 667 69 572 q 363 763 224 763 q 571 668 499 763 q 643 375 643 573 l 643 346 m 362 698 q 211 630 265 698 q 155 409 158 563 l 561 409 q 508 631 558 563 q 362 698 458 698 m 628 1297 l 711 1297 l 573 1108 l 506 1108 l 628 1297 m 322 1122 l 402 1122 l 556 874 l 483 874 l 363 1075 l 241 874 l 169 874 l 322 1122 z "},"ệ":{"ha":701,"x_min":69,"x_max":643,"o":"m 643 346 l 155 346 q 188 178 158 242 q 275 87 218 115 q 420 58 333 58 q 607 90 502 58 l 607 19 q 411 -13 505 -13 q 155 80 241 -13 q 69 376 69 173 q 147 667 69 572 q 363 763 224 763 q 571 668 499 763 q 643 375 643 573 l 643 346 m 362 698 q 211 630 265 698 q 155 409 158 563 l 561 409 q 508 631 558 563 q 362 698 458 698 m 362 -235 q 319 -219 335 -235 q 303 -178 303 -203 q 319 -135 303 -151 q 362 -119 335 -119 q 405 -135 389 -119 q 421 -178 421 -151 q 405 -219 421 -204 q 362 -235 389 -235 m 556 874 l 483 874 l 363 1075 l 241 874 l 169 874 l 322 1122 l 402 1122 l 556 874 z "},"ề":{"ha":701,"x_min":69,"x_max":643,"o":"m 643 346 l 155 346 q 188 178 158 242 q 275 87 218 115 q 420 58 333 58 q 607 90 502 58 l 607 19 q 411 -13 505 -13 q 155 80 241 -13 q 69 376 69 173 q 147 667 69 572 q 363 763 224 763 q 571 668 499 763 q 643 375 643 573 l 643 346 m 362 698 q 211 630 265 698 q 155 409 158 563 l 561 409 q 508 631 558 563 q 362 698 458 698 m 585 1108 l 518 1108 l 380 1297 l 463 1297 l 585 1108 m 322 1122 l 402 1122 l 556 874 l 483 874 l 363 1075 l 241 874 l 169 874 l 322 1122 z "},"ể":{"ha":701,"x_min":69,"x_max":672,"o":"m 643 346 l 155 346 q 188 178 158 242 q 275 87 218 115 q 420 58 333 58 q 607 90 502 58 l 607 19 q 411 -13 505 -13 q 155 80 241 -13 q 69 376 69 173 q 147 667 69 572 q 363 763 224 763 q 571 668 499 763 q 643 375 643 573 l 643 346 m 362 698 q 211 630 265 698 q 155 409 158 563 l 561 409 q 508 631 558 563 q 362 698 458 698 m 538 1300 q 639 1280 606 1300 q 672 1224 672 1259 q 656 1184 672 1198 q 610 1157 640 1170 q 572 1135 585 1145 q 558 1108 560 1126 l 501 1108 q 512 1142 502 1128 q 535 1163 522 1155 q 570 1181 548 1171 q 605 1199 593 1190 q 616 1221 616 1208 q 598 1246 616 1238 q 535 1255 579 1255 q 400 1231 464 1255 l 400 1276 q 463 1294 427 1288 q 538 1300 499 1300 m 322 1122 l 402 1122 l 556 874 l 483 874 l 363 1075 l 241 874 l 169 874 l 322 1122 z "},"ễ":{"ha":701,"x_min":69,"x_max":643,"o":"m 643 346 l 155 346 q 188 178 158 242 q 275 87 218 115 q 420 58 333 58 q 607 90 502 58 l 607 19 q 411 -13 505 -13 q 155 80 241 -13 q 69 376 69 173 q 147 667 69 572 q 363 763 224 763 q 571 668 499 763 q 643 375 643 573 l 643 346 m 362 698 q 211 630 265 698 q 155 409 158 563 l 561 409 q 508 631 558 563 q 362 698 458 698 m 461 1210 q 520 1222 494 1210 q 572 1258 547 1234 l 572 1199 q 460 1156 530 1156 q 411 1163 434 1156 q 351 1183 388 1169 q 303 1201 323 1195 q 263 1208 283 1208 q 204 1196 231 1208 q 153 1159 177 1184 l 153 1219 q 264 1263 194 1263 q 313 1256 290 1263 q 373 1235 336 1249 q 422 1217 401 1223 q 461 1210 442 1210 m 322 1115 l 403 1115 l 558 874 l 485 874 l 363 1071 l 240 874 l 166 874 l 322 1115 z "},"ȅ":{"ha":701,"x_min":69,"x_max":643,"o":"m 643 346 l 155 346 q 188 178 158 242 q 275 87 218 115 q 420 58 333 58 q 607 90 502 58 l 607 19 q 411 -13 505 -13 q 155 80 241 -13 q 69 376 69 173 q 147 667 69 572 q 363 763 224 763 q 571 668 499 763 q 643 375 643 573 l 643 346 m 362 698 q 211 630 265 698 q 155 409 158 563 l 561 409 q 508 631 558 563 q 362 698 458 698 m 217 874 l 115 1122 l 191 1122 l 285 874 l 217 874 m 439 874 l 337 1122 l 412 1122 l 506 874 l 439 874 z "},"ë":{"ha":701,"x_min":69,"x_max":643,"o":"m 643 346 l 155 346 q 188 178 158 242 q 275 87 218 115 q 420 58 333 58 q 607 90 502 58 l 607 19 q 411 -13 505 -13 q 155 80 241 -13 q 69 376 69 173 q 147 667 69 572 q 363 763 224 763 q 571 668 499 763 q 643 375 643 573 l 643 346 m 362 698 q 211 630 265 698 q 155 409 158 563 l 561 409 q 508 631 558 563 q 362 698 458 698 m 217 930 q 174 945 190 930 q 158 987 158 960 q 174 1030 158 1013 q 217 1046 190 1046 q 259 1030 243 1046 q 276 987 276 1013 q 260 945 276 960 q 217 930 244 930 m 508 930 q 465 945 481 930 q 449 987 449 960 q 465 1030 449 1013 q 508 1046 481 1046 q 551 1030 535 1046 q 567 987 567 1013 q 551 945 567 960 q 508 930 535 930 z "},"ė":{"ha":701,"x_min":69,"x_max":643,"o":"m 643 346 l 155 346 q 188 178 158 242 q 275 87 218 115 q 420 58 333 58 q 607 90 502 58 l 607 19 q 411 -13 505 -13 q 155 80 241 -13 q 69 376 69 173 q 147 667 69 572 q 363 763 224 763 q 571 668 499 763 q 643 375 643 573 l 643 346 m 362 698 q 211 630 265 698 q 155 409 158 563 l 561 409 q 508 631 558 563 q 362 698 458 698 m 362 929 q 316 944 333 929 q 299 987 299 960 q 316 1030 299 1014 q 362 1047 333 1047 q 408 1030 391 1047 q 424 987 424 1014 q 408 944 424 960 q 362 929 392 929 z "},"ẹ":{"ha":701,"x_min":69,"x_max":643,"o":"m 643 346 l 155 346 q 188 178 158 242 q 275 87 218 115 q 420 58 333 58 q 607 90 502 58 l 607 19 q 411 -13 505 -13 q 155 80 241 -13 q 69 376 69 173 q 147 667 69 572 q 363 763 224 763 q 571 668 499 763 q 643 375 643 573 l 643 346 m 362 698 q 211 630 265 698 q 155 409 158 563 l 561 409 q 508 631 558 563 q 362 698 458 698 m 362 -235 q 319 -219 335 -235 q 303 -178 303 -203 q 319 -135 303 -151 q 362 -119 335 -119 q 405 -135 389 -119 q 421 -178 421 -151 q 405 -219 421 -204 q 362 -235 389 -235 z "},"è":{"ha":701,"x_min":69,"x_max":643,"o":"m 643 346 l 155 346 q 188 178 158 242 q 275 87 218 115 q 420 58 333 58 q 607 90 502 58 l 607 19 q 411 -13 505 -13 q 155 80 241 -13 q 69 376 69 173 q 147 667 69 572 q 363 763 224 763 q 571 668 499 763 q 643 375 643 573 l 643 346 m 362 698 q 211 630 265 698 q 155 409 158 563 l 561 409 q 508 631 558 563 q 362 698 458 698 m 324 874 l 162 1122 l 253 1122 l 401 874 l 324 874 z "},"ẻ":{"ha":701,"x_min":69,"x_max":643,"o":"m 643 346 l 155 346 q 188 178 158 242 q 275 87 218 115 q 420 58 333 58 q 607 90 502 58 l 607 19 q 411 -13 505 -13 q 155 80 241 -13 q 69 376 69 173 q 147 667 69 572 q 363 763 224 763 q 571 668 499 763 q 643 375 643 573 l 643 346 m 362 698 q 211 630 265 698 q 155 409 158 563 l 561 409 q 508 631 558 563 q 362 698 458 698 m 333 874 q 344 919 334 900 q 366 949 353 938 q 400 976 379 961 q 433 1004 423 992 q 444 1033 444 1015 q 424 1070 444 1058 q 359 1082 403 1082 q 303 1078 333 1082 q 251 1065 274 1074 l 251 1114 q 303 1126 273 1122 q 360 1131 333 1131 q 466 1106 431 1131 q 501 1036 501 1082 q 486 986 501 1005 q 444 949 472 968 q 405 915 418 931 q 391 874 392 899 l 333 874 z "},"ȇ":{"ha":701,"x_min":69,"x_max":643,"o":"m 643 346 l 155 346 q 188 178 158 242 q 275 87 218 115 q 420 58 333 58 q 607 90 502 58 l 607 19 q 411 -13 505 -13 q 155 80 241 -13 q 69 376 69 173 q 147 667 69 572 q 363 763 224 763 q 571 668 499 763 q 643 375 643 573 l 643 346 m 362 698 q 211 630 265 698 q 155 409 158 563 l 561 409 q 508 631 558 563 q 362 698 458 698 m 165 893 q 220 1058 169 1001 q 361 1115 270 1115 q 503 1057 451 1115 q 559 893 554 999 l 499 893 q 361 1060 489 1060 q 263 1018 296 1060 q 225 893 229 976 l 165 893 z "},"ē":{"ha":701,"x_min":69,"x_max":643,"o":"m 643 346 l 155 346 q 188 178 158 242 q 275 87 218 115 q 420 58 333 58 q 607 90 502 58 l 607 19 q 411 -13 505 -13 q 155 80 241 -13 q 69 376 69 173 q 147 667 69 572 q 363 763 224 763 q 571 668 499 763 q 643 375 643 573 l 643 346 m 362 698 q 211 630 265 698 q 155 409 158 563 l 561 409 q 508 631 558 563 q 362 698 458 698 m 155 958 l 155 1018 l 569 1018 l 569 958 l 155 958 z "},"ḗ":{"ha":701,"x_min":69,"x_max":643,"o":"m 643 346 l 155 346 q 188 178 158 242 q 275 87 218 115 q 420 58 333 58 q 607 90 502 58 l 607 19 q 411 -13 505 -13 q 155 80 241 -13 q 69 376 69 173 q 147 667 69 572 q 363 763 224 763 q 571 668 499 763 q 643 375 643 573 l 643 346 m 362 698 q 211 630 265 698 q 155 409 158 563 l 561 409 q 508 631 558 563 q 362 698 458 698 m 155 958 l 155 1018 l 569 1018 l 569 958 l 155 958 m 324 1117 l 446 1310 l 538 1310 l 400 1117 l 324 1117 z "},"ḕ":{"ha":701,"x_min":69,"x_max":643,"o":"m 643 346 l 155 346 q 188 178 158 242 q 275 87 218 115 q 420 58 333 58 q 607 90 502 58 l 607 19 q 411 -13 505 -13 q 155 80 241 -13 q 69 376 69 173 q 147 667 69 572 q 363 763 224 763 q 571 668 499 763 q 643 375 643 573 l 643 346 m 362 698 q 211 630 265 698 q 155 409 158 563 l 561 409 q 508 631 558 563 q 362 698 458 698 m 155 958 l 155 1018 l 569 1018 l 569 958 l 155 958 m 324 1117 l 186 1310 l 278 1310 l 401 1117 l 324 1117 z "},"ę":{"ha":701,"x_min":69,"x_max":643,"o":"m 643 346 l 155 346 q 188 178 158 242 q 275 87 218 115 q 420 58 333 58 q 607 90 502 58 l 607 19 q 457 -61 499 -17 q 415 -156 415 -106 q 438 -215 415 -194 q 504 -237 462 -237 q 607 -208 555 -237 l 607 -256 q 556 -277 584 -269 q 499 -284 527 -284 q 395 -251 433 -284 q 358 -161 358 -218 q 380 -79 358 -117 q 445 -12 401 -41 q 411 -13 423 -13 q 155 80 241 -13 q 69 376 69 173 q 147 667 69 572 q 363 763 224 763 q 571 668 499 763 q 643 375 643 573 l 643 346 m 362 697 q 211 629 265 697 q 155 408 158 562 l 561 408 q 508 629 558 562 q 362 697 458 697 z "},"ẽ":{"ha":701,"x_min":69,"x_max":643,"o":"m 643 346 l 155 346 q 188 178 158 242 q 275 87 218 115 q 420 58 333 58 q 607 90 502 58 l 607 19 q 411 -13 505 -13 q 155 80 241 -13 q 69 376 69 173 q 147 667 69 572 q 363 763 224 763 q 571 668 499 763 q 643 375 643 573 l 643 346 m 362 698 q 211 630 265 698 q 155 409 158 563 l 561 409 q 508 631 558 563 q 362 698 458 698 m 458 944 q 409 952 433 944 q 352 974 386 959 q 302 993 322 987 q 265 999 283 999 q 206 987 232 999 q 155 949 180 975 l 155 1014 q 265 1059 197 1059 q 315 1051 291 1059 q 373 1029 340 1044 q 422 1010 402 1016 q 460 1003 441 1003 q 518 1016 492 1003 q 569 1055 544 1028 l 569 990 q 458 944 528 944 z "},"ə":{"ha":701,"x_min":58,"x_max":632,"o":"m 290 765 q 546 672 460 765 q 632 376 632 579 q 555 85 632 181 q 339 -11 478 -11 q 131 84 203 -11 q 58 377 58 179 l 58 406 l 547 406 q 514 574 544 510 q 426 665 483 637 q 281 694 369 694 q 94 662 199 694 l 94 733 q 290 765 197 765 m 340 54 q 490 122 437 54 q 547 343 544 190 l 140 343 q 193 122 143 189 q 340 54 244 54 z "},"f":{"ha":483,"x_min":12,"x_max":515,"o":"m 420 1063 q 285 1022 328 1063 q 242 884 242 980 l 242 752 l 488 752 l 488 681 l 242 681 l 242 0 l 158 0 l 158 681 l 12 681 l 12 752 l 158 752 l 158 880 q 223 1072 158 1007 q 415 1136 288 1136 q 515 1128 467 1136 l 515 1054 q 420 1063 469 1063 z "},"g":{"ha":767,"x_min":69,"x_max":656,"o":"m 330 -319 q 220 -310 278 -319 q 116 -285 163 -301 l 116 -212 q 327 -248 226 -248 q 466 -224 413 -248 q 546 -145 519 -199 q 572 0 572 -91 l 572 79 l 567 79 q 476 14 531 38 q 356 -11 422 -11 q 209 26 273 -11 q 107 146 145 63 q 69 361 69 229 q 163 663 69 563 q 439 763 256 763 q 551 755 494 763 q 656 731 608 747 l 656 11 q 575 -241 656 -163 q 330 -319 495 -319 m 376 63 q 485 88 433 63 q 572 160 538 113 l 572 675 q 507 688 544 683 q 433 692 470 692 q 225 615 294 692 q 156 369 156 538 q 214 132 156 201 q 376 63 272 63 z "},"ǵ":{"ha":767,"x_min":69,"x_max":656,"o":"m 330 -319 q 220 -310 278 -319 q 116 -285 163 -301 l 116 -212 q 327 -248 226 -248 q 466 -224 413 -248 q 546 -145 519 -199 q 572 0 572 -91 l 572 79 l 567 79 q 476 14 531 38 q 356 -11 422 -11 q 209 26 273 -11 q 107 146 145 63 q 69 361 69 229 q 163 663 69 563 q 439 763 256 763 q 551 755 494 763 q 656 731 608 747 l 656 11 q 575 -241 656 -163 q 330 -319 495 -319 m 376 63 q 485 88 433 63 q 572 160 538 113 l 572 675 q 507 688 544 683 q 433 692 470 692 q 225 615 294 692 q 156 369 156 538 q 214 132 156 201 q 376 63 272 63 m 358 874 l 506 1122 l 597 1122 l 435 874 l 358 874 z "},"ğ":{"ha":767,"x_min":69,"x_max":656,"o":"m 330 -319 q 220 -310 278 -319 q 116 -285 163 -301 l 116 -212 q 327 -248 226 -248 q 466 -224 413 -248 q 546 -145 519 -199 q 572 0 572 -91 l 572 79 l 567 79 q 476 14 531 38 q 356 -11 422 -11 q 209 26 273 -11 q 107 146 145 63 q 69 361 69 229 q 163 663 69 563 q 439 763 256 763 q 551 755 494 763 q 656 731 608 747 l 656 11 q 575 -241 656 -163 q 330 -319 495 -319 m 376 63 q 485 88 433 63 q 572 160 538 113 l 572 675 q 507 688 544 683 q 433 692 470 692 q 225 615 294 692 q 156 369 156 538 q 214 132 156 201 q 376 63 272 63 m 398 881 q 256 939 308 881 q 200 1103 204 997 l 260 1103 q 299 978 265 1020 q 398 936 333 936 q 496 978 463 936 q 533 1103 529 1020 l 594 1103 q 539 939 589 997 q 398 881 488 881 z "},"ǧ":{"ha":767,"x_min":69,"x_max":656,"o":"m 330 -319 q 220 -310 278 -319 q 116 -285 163 -301 l 116 -212 q 327 -248 226 -248 q 466 -224 413 -248 q 546 -145 519 -199 q 572 0 572 -91 l 572 79 l 567 79 q 476 14 531 38 q 356 -11 422 -11 q 209 26 273 -11 q 107 146 145 63 q 69 361 69 229 q 163 663 69 563 q 439 763 256 763 q 551 755 494 763 q 656 731 608 747 l 656 11 q 575 -241 656 -163 q 330 -319 495 -319 m 376 63 q 485 88 433 63 q 572 160 538 113 l 572 675 q 507 688 544 683 q 433 692 470 692 q 225 615 294 692 q 156 369 156 538 q 214 132 156 201 q 376 63 272 63 m 521 1122 l 592 1122 l 437 874 l 357 874 l 201 1122 l 273 1122 l 397 919 l 521 1122 z "},"ĝ":{"ha":767,"x_min":69,"x_max":656,"o":"m 330 -319 q 220 -310 278 -319 q 116 -285 163 -301 l 116 -212 q 327 -248 226 -248 q 466 -224 413 -248 q 546 -145 519 -199 q 572 0 572 -91 l 572 79 l 567 79 q 476 14 531 38 q 356 -11 422 -11 q 209 26 273 -11 q 107 146 145 63 q 69 361 69 229 q 163 663 69 563 q 439 763 256 763 q 551 755 494 763 q 656 731 608 747 l 656 11 q 575 -241 656 -163 q 330 -319 495 -319 m 376 63 q 485 88 433 63 q 572 160 538 113 l 572 675 q 507 688 544 683 q 433 692 470 692 q 225 615 294 692 q 156 369 156 538 q 214 132 156 201 q 376 63 272 63 m 590 874 l 518 874 l 397 1075 l 276 874 l 203 874 l 357 1122 l 437 1122 l 590 874 z "},"ģ":{"ha":767,"x_min":69,"x_max":656,"o":"m 330 -319 q 220 -310 278 -319 q 116 -285 163 -301 l 116 -212 q 327 -248 226 -248 q 466 -224 413 -248 q 546 -145 519 -199 q 572 0 572 -91 l 572 79 l 567 79 q 476 14 531 38 q 356 -11 422 -11 q 209 26 273 -11 q 107 146 145 63 q 69 361 69 229 q 163 663 69 563 q 439 763 256 763 q 551 755 494 763 q 656 731 608 747 l 656 11 q 575 -241 656 -163 q 330 -319 495 -319 m 376 63 q 485 88 433 63 q 572 160 538 113 l 572 675 q 507 688 544 683 q 433 692 470 692 q 225 615 294 692 q 156 369 156 538 q 214 132 156 201 q 376 63 272 63 m 399 1031 q 442 1017 426 1031 q 457 980 457 1003 q 441 943 457 957 q 399 929 426 929 q 353 947 369 929 q 337 998 337 964 q 346 1061 337 1026 q 372 1128 356 1097 l 425 1128 q 399 1031 403 1076 z "},"ġ":{"ha":767,"x_min":69,"x_max":656,"o":"m 330 -319 q 220 -310 278 -319 q 116 -285 163 -301 l 116 -212 q 327 -248 226 -248 q 466 -224 413 -248 q 546 -145 519 -199 q 572 0 572 -91 l 572 79 l 567 79 q 476 14 531 38 q 356 -11 422 -11 q 209 26 273 -11 q 107 146 145 63 q 69 361 69 229 q 163 663 69 563 q 439 763 256 763 q 551 755 494 763 q 656 731 608 747 l 656 11 q 575 -241 656 -163 q 330 -319 495 -319 m 376 63 q 485 88 433 63 q 572 160 538 113 l 572 675 q 507 688 544 683 q 433 692 470 692 q 225 615 294 692 q 156 369 156 538 q 214 132 156 201 q 376 63 272 63 m 397 929 q 351 944 367 929 q 334 987 334 960 q 351 1030 334 1014 q 397 1047 367 1047 q 442 1030 426 1047 q 459 987 459 1014 q 443 944 459 960 q 397 929 426 929 z "},"ḡ":{"ha":767,"x_min":69,"x_max":656,"o":"m 330 -319 q 220 -310 278 -319 q 116 -285 163 -301 l 116 -212 q 327 -248 226 -248 q 466 -224 413 -248 q 546 -145 519 -199 q 572 0 572 -91 l 572 79 l 567 79 q 476 14 531 38 q 356 -11 422 -11 q 209 26 273 -11 q 107 146 145 63 q 69 361 69 229 q 163 663 69 563 q 439 763 256 763 q 551 755 494 763 q 656 731 608 747 l 656 11 q 575 -241 656 -163 q 330 -319 495 -319 m 376 63 q 485 88 433 63 q 572 160 538 113 l 572 675 q 507 688 544 683 q 433 692 470 692 q 225 615 294 692 q 156 369 156 538 q 214 132 156 201 q 376 63 272 63 m 190 958 l 190 1018 l 604 1018 l 604 958 l 190 958 z "},"h":{"ha":774,"x_min":110,"x_max":673,"o":"m 110 1122 l 194 1122 l 194 666 l 199 666 q 307 739 246 715 q 438 763 368 763 q 610 702 547 763 q 673 505 673 641 l 673 0 l 590 0 l 590 503 q 545 644 590 601 q 419 686 501 686 q 296 659 357 686 q 194 577 235 633 l 194 0 l 110 0 l 110 1122 z "},"ħ":{"ha":774,"x_min":6,"x_max":673,"o":"m 438 763 q 610 702 547 763 q 673 505 673 641 l 673 0 l 590 0 l 590 503 q 545 644 590 601 q 419 686 501 686 q 296 659 357 686 q 194 577 235 633 l 194 0 l 110 0 l 110 910 l 6 910 l 6 972 l 110 972 l 110 1122 l 194 1122 l 194 972 l 442 972 l 442 910 l 194 910 l 194 666 l 199 666 q 307 739 246 715 q 438 763 368 763 z "},"ḫ":{"ha":774,"x_min":110,"x_max":673,"o":"m 110 1122 l 194 1122 l 194 666 l 199 666 q 307 739 246 715 q 438 763 368 763 q 610 702 547 763 q 673 505 673 641 l 673 0 l 590 0 l 590 503 q 545 644 590 601 q 419 686 501 686 q 296 659 357 686 q 194 577 235 633 l 194 0 l 110 0 l 110 1122 m 394 -286 q 250 -238 302 -286 q 196 -109 197 -190 l 256 -109 q 394 -231 262 -231 q 529 -109 525 -231 l 590 -109 q 537 -239 588 -192 q 394 -286 486 -286 z "},"ĥ":{"ha":774,"x_min":110,"x_max":673,"o":"m 110 1122 l 194 1122 l 194 666 l 199 666 q 307 739 246 715 q 438 763 368 763 q 610 702 547 763 q 673 505 673 641 l 673 0 l 590 0 l 590 503 q 545 644 590 601 q 419 686 501 686 q 296 659 357 686 q 194 577 235 633 l 194 0 l 110 0 l 110 1122 m 601 1186 l 522 1186 l 392 1338 l 263 1186 l 183 1186 l 352 1379 l 433 1379 l 601 1186 z "},"ḥ":{"ha":774,"x_min":110,"x_max":673,"o":"m 110 1122 l 194 1122 l 194 666 l 199 666 q 307 739 246 715 q 438 763 368 763 q 610 702 547 763 q 673 505 673 641 l 673 0 l 590 0 l 590 503 q 545 644 590 601 q 419 686 501 686 q 296 659 357 686 q 194 577 235 633 l 194 0 l 110 0 l 110 1122 m 392 -235 q 350 -219 366 -235 q 333 -178 333 -203 q 350 -135 333 -151 q 392 -119 366 -119 q 435 -135 419 -119 q 451 -178 451 -151 q 435 -219 451 -204 q 392 -235 419 -235 z "},"i":{"ha":305,"x_min":90,"x_max":215,"o":"m 110 0 l 110 752 l 194 752 l 194 0 l 110 0 m 152 929 q 106 944 123 929 q 90 987 90 960 q 106 1030 90 1014 q 152 1047 123 1047 q 198 1030 181 1047 q 215 987 215 1014 q 198 944 215 960 q 152 929 182 929 z "},"ı":{"ha":305,"x_min":110,"x_max":194,"o":"m 110 0 l 110 752 l 194 752 l 194 0 l 110 0 z "},"í":{"ha":305,"x_min":110,"x_max":353,"o":"m 110 0 l 110 752 l 194 752 l 194 0 l 110 0 m 114 874 l 261 1122 l 353 1122 l 191 874 l 114 874 z "},"ĭ":{"ha":305,"x_min":-44,"x_max":349,"o":"m 110 0 l 110 752 l 194 752 l 194 0 l 110 0 m 153 881 q 11 939 63 881 q -44 1103 -40 997 l 15 1103 q 55 978 21 1020 q 153 936 88 936 q 252 978 219 936 q 289 1103 285 1020 l 349 1103 q 294 939 344 997 q 153 881 244 881 z "},"î":{"ha":305,"x_min":-41,"x_max":346,"o":"m 110 0 l 110 752 l 194 752 l 194 0 l 110 0 m 346 874 l 274 874 l 153 1075 l 31 874 l -41 874 l 113 1122 l 192 1122 l 346 874 z "},"ȉ":{"ha":305,"x_min":-94,"x_max":297,"o":"m 110 0 l 110 752 l 194 752 l 194 0 l 110 0 m 8 874 l -94 1122 l -19 1122 l 76 874 l 8 874 m 229 874 l 127 1122 l 202 1122 l 297 874 l 229 874 z "},"ï":{"ha":305,"x_min":-52,"x_max":357,"o":"m 110 0 l 110 752 l 194 752 l 194 0 l 110 0 m 7 930 q -36 945 -20 930 q -52 987 -52 960 q -36 1030 -52 1013 q 7 1046 -20 1046 q 50 1030 33 1046 q 66 987 66 1013 q 50 945 66 960 q 7 930 34 930 m 298 930 q 255 945 271 930 q 239 987 239 960 q 255 1030 239 1013 q 298 1046 272 1046 q 341 1030 325 1046 q 357 987 357 1013 q 341 945 357 960 q 298 930 325 930 z "},"ḯ":{"ha":305,"x_min":-52,"x_max":357,"o":"m 110 0 l 110 752 l 194 752 l 194 0 l 110 0 m 7 930 q -36 945 -20 930 q -52 987 -52 960 q -36 1030 -52 1013 q 7 1046 -20 1046 q 50 1030 33 1046 q 66 987 66 1013 q 50 945 66 960 q 7 930 34 930 m 298 930 q 255 945 271 930 q 239 987 239 960 q 255 1030 239 1013 q 298 1046 272 1046 q 341 1030 325 1046 q 357 987 357 1013 q 341 945 357 960 q 298 930 325 930 m 128 1152 l 250 1345 l 342 1345 l 204 1152 l 128 1152 z "},"ị":{"ha":305,"x_min":90,"x_max":215,"o":"m 110 0 l 110 752 l 194 752 l 194 0 l 110 0 m 152 929 q 106 944 123 929 q 90 987 90 960 q 106 1030 90 1014 q 152 1047 123 1047 q 198 1030 181 1047 q 215 987 215 1014 q 198 944 215 960 q 152 929 182 929 m 152 -235 q 109 -219 126 -235 q 93 -178 93 -203 q 109 -135 93 -151 q 152 -119 126 -119 q 195 -135 179 -119 q 211 -178 211 -151 q 195 -219 211 -204 q 152 -235 179 -235 z "},"ì":{"ha":305,"x_min":-48,"x_max":194,"o":"m 110 0 l 110 752 l 194 752 l 194 0 l 110 0 m 114 874 l -48 1122 l 44 1122 l 191 874 l 114 874 z "},"ỉ":{"ha":305,"x_min":42,"x_max":291,"o":"m 110 0 l 110 752 l 194 752 l 194 0 l 110 0 m 124 874 q 134 919 124 900 q 157 949 144 938 q 190 976 169 961 q 224 1004 213 992 q 234 1033 234 1015 q 214 1070 234 1058 q 149 1082 194 1082 q 94 1078 123 1082 q 42 1065 65 1074 l 42 1114 q 93 1126 63 1122 q 151 1131 123 1131 q 256 1106 222 1131 q 291 1036 291 1082 q 276 986 291 1005 q 234 949 262 968 q 195 915 208 931 q 181 874 182 899 l 124 874 z "},"ȋ":{"ha":305,"x_min":-44,"x_max":349,"o":"m 110 0 l 110 752 l 194 752 l 194 0 l 110 0 m -44 893 q 10 1058 -40 1001 q 151 1115 60 1115 q 293 1057 242 1115 q 349 893 344 999 l 289 893 q 151 1060 279 1060 q 53 1018 86 1060 q 15 893 19 976 l -44 893 z "},"ī":{"ha":305,"x_min":-55,"x_max":360,"o":"m 110 0 l 110 752 l 194 752 l 194 0 l 110 0 m -55 958 l -55 1018 l 360 1018 l 360 958 l -55 958 z "},"į":{"ha":305,"x_min":10,"x_max":260,"o":"m 152 929 q 106 944 123 929 q 90 987 90 960 q 106 1030 90 1014 q 152 1047 123 1047 q 198 1030 181 1047 q 215 987 215 1014 q 198 944 215 960 q 152 929 182 929 m 156 -237 q 260 -208 208 -237 l 260 -256 q 208 -277 236 -269 q 152 -284 180 -284 q 48 -251 85 -284 q 10 -161 10 -218 q 34 -75 10 -115 q 110 1 58 -35 l 110 752 l 194 752 l 194 0 q 97 -75 126 -38 q 67 -156 67 -112 q 91 -216 67 -194 q 156 -237 115 -237 z "},"ĩ":{"ha":305,"x_min":-55,"x_max":360,"o":"m 110 0 l 110 752 l 194 752 l 194 0 l 110 0 m 249 944 q 200 952 223 944 q 142 974 176 959 q 93 993 112 987 q 55 999 74 999 q -4 987 22 999 q -55 949 -30 975 l -55 1014 q 56 1059 -13 1059 q 106 1051 81 1059 q 163 1029 130 1044 q 212 1010 192 1016 q 250 1003 231 1003 q 309 1016 283 1003 q 360 1055 335 1028 l 360 990 q 249 944 318 944 z "},"j":{"ha":305,"x_min":-17,"x_max":215,"o":"m -17 -282 q 81 -97 51 -189 q 110 117 110 -5 l 110 752 l 194 752 l 194 122 q 158 -113 194 -11 q 40 -321 122 -215 l -17 -282 m 152 933 q 106 948 123 933 q 90 990 90 963 q 106 1034 90 1017 q 152 1050 123 1050 q 198 1034 181 1050 q 215 990 215 1017 q 198 948 215 963 q 152 933 182 933 z "},"ȷ":{"ha":305,"x_min":-17,"x_max":194,"o":"m -17 -282 q 81 -97 51 -189 q 110 117 110 -5 l 110 752 l 194 752 l 194 122 q 158 -113 194 -11 q 40 -321 122 -215 l -17 -282 z "},"ĵ":{"ha":305,"x_min":-41,"x_max":346,"o":"m -17 -282 q 81 -97 51 -189 q 110 117 110 -5 l 110 752 l 194 752 l 194 122 q 158 -113 194 -11 q 40 -321 122 -215 l -17 -282 m 346 877 l 274 877 l 153 1078 l 31 877 l -41 877 l 113 1126 l 192 1126 l 346 877 z "},"k":{"ha":697,"x_min":110,"x_max":709,"o":"m 613 0 l 331 349 l 194 349 l 194 0 l 110 0 l 110 1122 l 194 1122 l 194 421 l 330 421 l 592 752 l 687 752 l 400 386 l 709 0 l 613 0 z "},"ķ":{"ha":697,"x_min":110,"x_max":709,"o":"m 613 0 l 331 349 l 194 349 l 194 0 l 110 0 l 110 1122 l 194 1122 l 194 421 l 330 421 l 592 752 l 687 752 l 400 386 l 709 0 l 613 0 m 373 -119 q 419 -137 403 -119 q 435 -188 435 -154 q 426 -252 435 -217 q 399 -318 417 -287 l 347 -318 q 373 -222 370 -263 q 331 -207 346 -221 q 315 -170 315 -193 q 331 -133 315 -147 q 373 -119 346 -119 z "},"ĸ":{"ha":697,"x_min":110,"x_max":709,"o":"m 613 0 l 331 349 l 194 349 l 194 0 l 110 0 l 110 752 l 194 752 l 194 421 l 330 421 l 592 752 l 687 752 l 400 386 l 709 0 l 613 0 z "},"l":{"ha":305,"x_min":110,"x_max":194,"o":"m 110 0 l 110 1122 l 194 1122 l 194 0 l 110 0 z "},"ĺ":{"ha":305,"x_min":110,"x_max":328,"o":"m 110 0 l 110 1122 l 194 1122 l 194 0 l 110 0 m 114 1186 l 236 1379 l 328 1379 l 190 1186 l 114 1186 z "},"ľ":{"ha":305,"x_min":110,"x_max":340,"o":"m 110 0 l 110 1122 l 194 1122 l 194 0 l 110 0 m 260 819 q 274 1122 274 935 l 340 1122 q 333 965 340 1044 q 310 819 326 886 l 260 819 z "},"ļ":{"ha":305,"x_min":92,"x_max":213,"o":"m 110 0 l 110 1122 l 194 1122 l 194 0 l 110 0 m 150 -119 q 197 -137 181 -119 q 213 -188 213 -154 q 203 -252 213 -217 q 176 -318 194 -287 l 124 -318 q 150 -222 147 -263 q 108 -207 123 -221 q 92 -170 92 -193 q 108 -133 92 -147 q 150 -119 123 -119 z "},"ŀ":{"ha":349,"x_min":110,"x_max":383,"o":"m 110 0 l 110 1122 l 194 1122 l 194 0 l 110 0 m 320 492 q 274 508 291 492 q 258 550 258 523 q 274 593 258 577 q 320 610 291 610 q 366 593 349 610 q 383 550 383 577 q 366 508 383 523 q 320 492 350 492 z "},"ḷ":{"ha":305,"x_min":93,"x_max":211,"o":"m 110 0 l 110 1122 l 194 1122 l 194 0 l 110 0 m 152 -235 q 109 -219 126 -235 q 93 -178 93 -203 q 109 -135 93 -151 q 152 -119 126 -119 q 195 -135 179 -119 q 211 -178 211 -151 q 195 -219 211 -204 q 152 -235 179 -235 z "},"ǉ":{"ha":610,"x_min":110,"x_max":519,"o":"m 110 0 l 110 1122 l 194 1122 l 194 0 l 110 0 m 288 -282 q 385 -97 356 -189 q 415 117 415 -5 l 415 752 l 499 752 l 499 122 q 463 -113 499 -11 q 344 -321 427 -215 l 288 -282 m 457 933 q 411 948 428 933 q 394 990 394 963 q 411 1034 394 1017 q 457 1050 428 1050 q 503 1034 486 1050 q 519 990 519 1017 q 503 948 519 963 q 457 933 487 933 z "},"ḻ":{"ha":305,"x_min":-35,"x_max":340,"o":"m 110 0 l 110 1122 l 194 1122 l 194 0 l 110 0 m -35 -208 l -35 -148 l 340 -148 l 340 -208 l -35 -208 z "},"ł":{"ha":305,"x_min":-2,"x_max":308,"o":"m 308 578 l 194 490 l 194 0 l 110 0 l 110 425 l 33 365 l -2 414 l 110 501 l 110 1122 l 194 1122 l 194 566 l 273 627 l 308 578 z "},"m":{"ha":1158,"x_min":110,"x_max":1056,"o":"m 835 763 q 997 702 938 763 q 1056 505 1056 641 l 1056 0 l 973 0 l 973 502 q 819 688 973 688 q 713 662 766 688 q 622 579 659 636 q 626 506 626 540 l 626 0 l 544 0 l 544 502 q 505 644 544 601 q 394 688 466 688 q 285 660 340 688 q 194 574 231 632 l 194 0 l 110 0 l 110 752 l 181 752 l 188 665 l 194 665 q 294 738 238 713 q 414 763 351 763 q 601 653 551 763 q 712 737 651 711 q 835 763 773 763 z "},"ṃ":{"ha":1158,"x_min":110,"x_max":1056,"o":"m 835 763 q 997 702 938 763 q 1056 505 1056 641 l 1056 0 l 973 0 l 973 502 q 819 688 973 688 q 713 662 766 688 q 622 579 659 636 q 626 506 626 540 l 626 0 l 544 0 l 544 502 q 505 644 544 601 q 394 688 466 688 q 285 660 340 688 q 194 574 231 632 l 194 0 l 110 0 l 110 752 l 181 752 l 188 665 l 194 665 q 294 738 238 713 q 414 763 351 763 q 601 653 551 763 q 712 737 651 711 q 835 763 773 763 m 585 -235 q 543 -219 559 -235 q 526 -178 526 -203 q 543 -135 526 -151 q 585 -119 559 -119 q 628 -135 613 -119 q 644 -178 644 -151 q 628 -219 644 -204 q 585 -235 613 -235 z "},"n":{"ha":774,"x_min":110,"x_max":673,"o":"m 110 752 l 181 752 l 188 665 l 194 665 q 303 738 242 713 q 435 763 365 763 q 610 702 547 763 q 673 504 673 640 l 673 0 l 590 0 l 590 501 q 545 644 590 601 q 419 688 501 688 q 297 661 358 688 q 194 577 236 634 l 194 0 l 110 0 l 110 752 z "},"ń":{"ha":774,"x_min":110,"x_max":673,"o":"m 110 752 l 181 752 l 188 665 l 194 665 q 303 738 242 713 q 435 763 365 763 q 610 702 547 763 q 673 504 673 640 l 673 0 l 590 0 l 590 501 q 545 644 590 601 q 419 688 501 688 q 297 661 358 688 q 194 577 236 634 l 194 0 l 110 0 l 110 752 m 354 874 l 501 1122 l 593 1122 l 431 874 l 354 874 z "},"ŉ":{"ha":774,"x_min":9,"x_max":673,"o":"m 110 752 l 181 752 l 188 665 l 194 665 q 303 738 242 713 q 435 763 365 763 q 610 702 547 763 q 673 504 673 640 l 673 0 l 590 0 l 590 501 q 545 644 590 601 q 419 688 501 688 q 297 661 358 688 q 194 577 236 634 l 194 0 l 110 0 l 110 752 m 67 1128 q 113 1110 97 1128 q 129 1059 129 1093 q 120 995 129 1031 q 94 929 110 960 l 41 929 q 67 1026 64 985 q 24 1041 40 1026 q 9 1078 9 1055 q 24 1114 9 1101 q 67 1128 40 1128 z "},"ň":{"ha":774,"x_min":110,"x_max":673,"o":"m 110 752 l 181 752 l 188 665 l 194 665 q 303 738 242 713 q 435 763 365 763 q 610 702 547 763 q 673 504 673 640 l 673 0 l 590 0 l 590 501 q 545 644 590 601 q 419 688 501 688 q 297 661 358 688 q 194 577 236 634 l 194 0 l 110 0 l 110 752 m 517 1122 l 588 1122 l 433 874 l 353 874 l 197 1122 l 269 1122 l 393 919 l 517 1122 z "},"ņ":{"ha":774,"x_min":110,"x_max":673,"o":"m 110 752 l 181 752 l 188 665 l 194 665 q 303 738 242 713 q 435 763 365 763 q 610 702 547 763 q 673 504 673 640 l 673 0 l 590 0 l 590 501 q 545 644 590 601 q 419 688 501 688 q 297 661 358 688 q 194 577 236 634 l 194 0 l 110 0 l 110 752 m 390 -119 q 437 -137 421 -119 q 453 -188 453 -154 q 443 -252 453 -217 q 417 -318 434 -287 l 365 -318 q 390 -222 388 -263 q 348 -207 363 -221 q 333 -170 333 -193 q 348 -133 333 -147 q 390 -119 363 -119 z "},"ṅ":{"ha":774,"x_min":110,"x_max":673,"o":"m 110 752 l 181 752 l 188 665 l 194 665 q 303 738 242 713 q 435 763 365 763 q 610 702 547 763 q 673 504 673 640 l 673 0 l 590 0 l 590 501 q 545 644 590 601 q 419 688 501 688 q 297 661 358 688 q 194 577 236 634 l 194 0 l 110 0 l 110 752 m 392 929 q 347 944 363 929 q 330 987 330 960 q 347 1030 330 1014 q 392 1047 363 1047 q 438 1030 422 1047 q 455 987 455 1014 q 439 944 455 960 q 392 929 422 929 z "},"ṇ":{"ha":774,"x_min":110,"x_max":673,"o":"m 110 752 l 181 752 l 188 665 l 194 665 q 303 738 242 713 q 435 763 365 763 q 610 702 547 763 q 673 504 673 640 l 673 0 l 590 0 l 590 501 q 545 644 590 601 q 419 688 501 688 q 297 661 358 688 q 194 577 236 634 l 194 0 l 110 0 l 110 752 m 392 -235 q 350 -219 366 -235 q 333 -178 333 -203 q 350 -135 333 -151 q 392 -119 366 -119 q 435 -135 419 -119 q 451 -178 451 -151 q 435 -219 451 -204 q 392 -235 419 -235 z "},"ŋ":{"ha":774,"x_min":110,"x_max":673,"o":"m 462 -282 q 560 -97 530 -189 q 590 117 590 -4 l 590 503 q 545 645 590 602 q 419 688 501 688 q 296 661 357 688 q 194 577 235 633 l 194 0 l 110 0 l 110 752 l 181 752 l 188 665 l 194 665 q 304 739 242 714 q 435 763 365 763 q 610 702 547 763 q 673 505 673 641 l 673 99 q 633 -122 667 -26 q 518 -321 598 -219 l 462 -282 z "},"ǌ":{"ha":1079,"x_min":110,"x_max":989,"o":"m 110 752 l 181 752 l 188 665 l 194 665 q 303 738 242 713 q 435 763 365 763 q 610 702 547 763 q 673 504 673 640 l 673 0 l 590 0 l 590 501 q 545 644 590 601 q 419 688 501 688 q 297 661 358 688 q 194 577 236 634 l 194 0 l 110 0 l 110 752 m 757 -282 q 855 -97 825 -189 q 885 117 885 -5 l 885 752 l 969 752 l 969 122 q 933 -113 969 -11 q 814 -321 897 -215 l 757 -282 m 926 933 q 881 948 897 933 q 864 990 864 963 q 881 1034 864 1017 q 926 1050 897 1050 q 972 1034 956 1050 q 989 990 989 1017 q 973 948 989 963 q 926 933 956 933 z "},"ṉ":{"ha":774,"x_min":110,"x_max":673,"o":"m 110 752 l 181 752 l 188 665 l 194 665 q 303 738 242 713 q 435 763 365 763 q 610 702 547 763 q 673 504 673 640 l 673 0 l 590 0 l 590 501 q 545 644 590 601 q 419 688 501 688 q 297 661 358 688 q 194 577 236 634 l 194 0 l 110 0 l 110 752 m 205 -208 l 205 -148 l 580 -148 l 580 -208 l 205 -208 z "},"ñ":{"ha":774,"x_min":110,"x_max":673,"o":"m 110 752 l 181 752 l 188 665 l 194 665 q 303 738 242 713 q 435 763 365 763 q 610 702 547 763 q 673 504 673 640 l 673 0 l 590 0 l 590 501 q 545 644 590 601 q 419 688 501 688 q 297 661 358 688 q 194 577 236 634 l 194 0 l 110 0 l 110 752 m 489 944 q 440 952 463 944 q 383 974 417 959 q 333 993 352 987 q 295 999 314 999 q 236 987 263 999 q 185 949 210 975 l 185 1014 q 296 1059 227 1059 q 346 1051 322 1059 q 403 1029 370 1044 q 452 1010 433 1016 q 490 1003 472 1003 q 549 1016 523 1003 q 600 1055 575 1028 l 600 990 q 489 944 558 944 z "},"o":{"ha":756,"x_min":69,"x_max":686,"o":"m 378 -13 q 151 82 232 -13 q 69 376 69 176 q 151 668 69 574 q 378 763 232 763 q 605 669 524 763 q 686 376 686 575 q 605 82 686 178 q 378 -13 523 -13 m 378 58 q 543 131 486 58 q 600 374 600 204 q 543 619 600 546 q 378 692 486 692 q 213 620 269 692 q 156 378 156 547 q 213 132 156 206 q 378 58 269 58 z "},"ó":{"ha":756,"x_min":69,"x_max":686,"o":"m 378 -13 q 151 82 232 -13 q 69 376 69 176 q 151 668 69 574 q 378 763 232 763 q 605 669 524 763 q 686 376 686 575 q 605 82 686 178 q 378 -13 523 -13 m 378 58 q 543 131 486 58 q 600 374 600 204 q 543 619 600 546 q 378 692 486 692 q 213 620 269 692 q 156 378 156 547 q 213 132 156 206 q 378 58 269 58 m 340 874 l 487 1122 l 578 1122 l 417 874 l 340 874 z "},"ŏ":{"ha":756,"x_min":69,"x_max":686,"o":"m 378 -13 q 151 82 232 -13 q 69 376 69 176 q 151 668 69 574 q 378 763 232 763 q 605 669 524 763 q 686 376 686 575 q 605 82 686 178 q 378 -13 523 -13 m 378 58 q 543 131 486 58 q 600 374 600 204 q 543 619 600 546 q 378 692 486 692 q 213 620 269 692 q 156 378 156 547 q 213 132 156 206 q 378 58 269 58 m 379 881 q 237 939 289 881 q 181 1103 185 997 l 241 1103 q 280 978 247 1020 q 379 936 314 936 q 477 978 444 936 q 515 1103 510 1020 l 575 1103 q 520 939 570 997 q 379 881 469 881 z "},"ô":{"ha":756,"x_min":69,"x_max":686,"o":"m 378 -13 q 151 82 232 -13 q 69 376 69 176 q 151 668 69 574 q 378 763 232 763 q 605 669 524 763 q 686 376 686 575 q 605 82 686 178 q 378 -13 523 -13 m 378 58 q 543 131 486 58 q 600 374 600 204 q 543 619 600 546 q 378 692 486 692 q 213 620 269 692 q 156 378 156 547 q 213 132 156 206 q 378 58 269 58 m 572 874 l 499 874 l 378 1075 l 257 874 l 185 874 l 338 1122 l 418 1122 l 572 874 z "},"ố":{"ha":756,"x_min":69,"x_max":727,"o":"m 378 -13 q 151 82 232 -13 q 69 376 69 176 q 151 668 69 574 q 378 763 232 763 q 605 669 524 763 q 686 376 686 575 q 605 82 686 178 q 378 -13 523 -13 m 378 58 q 543 131 486 58 q 600 374 600 204 q 543 619 600 546 q 378 692 486 692 q 213 620 269 692 q 156 378 156 547 q 213 132 156 206 q 378 58 269 58 m 644 1297 l 727 1297 l 589 1108 l 522 1108 l 644 1297 m 338 1122 l 418 1122 l 572 874 l 499 874 l 378 1075 l 257 874 l 185 874 l 338 1122 z "},"ộ":{"ha":756,"x_min":69,"x_max":686,"o":"m 378 -13 q 151 82 232 -13 q 69 376 69 176 q 151 668 69 574 q 378 763 232 763 q 605 669 524 763 q 686 376 686 575 q 605 82 686 178 q 378 -13 523 -13 m 378 58 q 543 131 486 58 q 600 374 600 204 q 543 619 600 546 q 378 692 486 692 q 213 620 269 692 q 156 378 156 547 q 213 132 156 206 q 378 58 269 58 m 378 -235 q 335 -219 351 -235 q 319 -178 319 -203 q 335 -135 319 -151 q 378 -119 351 -119 q 421 -135 405 -119 q 437 -178 437 -151 q 421 -219 437 -204 q 378 -235 405 -235 m 572 874 l 499 874 l 378 1075 l 257 874 l 185 874 l 338 1122 l 418 1122 l 572 874 z "},"ồ":{"ha":756,"x_min":69,"x_max":686,"o":"m 378 -13 q 151 82 232 -13 q 69 376 69 176 q 151 668 69 574 q 378 763 232 763 q 605 669 524 763 q 686 376 686 575 q 605 82 686 178 q 378 -13 523 -13 m 378 58 q 543 131 486 58 q 600 374 600 204 q 543 619 600 546 q 378 692 486 692 q 213 620 269 692 q 156 378 156 547 q 213 132 156 206 q 378 58 269 58 m 601 1108 l 534 1108 l 396 1297 l 478 1297 l 601 1108 m 338 1122 l 418 1122 l 572 874 l 499 874 l 378 1075 l 257 874 l 185 874 l 338 1122 z "},"ổ":{"ha":756,"x_min":69,"x_max":688,"o":"m 378 -13 q 151 82 232 -13 q 69 376 69 176 q 151 668 69 574 q 378 763 232 763 q 605 669 524 763 q 686 376 686 575 q 605 82 686 178 q 378 -13 523 -13 m 378 58 q 543 131 486 58 q 600 374 600 204 q 543 619 600 546 q 378 692 486 692 q 213 620 269 692 q 156 378 156 547 q 213 132 156 206 q 378 58 269 58 m 554 1300 q 655 1280 622 1300 q 688 1224 688 1259 q 672 1184 688 1198 q 626 1157 656 1170 q 588 1135 601 1145 q 574 1108 576 1126 l 517 1108 q 528 1142 518 1128 q 551 1163 538 1155 q 586 1181 564 1171 q 620 1199 609 1190 q 632 1221 632 1208 q 614 1246 632 1238 q 551 1255 595 1255 q 416 1231 480 1255 l 416 1276 q 479 1294 443 1288 q 554 1300 515 1300 m 338 1122 l 418 1122 l 572 874 l 499 874 l 378 1075 l 257 874 l 185 874 l 338 1122 z "},"ỗ":{"ha":756,"x_min":69,"x_max":686,"o":"m 378 -13 q 151 82 232 -13 q 69 376 69 176 q 151 668 69 574 q 378 763 232 763 q 605 669 524 763 q 686 376 686 575 q 605 82 686 178 q 378 -13 523 -13 m 378 58 q 543 131 486 58 q 600 374 600 204 q 543 619 600 546 q 378 692 486 692 q 213 620 269 692 q 156 378 156 547 q 213 132 156 206 q 378 58 269 58 m 477 1210 q 536 1222 510 1210 q 588 1258 563 1234 l 588 1199 q 476 1156 546 1156 q 427 1163 450 1156 q 367 1183 404 1169 q 319 1201 339 1195 q 279 1208 299 1208 q 220 1196 247 1208 q 169 1159 193 1184 l 169 1219 q 280 1263 210 1263 q 329 1256 306 1263 q 389 1235 352 1249 q 438 1217 417 1223 q 477 1210 458 1210 m 338 1115 l 419 1115 l 574 874 l 501 874 l 378 1071 l 256 874 l 182 874 l 338 1115 z "},"ȍ":{"ha":756,"x_min":69,"x_max":686,"o":"m 378 -13 q 151 82 232 -13 q 69 376 69 176 q 151 668 69 574 q 378 763 232 763 q 605 669 524 763 q 686 376 686 575 q 605 82 686 178 q 378 -13 523 -13 m 378 58 q 543 131 486 58 q 600 374 600 204 q 543 619 600 546 q 378 692 486 692 q 213 620 269 692 q 156 378 156 547 q 213 132 156 206 q 378 58 269 58 m 233 874 l 131 1122 l 207 1122 l 301 874 l 233 874 m 455 874 l 353 1122 l 428 1122 l 522 874 l 455 874 z "},"ö":{"ha":756,"x_min":69,"x_max":686,"o":"m 378 -13 q 151 82 232 -13 q 69 376 69 176 q 151 668 69 574 q 378 763 232 763 q 605 669 524 763 q 686 376 686 575 q 605 82 686 178 q 378 -13 523 -13 m 378 58 q 543 131 486 58 q 600 374 600 204 q 543 619 600 546 q 378 692 486 692 q 213 620 269 692 q 156 378 156 547 q 213 132 156 206 q 378 58 269 58 m 233 930 q 190 945 206 930 q 174 987 174 960 q 190 1030 174 1013 q 233 1046 206 1046 q 275 1030 259 1046 q 292 987 292 1013 q 276 945 292 960 q 233 930 260 930 m 524 930 q 481 945 497 930 q 465 987 465 960 q 481 1030 465 1013 q 524 1046 497 1046 q 567 1030 551 1046 q 583 987 583 1013 q 567 945 583 960 q 524 930 551 930 z "},"ȫ":{"ha":756,"x_min":69,"x_max":686,"o":"m 378 -13 q 151 82 232 -13 q 69 376 69 176 q 151 668 69 574 q 378 763 232 763 q 605 669 524 763 q 686 376 686 575 q 605 82 686 178 q 378 -13 523 -13 m 378 58 q 543 131 486 58 q 600 374 600 204 q 543 619 600 546 q 378 692 486 692 q 213 620 269 692 q 156 378 156 547 q 213 132 156 206 q 378 58 269 58 m 233 930 q 190 945 206 930 q 174 987 174 960 q 190 1030 174 1013 q 233 1046 206 1046 q 275 1030 259 1046 q 292 987 292 1013 q 276 945 292 960 q 233 930 260 930 m 524 930 q 481 945 497 930 q 465 987 465 960 q 481 1030 465 1013 q 524 1046 497 1046 q 567 1030 551 1046 q 583 987 583 1013 q 567 945 583 960 q 524 930 551 930 m 171 1156 l 171 1217 l 585 1217 l 585 1156 l 171 1156 z "},"ȱ":{"ha":756,"x_min":69,"x_max":686,"o":"m 378 -13 q 151 82 232 -13 q 69 376 69 176 q 151 668 69 574 q 378 763 232 763 q 605 669 524 763 q 686 376 686 575 q 605 82 686 178 q 378 -13 523 -13 m 378 58 q 543 131 486 58 q 600 374 600 204 q 543 619 600 546 q 378 692 486 692 q 213 620 269 692 q 156 378 156 547 q 213 132 156 206 q 378 58 269 58 m 378 929 q 332 944 349 929 q 315 987 315 960 q 332 1030 315 1014 q 378 1047 349 1047 q 424 1030 407 1047 q 440 987 440 1014 q 424 944 440 960 q 378 929 408 929 m 171 1157 l 171 1217 l 585 1217 l 585 1157 l 171 1157 z "},"ọ":{"ha":756,"x_min":69,"x_max":686,"o":"m 378 -13 q 151 82 232 -13 q 69 376 69 176 q 151 668 69 574 q 378 763 232 763 q 605 669 524 763 q 686 376 686 575 q 605 82 686 178 q 378 -13 523 -13 m 378 58 q 543 131 486 58 q 600 374 600 204 q 543 619 600 546 q 378 692 486 692 q 213 620 269 692 q 156 378 156 547 q 213 132 156 206 q 378 58 269 58 m 378 -235 q 335 -219 351 -235 q 319 -178 319 -203 q 335 -135 319 -151 q 378 -119 351 -119 q 421 -135 405 -119 q 437 -178 437 -151 q 421 -219 437 -204 q 378 -235 405 -235 z "},"ò":{"ha":756,"x_min":69,"x_max":686,"o":"m 378 -13 q 151 82 232 -13 q 69 376 69 176 q 151 668 69 574 q 378 763 232 763 q 605 669 524 763 q 686 376 686 575 q 605 82 686 178 q 378 -13 523 -13 m 378 58 q 543 131 486 58 q 600 374 600 204 q 543 619 600 546 q 378 692 486 692 q 213 620 269 692 q 156 378 156 547 q 213 132 156 206 q 378 58 269 58 m 340 874 l 178 1122 l 269 1122 l 417 874 l 340 874 z "},"ỏ":{"ha":756,"x_min":69,"x_max":686,"o":"m 378 -13 q 151 82 232 -13 q 69 376 69 176 q 151 668 69 574 q 378 763 232 763 q 605 669 524 763 q 686 376 686 575 q 605 82 686 178 q 378 -13 523 -13 m 378 58 q 543 131 486 58 q 600 374 600 204 q 543 619 600 546 q 378 692 486 692 q 213 620 269 692 q 156 378 156 547 q 213 132 156 206 q 378 58 269 58 m 349 874 q 360 919 350 900 q 382 949 369 938 q 416 976 395 961 q 449 1004 439 992 q 460 1033 460 1015 q 440 1070 460 1058 q 375 1082 419 1082 q 319 1078 349 1082 q 267 1065 290 1074 l 267 1114 q 319 1126 289 1122 q 376 1131 349 1131 q 482 1106 447 1131 q 517 1036 517 1082 q 502 986 517 1005 q 460 949 488 968 q 421 915 434 931 q 407 874 408 899 l 349 874 z "},"ơ":{"ha":756,"x_min":69,"x_max":703,"o":"m 570 703 q 657 575 628 656 q 686 376 686 493 q 605 82 686 178 q 378 -13 523 -13 q 151 82 232 -13 q 69 376 69 176 q 151 669 69 574 q 378 763 232 763 q 454 760 399 763 q 502 757 490 757 q 602 785 567 757 q 638 872 638 813 q 634 919 638 897 q 622 969 630 942 l 687 969 q 700 921 696 944 q 703 868 703 899 q 668 758 703 801 q 570 703 633 716 m 378 58 q 543 131 486 58 q 600 374 600 204 q 543 619 600 546 q 378 692 486 692 q 213 620 269 692 q 156 378 156 547 q 213 132 156 206 q 378 58 269 58 z "},"ớ":{"ha":756,"x_min":69,"x_max":703,"o":"m 573 1122 l 413 874 l 337 874 l 483 1122 l 573 1122 m 570 703 q 657 575 628 656 q 686 376 686 493 q 605 82 686 178 q 378 -13 523 -13 q 151 82 232 -13 q 69 376 69 176 q 151 669 69 574 q 378 763 232 763 q 454 760 399 763 q 502 757 490 757 q 602 785 567 757 q 638 872 638 813 q 634 919 638 897 q 622 969 630 942 l 687 969 q 700 921 696 944 q 703 868 703 899 q 668 758 703 801 q 570 703 633 716 m 378 58 q 543 131 486 58 q 600 374 600 204 q 543 619 600 546 q 378 692 486 692 q 213 620 269 692 q 156 378 156 547 q 213 132 156 206 q 378 58 269 58 z "},"ợ":{"ha":756,"x_min":69,"x_max":703,"o":"m 570 703 q 657 575 628 656 q 686 376 686 493 q 605 82 686 178 q 378 -13 523 -13 q 151 82 232 -13 q 69 376 69 176 q 151 669 69 574 q 378 763 232 763 q 454 760 399 763 q 502 757 490 757 q 602 785 567 757 q 638 872 638 813 q 634 919 638 897 q 622 969 630 942 l 687 969 q 700 921 696 944 q 703 868 703 899 q 668 758 703 801 q 570 703 633 716 m 378 58 q 543 131 486 58 q 600 374 600 204 q 543 619 600 546 q 378 692 486 692 q 213 620 269 692 q 156 378 156 547 q 213 132 156 206 q 378 58 269 58 m 376 -235 q 333 -219 349 -235 q 317 -178 317 -203 q 333 -135 317 -151 q 376 -119 349 -119 q 419 -135 403 -119 q 435 -178 435 -151 q 419 -219 435 -204 q 376 -235 403 -235 z "},"ờ":{"ha":756,"x_min":69,"x_max":703,"o":"m 570 703 q 657 575 628 656 q 686 376 686 493 q 605 82 686 178 q 378 -13 523 -13 q 151 82 232 -13 q 69 376 69 176 q 151 669 69 574 q 378 763 232 763 q 454 760 399 763 q 502 757 490 757 q 602 785 567 757 q 638 872 638 813 q 634 919 638 897 q 622 969 630 942 l 687 969 q 700 921 696 944 q 703 868 703 899 q 668 758 703 801 q 570 703 633 716 m 378 58 q 543 131 486 58 q 600 374 600 204 q 543 619 600 546 q 378 692 486 692 q 213 620 269 692 q 156 378 156 547 q 213 132 156 206 q 378 58 269 58 m 337 874 l 175 1122 l 267 1122 l 414 874 l 337 874 z "},"ở":{"ha":756,"x_min":69,"x_max":703,"o":"m 570 703 q 657 575 628 656 q 686 376 686 493 q 605 82 686 178 q 378 -13 523 -13 q 151 82 232 -13 q 69 376 69 176 q 151 669 69 574 q 378 763 232 763 q 454 760 399 763 q 502 757 490 757 q 602 785 567 757 q 638 872 638 813 q 634 919 638 897 q 622 969 630 942 l 687 969 q 700 921 696 944 q 703 868 703 899 q 668 758 703 801 q 570 703 633 716 m 378 58 q 543 131 486 58 q 600 374 600 204 q 543 619 600 546 q 378 692 486 692 q 213 620 269 692 q 156 378 156 547 q 213 132 156 206 q 378 58 269 58 m 347 874 q 357 919 347 900 q 380 949 367 938 q 413 976 392 961 q 447 1004 436 992 q 457 1033 457 1015 q 437 1070 457 1058 q 372 1082 417 1082 q 317 1078 346 1082 q 265 1065 288 1074 l 265 1114 q 316 1126 286 1122 q 374 1131 346 1131 q 479 1106 444 1131 q 514 1036 514 1082 q 499 986 514 1005 q 457 949 485 968 q 418 915 431 931 q 404 874 405 899 l 347 874 z "},"ỡ":{"ha":756,"x_min":69,"x_max":703,"o":"m 276 999 q 219 987 244 999 q 169 949 193 975 l 169 1014 q 277 1059 210 1059 q 327 1051 303 1059 q 383 1029 351 1044 q 431 1010 413 1016 q 468 1003 449 1003 q 526 1016 500 1003 q 576 1055 552 1028 l 576 990 q 467 944 535 944 q 419 952 442 944 q 363 974 396 959 q 315 993 334 986 q 276 999 295 999 m 570 703 q 657 575 628 656 q 686 376 686 493 q 605 82 686 178 q 378 -13 523 -13 q 151 82 232 -13 q 69 376 69 176 q 151 669 69 574 q 378 763 232 763 q 454 760 399 763 q 502 757 490 757 q 602 785 567 757 q 638 872 638 813 q 634 919 638 897 q 622 969 630 942 l 687 969 q 700 921 696 944 q 703 868 703 899 q 668 758 703 801 q 570 703 633 716 m 378 58 q 543 131 486 58 q 600 374 600 204 q 543 619 600 546 q 378 692 486 692 q 213 620 269 692 q 156 378 156 547 q 213 132 156 206 q 378 58 269 58 z "},"ő":{"ha":756,"x_min":69,"x_max":686,"o":"m 378 -13 q 151 82 232 -13 q 69 376 69 176 q 151 668 69 574 q 378 763 232 763 q 605 669 524 763 q 686 376 686 575 q 605 82 686 178 q 378 -13 523 -13 m 378 58 q 543 131 486 58 q 600 374 600 204 q 543 619 600 546 q 378 692 486 692 q 213 620 269 692 q 156 378 156 547 q 213 132 156 206 q 378 58 269 58 m 235 874 l 331 1122 l 403 1122 l 301 874 l 235 874 m 455 874 l 550 1122 l 623 1122 l 521 874 l 455 874 z "},"ȏ":{"ha":756,"x_min":69,"x_max":686,"o":"m 378 -13 q 151 82 232 -13 q 69 376 69 176 q 151 668 69 574 q 378 763 232 763 q 605 669 524 763 q 686 376 686 575 q 605 82 686 178 q 378 -13 523 -13 m 378 58 q 543 131 486 58 q 600 374 600 204 q 543 619 600 546 q 378 692 486 692 q 213 620 269 692 q 156 378 156 547 q 213 132 156 206 q 378 58 269 58 m 181 893 q 236 1058 185 1001 q 377 1115 286 1115 q 519 1057 467 1115 q 575 893 570 999 l 515 893 q 377 1060 505 1060 q 278 1018 312 1060 q 241 893 245 976 l 181 893 z "},"ō":{"ha":756,"x_min":69,"x_max":686,"o":"m 378 -13 q 151 82 232 -13 q 69 376 69 176 q 151 668 69 574 q 378 763 232 763 q 605 669 524 763 q 686 376 686 575 q 605 82 686 178 q 378 -13 523 -13 m 378 58 q 543 131 486 58 q 600 374 600 204 q 543 619 600 546 q 378 692 486 692 q 213 620 269 692 q 156 378 156 547 q 213 132 156 206 q 378 58 269 58 m 171 958 l 171 1018 l 585 1018 l 585 958 l 171 958 z "},"ṓ":{"ha":756,"x_min":69,"x_max":686,"o":"m 378 -13 q 151 82 232 -13 q 69 376 69 176 q 151 668 69 574 q 378 763 232 763 q 605 669 524 763 q 686 376 686 575 q 605 82 686 178 q 378 -13 523 -13 m 378 58 q 543 131 486 58 q 600 374 600 204 q 543 619 600 546 q 378 692 486 692 q 213 620 269 692 q 156 378 156 547 q 213 132 156 206 q 378 58 269 58 m 171 958 l 171 1018 l 585 1018 l 585 958 l 171 958 m 340 1117 l 462 1310 l 554 1310 l 416 1117 l 340 1117 z "},"ṑ":{"ha":756,"x_min":69,"x_max":686,"o":"m 378 -13 q 151 82 232 -13 q 69 376 69 176 q 151 668 69 574 q 378 763 232 763 q 605 669 524 763 q 686 376 686 575 q 605 82 686 178 q 378 -13 523 -13 m 378 58 q 543 131 486 58 q 600 374 600 204 q 543 619 600 546 q 378 692 486 692 q 213 620 269 692 q 156 378 156 547 q 213 132 156 206 q 378 58 269 58 m 171 958 l 171 1018 l 585 1018 l 585 958 l 171 958 m 340 1117 l 202 1310 l 294 1310 l 417 1117 l 340 1117 z "},"ǫ":{"ha":756,"x_min":69,"x_max":686,"o":"m 483 1 q 362 -67 398 -25 q 326 -155 326 -108 q 350 -216 326 -194 q 416 -237 374 -237 q 508 -214 463 -237 l 519 -258 q 411 -284 469 -284 q 308 -251 346 -284 q 269 -161 269 -219 q 356 -12 269 -69 q 145 89 220 -6 q 69 376 69 184 q 151 668 69 574 q 378 763 232 763 q 605 669 524 763 q 686 376 686 575 q 483 1 686 66 m 156 378 q 213 132 156 206 q 378 58 269 58 q 543 131 486 58 q 600 374 600 204 q 543 619 600 546 q 378 692 486 692 q 213 620 269 692 q 156 378 156 547 z "},"ø":{"ha":756,"x_min":69,"x_max":686,"o":"m 614 658 q 686 376 686 560 q 605 82 686 178 q 378 -13 523 -13 q 182 50 256 -13 l 134 -17 l 87 17 l 142 94 q 69 376 69 191 q 151 668 69 574 q 378 763 232 763 q 573 701 499 763 l 622 769 l 669 735 l 614 658 m 378 693 q 211 620 269 693 q 154 378 154 547 q 193 162 154 240 l 530 636 q 378 693 477 693 m 378 58 q 544 131 487 58 q 601 374 601 204 q 563 590 601 513 l 225 115 q 378 58 278 58 z "},"ǿ":{"ha":756,"x_min":69,"x_max":686,"o":"m 614 658 q 686 376 686 560 q 605 82 686 178 q 378 -13 523 -13 q 182 50 256 -13 l 134 -17 l 87 17 l 142 94 q 69 376 69 191 q 151 668 69 574 q 378 763 232 763 q 573 701 499 763 l 622 769 l 669 735 l 614 658 m 378 693 q 211 620 269 693 q 154 378 154 547 q 193 162 154 240 l 530 636 q 378 693 477 693 m 378 58 q 544 131 487 58 q 601 374 601 204 q 563 590 601 513 l 225 115 q 378 58 278 58 m 335 874 l 483 1122 l 574 1122 l 413 874 l 335 874 z "},"õ":{"ha":756,"x_min":69,"x_max":686,"o":"m 378 -13 q 151 82 232 -13 q 69 376 69 176 q 151 668 69 574 q 378 763 232 763 q 605 669 524 763 q 686 376 686 575 q 605 82 686 178 q 378 -13 523 -13 m 378 58 q 543 131 486 58 q 600 374 600 204 q 543 619 600 546 q 378 692 486 692 q 213 620 269 692 q 156 378 156 547 q 213 132 156 206 q 378 58 269 58 m 474 944 q 425 952 449 944 q 368 974 402 959 q 318 993 338 987 q 281 999 299 999 q 222 987 248 999 q 171 949 196 975 l 171 1014 q 281 1059 213 1059 q 331 1051 307 1059 q 389 1029 356 1044 q 438 1010 418 1016 q 476 1003 457 1003 q 534 1016 508 1003 q 585 1055 560 1028 l 585 990 q 474 944 544 944 z "},"ṍ":{"ha":756,"x_min":69,"x_max":686,"o":"m 378 -13 q 151 82 232 -13 q 69 376 69 176 q 151 668 69 574 q 378 763 232 763 q 605 669 524 763 q 686 376 686 575 q 605 82 686 178 q 378 -13 523 -13 m 378 58 q 543 131 486 58 q 600 374 600 204 q 543 619 600 546 q 378 692 486 692 q 213 620 269 692 q 156 378 156 547 q 213 132 156 206 q 378 58 269 58 m 474 944 q 425 952 449 944 q 368 974 402 959 q 318 993 338 987 q 281 999 299 999 q 222 987 248 999 q 171 949 196 975 l 171 1014 q 281 1059 213 1059 q 331 1051 307 1059 q 389 1029 356 1044 q 438 1010 418 1016 q 476 1003 457 1003 q 534 1016 508 1003 q 585 1055 560 1028 l 585 990 q 474 944 544 944 m 353 1152 l 476 1345 l 568 1345 l 430 1152 l 353 1152 z "},"ṏ":{"ha":756,"x_min":69,"x_max":686,"o":"m 378 -13 q 151 82 232 -13 q 69 376 69 176 q 151 668 69 574 q 378 763 232 763 q 605 669 524 763 q 686 376 686 575 q 605 82 686 178 q 378 -13 523 -13 m 378 58 q 543 131 486 58 q 600 374 600 204 q 543 619 600 546 q 378 692 486 692 q 213 620 269 692 q 156 378 156 547 q 213 132 156 206 q 378 58 269 58 m 474 944 q 425 952 449 944 q 368 974 402 959 q 318 993 338 987 q 281 999 299 999 q 222 987 248 999 q 171 949 196 975 l 171 1014 q 281 1059 213 1059 q 331 1051 307 1059 q 389 1029 356 1044 q 438 1010 418 1016 q 476 1003 457 1003 q 534 1016 508 1003 q 585 1055 560 1028 l 585 990 q 474 944 544 944 m 233 1128 q 190 1144 206 1128 q 174 1185 174 1159 q 190 1228 174 1212 q 233 1244 206 1244 q 275 1228 259 1244 q 292 1185 292 1212 q 276 1144 292 1159 q 233 1128 260 1128 m 524 1128 q 481 1144 497 1128 q 465 1185 465 1159 q 481 1228 465 1212 q 524 1244 497 1244 q 567 1228 551 1244 q 583 1185 583 1212 q 567 1144 583 1159 q 524 1128 551 1128 z "},"ȭ":{"ha":756,"x_min":69,"x_max":686,"o":"m 378 -13 q 151 82 232 -13 q 69 376 69 176 q 151 668 69 574 q 378 763 232 763 q 605 669 524 763 q 686 376 686 575 q 605 82 686 178 q 378 -13 523 -13 m 378 58 q 543 131 486 58 q 600 374 600 204 q 543 619 600 546 q 378 692 486 692 q 213 620 269 692 q 156 378 156 547 q 213 132 156 206 q 378 58 269 58 m 474 944 q 425 952 449 944 q 368 974 402 959 q 318 993 338 987 q 281 999 299 999 q 222 987 248 999 q 171 949 196 975 l 171 1014 q 281 1059 213 1059 q 331 1051 307 1059 q 389 1029 356 1044 q 438 1010 418 1016 q 476 1003 457 1003 q 534 1016 508 1003 q 585 1055 560 1028 l 585 990 q 474 944 544 944 m 171 1156 l 171 1217 l 585 1217 l 585 1156 l 171 1156 z "},"œ":{"ha":1222,"x_min":69,"x_max":1164,"o":"m 1164 346 l 681 346 q 714 178 684 242 q 800 87 744 115 q 943 58 857 58 q 1128 90 1025 58 l 1128 19 q 935 -13 1027 -13 q 746 30 820 -13 q 635 163 672 72 q 535 31 601 74 q 374 -13 468 -13 q 150 82 231 -13 q 69 376 69 176 q 150 668 69 574 q 374 763 231 763 q 638 584 572 763 q 732 719 669 675 q 887 764 796 764 q 1092 669 1020 764 q 1164 376 1164 574 l 1164 346 m 884 699 q 736 631 788 699 q 681 409 684 563 l 1082 409 q 1029 632 1078 565 q 884 699 979 699 m 376 58 q 539 132 482 58 q 595 374 595 205 q 539 619 595 546 q 376 692 482 692 q 212 620 269 692 q 156 378 156 547 q 212 132 156 206 q 376 58 269 58 z "},"p":{"ha":767,"x_min":110,"x_max":697,"o":"m 110 752 l 183 752 l 189 668 l 195 668 q 285 738 231 712 q 404 763 339 763 q 617 674 536 763 q 697 390 697 585 q 325 -12 697 -12 q 194 -2 265 -12 l 194 -306 l 110 -306 l 110 752 m 327 58 q 541 136 470 58 q 611 382 611 213 q 552 620 611 551 q 389 690 494 690 q 280 664 331 690 q 194 586 228 638 l 194 73 q 257 62 221 66 q 327 58 292 58 z "},"þ":{"ha":767,"x_min":110,"x_max":697,"o":"m 110 1122 l 194 1122 l 194 672 l 199 672 q 290 739 236 715 q 411 763 344 763 q 618 674 540 763 q 697 390 697 585 q 325 -12 697 -12 q 194 -2 265 -12 l 194 -306 l 110 -306 l 110 1122 m 327 58 q 541 136 470 58 q 611 382 611 213 q 553 620 611 550 q 391 690 494 690 q 280 664 333 690 q 194 588 228 639 l 194 73 q 257 62 221 66 q 327 58 292 58 z "},"q":{"ha":767,"x_min":69,"x_max":656,"o":"m 572 77 l 567 77 q 476 12 531 36 q 356 -12 422 -12 q 148 77 227 -12 q 69 360 69 166 q 439 763 69 763 q 551 755 494 763 q 656 731 608 747 l 656 -306 l 572 -306 l 572 77 m 376 61 q 485 86 433 61 q 572 159 538 111 l 572 675 q 507 688 544 683 q 433 692 470 692 q 225 615 294 692 q 156 369 156 538 q 214 131 156 200 q 376 61 272 61 z "},"r":{"ha":488,"x_min":110,"x_max":478,"o":"m 110 752 l 181 752 l 188 651 l 194 651 q 294 730 234 702 q 419 758 354 758 q 478 753 453 758 l 478 674 q 416 678 454 678 q 293 649 354 678 q 194 563 231 619 l 194 0 l 110 0 l 110 752 z "},"ŕ":{"ha":488,"x_min":110,"x_max":488,"o":"m 110 752 l 181 752 l 188 651 l 194 651 q 294 730 234 702 q 419 758 354 758 q 478 753 453 758 l 478 674 q 416 678 454 678 q 293 649 354 678 q 194 563 231 619 l 194 0 l 110 0 l 110 752 m 249 874 l 397 1122 l 488 1122 l 326 874 l 249 874 z "},"ř":{"ha":488,"x_min":92,"x_max":483,"o":"m 110 752 l 181 752 l 188 651 l 194 651 q 294 730 234 702 q 419 758 354 758 q 478 753 453 758 l 478 674 q 416 678 454 678 q 293 649 354 678 q 194 563 231 619 l 194 0 l 110 0 l 110 752 m 412 1122 l 483 1122 l 328 874 l 248 874 l 92 1122 l 164 1122 l 288 919 l 412 1122 z "},"ŗ":{"ha":488,"x_min":92,"x_max":478,"o":"m 110 752 l 181 752 l 188 651 l 194 651 q 294 730 234 702 q 419 758 354 758 q 478 753 453 758 l 478 674 q 416 678 454 678 q 293 649 354 678 q 194 563 231 619 l 194 0 l 110 0 l 110 752 m 150 -119 q 197 -137 181 -119 q 213 -188 213 -154 q 203 -252 213 -217 q 176 -318 194 -287 l 124 -318 q 150 -222 147 -263 q 108 -207 123 -221 q 92 -170 92 -193 q 108 -133 92 -147 q 150 -119 123 -119 z "},"ȑ":{"ha":488,"x_min":41,"x_max":478,"o":"m 110 752 l 181 752 l 188 651 l 194 651 q 294 730 234 702 q 419 758 354 758 q 478 753 453 758 l 478 674 q 416 678 454 678 q 293 649 354 678 q 194 563 231 619 l 194 0 l 110 0 l 110 752 m 143 874 l 41 1122 l 117 1122 l 211 874 l 143 874 m 365 874 l 263 1122 l 338 1122 l 432 874 l 365 874 z "},"ṛ":{"ha":488,"x_min":93,"x_max":478,"o":"m 110 752 l 181 752 l 188 651 l 194 651 q 294 730 234 702 q 419 758 354 758 q 478 753 453 758 l 478 674 q 416 678 454 678 q 293 649 354 678 q 194 563 231 619 l 194 0 l 110 0 l 110 752 m 152 -235 q 109 -219 126 -235 q 93 -178 93 -203 q 109 -135 93 -151 q 152 -119 126 -119 q 195 -135 179 -119 q 211 -178 211 -151 q 195 -219 211 -204 q 152 -235 179 -235 z "},"ȓ":{"ha":488,"x_min":91,"x_max":485,"o":"m 110 752 l 181 752 l 188 651 l 194 651 q 294 730 234 702 q 419 758 354 758 q 478 753 453 758 l 478 674 q 416 678 454 678 q 293 649 354 678 q 194 563 231 619 l 194 0 l 110 0 l 110 752 m 91 893 q 145 1058 95 1001 q 287 1115 196 1115 q 428 1057 377 1115 q 485 893 480 999 l 424 893 q 287 1060 415 1060 q 188 1018 222 1060 q 151 893 155 976 l 91 893 z "},"ṟ":{"ha":488,"x_min":-35,"x_max":478,"o":"m 110 752 l 181 752 l 188 651 l 194 651 q 294 730 234 702 q 419 758 354 758 q 478 753 453 758 l 478 674 q 416 678 454 678 q 293 649 354 678 q 194 563 231 619 l 194 0 l 110 0 l 110 752 m -35 -208 l -35 -148 l 340 -148 l 340 -208 l -35 -208 z "},"s":{"ha":612,"x_min":66,"x_max":560,"o":"m 279 -13 q 79 17 172 -13 l 79 88 q 182 64 134 72 q 280 57 230 57 q 479 197 479 57 q 450 284 479 254 q 351 331 420 315 l 254 351 q 110 422 155 372 q 66 551 66 471 q 97 661 66 614 q 192 736 128 709 q 350 763 256 763 q 521 742 442 763 l 521 670 q 436 688 476 683 q 351 693 397 693 q 197 655 246 693 q 148 554 148 617 q 176 470 148 502 q 272 424 205 438 l 368 403 q 516 333 471 381 q 560 202 560 284 q 488 44 560 101 q 279 -13 416 -13 z "},"ś":{"ha":612,"x_min":66,"x_max":560,"o":"m 279 -13 q 79 17 172 -13 l 79 88 q 182 64 134 72 q 280 57 230 57 q 479 197 479 57 q 450 284 479 254 q 351 331 420 315 l 254 351 q 110 422 155 372 q 66 551 66 471 q 97 661 66 614 q 192 736 128 709 q 350 763 256 763 q 521 742 442 763 l 521 670 q 436 688 476 683 q 351 693 397 693 q 197 655 246 693 q 148 554 148 617 q 176 470 148 502 q 272 424 205 438 l 368 403 q 516 333 471 381 q 560 202 560 284 q 488 44 560 101 q 279 -13 416 -13 m 272 874 l 419 1122 l 510 1122 l 349 874 l 272 874 z "},"ṥ":{"ha":612,"x_min":66,"x_max":560,"o":"m 279 -13 q 79 17 172 -13 l 79 88 q 182 64 134 72 q 280 57 230 57 q 479 197 479 57 q 450 284 479 254 q 351 331 420 315 l 254 351 q 110 422 155 372 q 66 551 66 471 q 97 661 66 614 q 192 736 128 709 q 350 763 256 763 q 521 742 442 763 l 521 670 q 436 688 476 683 q 351 693 397 693 q 197 655 246 693 q 148 554 148 617 q 176 470 148 502 q 272 424 205 438 l 368 403 q 516 333 471 381 q 560 202 560 284 q 488 44 560 101 q 279 -13 416 -13 m 264 1094 q 222 1108 238 1094 q 207 1146 207 1122 q 223 1184 207 1170 q 264 1199 238 1199 q 305 1184 290 1199 q 321 1146 321 1170 q 306 1108 321 1122 q 264 1094 290 1094 m 272 874 l 419 1122 l 510 1122 l 349 874 l 272 874 z "},"š":{"ha":612,"x_min":66,"x_max":560,"o":"m 279 -13 q 79 17 172 -13 l 79 88 q 182 64 134 72 q 280 57 230 57 q 479 197 479 57 q 450 284 479 254 q 351 331 420 315 l 254 351 q 110 422 155 372 q 66 551 66 471 q 97 661 66 614 q 192 736 128 709 q 350 763 256 763 q 521 742 442 763 l 521 670 q 436 688 476 683 q 351 693 397 693 q 197 655 246 693 q 148 554 148 617 q 176 470 148 502 q 272 424 205 438 l 368 403 q 516 333 471 381 q 560 202 560 284 q 488 44 560 101 q 279 -13 416 -13 m 434 1122 l 506 1122 l 350 874 l 270 874 l 115 1122 l 186 1122 l 310 919 l 434 1122 z "},"ṧ":{"ha":612,"x_min":66,"x_max":560,"o":"m 279 -13 q 79 17 172 -13 l 79 88 q 182 64 134 72 q 280 57 230 57 q 479 197 479 57 q 450 284 479 254 q 351 331 420 315 l 254 351 q 110 422 155 372 q 66 551 66 471 q 97 661 66 614 q 192 736 128 709 q 350 763 256 763 q 521 742 442 763 l 521 670 q 436 688 476 683 q 351 693 397 693 q 197 655 246 693 q 148 554 148 617 q 176 470 148 502 q 272 424 205 438 l 368 403 q 516 333 471 381 q 560 202 560 284 q 488 44 560 101 q 279 -13 416 -13 m 310 1125 q 268 1139 283 1125 q 253 1176 253 1153 q 268 1215 253 1201 q 310 1229 284 1229 q 352 1215 336 1229 q 367 1176 367 1201 q 352 1139 367 1153 q 310 1125 336 1125 m 434 1122 l 506 1122 l 350 874 l 270 874 l 115 1122 l 186 1122 l 310 919 l 434 1122 z "},"ş":{"ha":612,"x_min":66,"x_max":560,"o":"m 560 202 q 504 57 560 113 q 339 -10 447 2 l 339 -75 q 418 -107 391 -80 q 446 -179 446 -134 q 411 -256 446 -228 q 312 -284 376 -284 q 250 -277 281 -284 q 197 -259 219 -271 l 197 -210 q 312 -237 251 -237 q 391 -177 391 -237 q 310 -115 391 -115 l 286 -115 l 286 -13 l 279 -13 q 79 17 172 -13 l 79 88 q 182 64 134 72 q 280 57 230 57 q 479 197 479 57 q 450 284 479 254 q 351 331 420 315 l 254 351 q 110 422 155 372 q 66 551 66 471 q 97 661 66 614 q 192 736 128 709 q 350 763 256 763 q 521 742 442 763 l 521 670 q 436 688 476 683 q 351 693 397 693 q 197 655 246 693 q 148 554 148 617 q 176 470 148 502 q 272 424 205 438 l 368 403 q 516 333 471 381 q 560 202 560 284 z "},"ŝ":{"ha":612,"x_min":66,"x_max":560,"o":"m 279 -13 q 79 17 172 -13 l 79 88 q 182 64 134 72 q 280 57 230 57 q 479 197 479 57 q 450 284 479 254 q 351 331 420 315 l 254 351 q 110 422 155 372 q 66 551 66 471 q 97 661 66 614 q 192 736 128 709 q 350 763 256 763 q 521 742 442 763 l 521 670 q 436 688 476 683 q 351 693 397 693 q 197 655 246 693 q 148 554 148 617 q 176 470 148 502 q 272 424 205 438 l 368 403 q 516 333 471 381 q 560 202 560 284 q 488 44 560 101 q 279 -13 416 -13 m 503 874 l 431 874 l 310 1075 l 189 874 l 117 874 l 270 1122 l 350 1122 l 503 874 z "},"ș":{"ha":612,"x_min":66,"x_max":560,"o":"m 279 -13 q 79 17 172 -13 l 79 88 q 182 64 134 72 q 280 57 230 57 q 479 197 479 57 q 450 284 479 254 q 351 331 420 315 l 254 351 q 110 422 155 372 q 66 551 66 471 q 97 661 66 614 q 192 736 128 709 q 350 763 256 763 q 521 742 442 763 l 521 670 q 436 688 476 683 q 351 693 397 693 q 197 655 246 693 q 148 554 148 617 q 176 470 148 502 q 272 424 205 438 l 368 403 q 516 333 471 381 q 560 202 560 284 q 488 44 560 101 q 279 -13 416 -13 m 308 -119 q 354 -137 338 -119 q 370 -188 370 -154 q 361 -252 370 -217 q 334 -318 351 -287 l 282 -318 q 308 -222 305 -263 q 265 -207 281 -221 q 250 -170 250 -193 q 265 -133 250 -147 q 308 -119 281 -119 z "},"ṡ":{"ha":612,"x_min":66,"x_max":560,"o":"m 279 -13 q 79 17 172 -13 l 79 88 q 182 64 134 72 q 280 57 230 57 q 479 197 479 57 q 450 284 479 254 q 351 331 420 315 l 254 351 q 110 422 155 372 q 66 551 66 471 q 97 661 66 614 q 192 736 128 709 q 350 763 256 763 q 521 742 442 763 l 521 670 q 436 688 476 683 q 351 693 397 693 q 197 655 246 693 q 148 554 148 617 q 176 470 148 502 q 272 424 205 438 l 368 403 q 516 333 471 381 q 560 202 560 284 q 488 44 560 101 q 279 -13 416 -13 m 310 929 q 264 944 281 929 q 247 987 247 960 q 264 1030 247 1014 q 310 1047 281 1047 q 356 1030 339 1047 q 372 987 372 1014 q 356 944 372 960 q 310 929 340 929 z "},"ṣ":{"ha":612,"x_min":66,"x_max":560,"o":"m 279 -13 q 79 17 172 -13 l 79 88 q 182 64 134 72 q 280 57 230 57 q 479 197 479 57 q 450 284 479 254 q 351 331 420 315 l 254 351 q 110 422 155 372 q 66 551 66 471 q 97 661 66 614 q 192 736 128 709 q 350 763 256 763 q 521 742 442 763 l 521 670 q 436 688 476 683 q 351 693 397 693 q 197 655 246 693 q 148 554 148 617 q 176 470 148 502 q 272 424 205 438 l 368 403 q 516 333 471 381 q 560 202 560 284 q 488 44 560 101 q 279 -13 416 -13 m 310 -235 q 267 -219 283 -235 q 251 -178 251 -203 q 267 -135 251 -151 q 310 -119 283 -119 q 353 -135 337 -119 q 369 -178 369 -151 q 353 -219 369 -204 q 310 -235 337 -235 z "},"ṩ":{"ha":612,"x_min":66,"x_max":560,"o":"m 279 -13 q 79 17 172 -13 l 79 88 q 182 64 134 72 q 280 57 230 57 q 479 197 479 57 q 450 284 479 254 q 351 331 420 315 l 254 351 q 110 422 155 372 q 66 551 66 471 q 97 661 66 614 q 192 736 128 709 q 350 763 256 763 q 521 742 442 763 l 521 670 q 436 688 476 683 q 351 693 397 693 q 197 655 246 693 q 148 554 148 617 q 176 470 148 502 q 272 424 205 438 l 368 403 q 516 333 471 381 q 560 202 560 284 q 488 44 560 101 q 279 -13 416 -13 m 310 -235 q 267 -219 283 -235 q 251 -178 251 -203 q 267 -135 251 -151 q 310 -119 283 -119 q 353 -135 337 -119 q 369 -178 369 -151 q 353 -219 369 -204 q 310 -235 337 -235 m 310 929 q 264 944 281 929 q 247 987 247 960 q 264 1030 247 1014 q 310 1047 281 1047 q 356 1030 339 1047 q 372 987 372 1014 q 356 944 372 960 q 310 929 340 929 z "},"ß":{"ha":934,"x_min":12,"x_max":883,"o":"m 690 403 q 839 333 794 381 q 883 202 883 285 q 811 44 883 101 q 600 -13 738 -13 q 401 15 493 -13 l 401 86 q 600 57 503 57 q 801 197 801 57 q 772 284 801 254 q 673 331 742 315 l 576 351 q 433 422 477 372 q 389 551 389 471 q 420 660 389 613 q 514 734 451 708 q 669 761 577 761 q 722 759 694 761 q 728 829 728 797 q 665 1012 728 956 q 494 1068 602 1068 q 306 1000 369 1068 q 242 781 242 931 l 242 0 l 158 0 l 158 679 l 12 679 l 12 752 l 158 752 l 158 784 q 245 1048 158 959 q 491 1136 331 1136 q 650 1103 581 1136 q 757 1001 718 1071 q 796 826 796 932 q 791 752 796 791 q 778 684 785 713 q 676 693 728 693 q 519 655 569 693 q 470 554 470 617 q 499 470 470 502 q 594 424 528 438 l 690 403 z "},"t":{"ha":503,"x_min":6,"x_max":495,"o":"m 401 62 q 495 74 443 62 l 495 0 q 385 -12 440 -12 q 153 227 153 -12 l 153 681 l 6 681 l 6 752 l 153 752 l 165 1028 l 236 1028 l 236 752 l 482 752 l 482 681 l 236 681 l 236 241 q 276 103 236 144 q 401 62 317 62 z "},"ŧ":{"ha":503,"x_min":6,"x_max":495,"o":"m 401 62 q 495 74 443 62 l 495 0 q 385 -12 440 -12 q 153 227 153 -12 l 153 417 l 47 417 l 47 478 l 153 478 l 153 681 l 6 681 l 6 752 l 153 752 l 165 1028 l 236 1028 l 236 752 l 482 752 l 482 681 l 236 681 l 236 478 l 449 478 l 449 417 l 236 417 l 236 241 q 276 103 236 144 q 401 62 317 62 z "},"ť":{"ha":503,"x_min":6,"x_max":495,"o":"m 401 62 q 495 74 443 62 l 495 0 q 385 -12 440 -12 q 153 227 153 -12 l 153 681 l 6 681 l 6 752 l 153 752 l 165 1028 l 236 1028 l 236 752 l 482 752 l 482 681 l 236 681 l 236 241 q 276 103 236 144 q 401 62 317 62 m 352 819 q 366 1122 366 935 l 432 1122 q 425 965 432 1044 q 402 819 417 886 l 352 819 z "},"ţ":{"ha":503,"x_min":6,"x_max":495,"o":"m 385 -12 q 353 -11 374 -12 l 353 -75 q 433 -107 406 -80 q 460 -179 460 -134 q 425 -256 460 -228 q 326 -284 390 -284 q 265 -277 296 -284 q 211 -259 233 -271 l 211 -210 q 326 -237 265 -237 q 406 -177 406 -237 q 325 -115 406 -115 l 301 -115 l 301 -3 q 153 227 153 36 l 153 681 l 6 681 l 6 752 l 153 752 l 165 1028 l 236 1028 l 236 752 l 482 752 l 482 681 l 236 681 l 236 241 q 276 103 236 144 q 401 62 317 62 q 495 74 443 62 l 495 0 q 385 -12 440 -12 z "}}}
